<svg width="256" height="256" viewBox="0 0 256 256" fill="none" xmlns="http://www.w3.org/2000/svg">
<g clip-path="url(#clip0_516_1429)">
<path d="M251.887 128C251.887 59.5786 196.421 4.1123 128 4.1123C59.5786 4.1123 4.1123 59.5786 4.1123 128C4.1123 196.421 59.5786 251.887 128 251.887C196.421 251.887 251.887 196.421 251.887 128Z" stroke="#6A7282" stroke-width="8.2249"/>
<path d="M166.79 54.4902H154.271V167.644H145.441V54.4902H68.8833V201.51H81.4025V67.0094H132.922V180.163H166.791L166.79 54.4902Z" fill="#6A7282"/>
<path d="M124.094 75.8369H90.2305V201.51H102.75V88.356H111.575V180.163H124.094V75.8369Z" fill="#6A7282"/>
<path d="M188.137 54.4902H175.618V188.991H111.579V201.51H188.137V54.4902Z" fill="#6A7282"/>
</g>
<defs>
<clipPath id="clip0_516_1429">
<rect width="256" height="256" fill="white"/>
</clipPath>
</defs>
</svg>
