<svg width="541" height="583" viewBox="0 0 541 583" fill="none" xmlns="http://www.w3.org/2000/svg">
<path d="M440 78.3999C473.6 121.6 492.8 176 492.8 235.2C492.8 377.6 377.6 492.8 235.2 492.8C195.2 492.8 158.4 483.2 124.8 467.2L113.6 478.4V574.4L172.8 515.2C206.4 531.2 243.2 540.8 283.2 540.8C425.6 540.8 540.8 425.6 540.8 283.2C540.8 200 500.8 126.4 440 78.3999Z" fill="#CAD5E2"/>
<path d="M88 582.4V465.6C32 414.4 0 342.4 0 267.2C0 120 120 0 267.2 0C414.4 0 534.4 120 534.4 267.2C534.4 414.4 414.4 534.4 267.2 534.4C230.4 534.4 193.6 526.4 158.4 510.4L88 582.4ZM267.2 19.2C131.2 19.2 19.2 129.6 19.2 267.2C19.2 337.6 49.6 406.4 104 452.8L107.2 456V534.4L155.2 486.4L161.6 489.6C195.2 505.6 230.4 513.6 267.2 513.6C403.2 513.6 515.2 403.2 515.2 265.6C515.2 128 403.2 19.2 267.2 19.2Z" fill="#6A7282"/>
<path d="M113.6 128L99.2002 115.2C105.6 107.2 113.6 100.8 121.6 94.3999L134.4 108.8C128 115.2 120 121.6 113.6 128Z" fill="#CAD5E2"/>
<path d="M59.2 270.4H40C40 222.4 54.4 176 83.2 137.6L99.2 148.8C72 184 59.2 225.6 59.2 270.4Z" fill="#CAD5E2"/>
<path d="M392 209.6C380.8 198.4 368 193.6 353.6 192C368 216 364.8 248 344 268.8L243.2 369.6L283.2 409.6L392 300.8C416 275.2 416 235.2 392 209.6Z" fill="#CAD5E2"/>
<path d="M267.2 406.4L259.2 400L150.4 291.2C121.6 262.4 121.6 216 150.4 187.2C179.2 158.4 225.6 158.4 254.4 187.2L265.6 198.4L276.8 187.2C305.6 158.4 352 158.4 380.8 187.2C409.6 216 409.6 262.4 380.8 291.2L267.2 406.4ZM204.8 185.6C190.4 185.6 177.6 190.4 166.4 201.6C145.6 222.4 145.6 257.6 166.4 278.4L267.2 379.2L368 278.4C388.8 257.6 388.8 222.4 368 201.6C347.2 180.8 312 180.8 291.2 201.6L267.2 225.6L243.2 201.6C232 190.4 217.6 185.6 204.8 185.6Z" fill="#6A7282"/>
</svg>
