<svg width="1031" height="1031" viewBox="0 0 1031 1031" fill="none" xmlns="http://www.w3.org/2000/svg">
<g filter="url(#filter0_d_488_396)">
<path d="M511.793 984.738L283.525 757.269H740.061L511.793 984.738Z" fill="#6A7282"/>
<path d="M283.525 121.451H740.061V757.269H283.525V121.451Z" fill="#6A7282"/>
<path d="M283.525 757.269L511.793 984.738L740.061 757.269M283.525 757.269H740.061M283.525 757.269V121.451H740.061V757.269M414.871 121.451H804.896L817.277 109.911L827.877 102.416M827.877 102.416L833.599 98.3704L843.729 84.9068V33.6169L833.599 26.5645L822.905 24L812.212 30.4112L804.896 40.0281V67.5964L807.71 78.4956L815.026 89.3947L822.905 98.3704L827.877 102.416ZM827.877 102.416L830.785 104.782L841.478 109.911L857.799 113.757L870.181 118.245L882 121.451M203.123 102.416L213.723 109.911L226.104 121.451H616.129M203.123 102.416L197.401 98.3704L187.271 84.9068V33.6169L197.401 26.5645L208.095 24L218.788 30.4112L226.104 40.0281V67.5964L223.29 78.4956L215.974 89.3947L208.095 98.3704L203.123 102.416ZM203.123 102.416L200.215 104.782L189.522 109.911L173.201 113.757L160.819 118.245L149 121.451" stroke="#6A7282" stroke-width="25"/>
</g>
<mask id="path-3-outside-1_488_396" maskUnits="userSpaceOnUse" x="413.331" y="280.207" width="195" height="345" fill="black">
<rect fill="white" x="413.331" y="280.207" width="195" height="345"/>
<path d="M603.831 359.707V390.707C603.831 422.373 592.164 442.54 568.831 451.207C594.164 458.873 606.831 479.373 606.831 512.707V546.207C606.831 598.207 579.164 624.207 523.831 624.207H414.331V281.707H520.831C576.164 281.707 603.831 307.707 603.831 359.707ZM511.831 332.707H474.331V425.207H511.831C533.831 425.207 544.831 414.873 544.831 394.207V363.207C544.831 342.873 533.831 332.707 511.831 332.707ZM547.831 542.707V509.207C547.831 488.54 536.831 478.207 514.831 478.207H474.331V573.207H514.831C536.831 573.207 547.831 563.04 547.831 542.707Z"/>
</mask>
<path d="M603.831 359.707V390.707C603.831 422.373 592.164 442.54 568.831 451.207C594.164 458.873 606.831 479.373 606.831 512.707V546.207C606.831 598.207 579.164 624.207 523.831 624.207H414.331V281.707H520.831C576.164 281.707 603.831 307.707 603.831 359.707ZM511.831 332.707H474.331V425.207H511.831C533.831 425.207 544.831 414.873 544.831 394.207V363.207C544.831 342.873 533.831 332.707 511.831 332.707ZM547.831 542.707V509.207C547.831 488.54 536.831 478.207 514.831 478.207H474.331V573.207H514.831C536.831 573.207 547.831 563.04 547.831 542.707Z" fill="white"/>
<path d="M568.831 451.207L568.483 450.269L565.698 451.303L568.541 452.164L568.831 451.207ZM414.331 624.207H413.331V625.207H414.331V624.207ZM414.331 281.707V280.707H413.331V281.707H414.331ZM474.331 332.707V331.707H473.331V332.707H474.331ZM474.331 425.207H473.331V426.207H474.331V425.207ZM474.331 478.207V477.207H473.331V478.207H474.331ZM474.331 573.207H473.331V574.207H474.331V573.207ZM603.831 359.707H602.831V390.707H603.831H604.831V359.707H603.831ZM603.831 390.707H602.831C602.831 406.425 599.935 419.195 594.215 429.081C588.507 438.948 579.948 446.011 568.483 450.269L568.831 451.207L569.179 452.144C581.048 447.736 589.989 440.381 595.947 430.082C601.894 419.802 604.831 406.655 604.831 390.707H603.831ZM568.831 451.207L568.541 452.164C580.999 455.934 590.288 462.836 596.48 472.857C602.686 482.9 605.831 496.157 605.831 512.707H606.831H607.831C607.831 495.923 604.643 482.263 598.182 471.806C591.707 461.327 581.996 454.146 569.121 450.249L568.831 451.207ZM606.831 512.707H605.831V546.207H606.831H607.831V512.707H606.831ZM606.831 546.207H605.831C605.831 572.036 598.963 591.229 585.396 603.978C571.818 616.738 551.359 623.207 523.831 623.207V624.207V625.207C551.637 625.207 572.677 618.675 586.766 605.435C600.866 592.185 607.831 572.377 607.831 546.207H606.831ZM523.831 624.207V623.207H414.331V624.207V625.207H523.831V624.207ZM414.331 624.207H415.331V281.707H414.331H413.331V624.207H414.331ZM414.331 281.707V282.707H520.831V281.707V280.707H414.331V281.707ZM520.831 281.707V282.707C548.359 282.707 568.818 289.175 582.396 301.935C595.963 314.684 602.831 333.877 602.831 359.707H603.831H604.831C604.831 333.536 597.866 313.729 583.766 300.478C569.677 287.238 548.637 280.707 520.831 280.707V281.707ZM511.831 332.707V331.707H474.331V332.707V333.707H511.831V332.707ZM474.331 332.707H473.331V425.207H474.331H475.331V332.707H474.331ZM474.331 425.207V426.207H511.831V425.207V424.207H474.331V425.207ZM511.831 425.207V426.207C522.97 426.207 531.511 423.592 537.266 418.185C543.033 412.768 545.831 404.711 545.831 394.207H544.831H543.831C543.831 404.369 541.129 411.812 535.896 416.728C530.652 421.655 522.692 424.207 511.831 424.207V425.207ZM544.831 394.207H545.831V363.207H544.831H543.831V394.207H544.831ZM544.831 363.207H545.831C545.831 352.865 543.03 344.93 537.26 339.597C531.505 334.278 522.967 331.707 511.831 331.707V332.707V333.707C522.696 333.707 530.658 336.219 535.902 341.066C541.132 345.9 543.831 353.215 543.831 363.207H544.831ZM547.831 542.707H548.831V509.207H547.831H546.831V542.707H547.831ZM547.831 509.207H548.831C548.831 498.703 546.033 490.645 540.266 485.228C534.511 479.821 525.97 477.207 514.831 477.207V478.207V479.207C525.692 479.207 533.652 481.758 538.896 486.685C544.129 491.601 546.831 499.044 546.831 509.207H547.831ZM514.831 478.207V477.207H474.331V478.207V479.207H514.831V478.207ZM474.331 478.207H473.331V573.207H474.331H475.331V478.207H474.331ZM474.331 573.207V574.207H514.831V573.207V572.207H474.331V573.207ZM514.831 573.207V574.207C525.967 574.207 534.505 571.635 540.26 566.316C546.03 560.983 548.831 553.048 548.831 542.707H547.831H546.831C546.831 552.698 544.132 560.014 538.902 564.847C533.658 569.695 525.696 572.207 514.831 572.207V573.207Z" fill="#6A7282" mask="url(#path-3-outside-1_488_396)"/>
<defs>
<filter id="filter0_d_488_396" x="127.728" y="10.6543" width="757.545" height="1005.73" filterUnits="userSpaceOnUse" color-interpolation-filters="sRGB">
<feFlood flood-opacity="0" result="BackgroundImageFix"/>
<feColorMatrix in="SourceAlpha" type="matrix" values="0 0 0 0 0 0 0 0 0 0 0 0 0 0 0 0 0 0 127 0" result="hardAlpha"/>
<feOffset dx="-14" dy="10"/>
<feGaussianBlur stdDeviation="2"/>
<feComposite in2="hardAlpha" operator="out"/>
<feColorMatrix type="matrix" values="0 0 0 0 0 0 0 0 0 0 0 0 0 0 0 0 0 0 1 0"/>
<feBlend mode="normal" in2="BackgroundImageFix" result="effect1_dropShadow_488_396"/>
<feBlend mode="normal" in="SourceGraphic" in2="effect1_dropShadow_488_396" result="shape"/>
</filter>
</defs>
</svg>
