<svg width="235" height="235" viewBox="0 0 235 235" fill="none" xmlns="http://www.w3.org/2000/svg">
<g clip-path="url(#clip0_488_400)">
<path d="M4.62109 112.879V225.758H117.17H229.719V112.879V-0.000148803H117.17H4.62109V112.879ZM219.158 112.879V215.197H117.17H15.1829V112.879V10.5617H117.17H219.158V112.879Z" fill="#6A7282"/>
<path d="M166.546 52.4787C165.424 53.2708 140.208 95.9141 138.954 99.1486C138.69 99.8087 139.086 100.601 140.076 101.261C141.264 102.119 143.575 102.317 152.948 102.317H164.368V137.633C164.368 172.091 164.368 172.949 165.688 174.269C167.405 175.986 169.913 175.986 171.629 174.269C172.95 172.949 172.95 172.091 172.95 137.633V102.317H184.898C197.11 102.317 199.354 101.921 199.354 99.7427C199.354 98.1585 173.94 54.129 172.157 52.6107C170.507 51.2245 168.395 51.1585 166.546 52.4787ZM179.221 78.8832C184.502 87.7287 188.792 95.32 188.792 95.7161C188.792 96.1781 182.455 96.3762 169.319 96.3762C156.777 96.3762 149.846 96.1121 149.846 95.7161C149.846 94.8579 168.791 62.7104 169.319 62.7104C169.451 62.7104 173.94 69.9717 179.221 78.8832Z" fill="#6A7282"/>
<path d="M131.561 61.3242C126.544 65.6149 115.784 74.9885 107.599 82.1177L92.7465 95.0559L92.4164 75.5166C92.0864 57.1655 92.0204 55.9773 90.8322 55.0531C89.0498 53.7989 86.2114 53.8649 84.9572 55.3172C83.901 56.4394 83.835 61.5222 83.835 114.727C83.835 172.091 83.835 172.949 85.1552 174.269C86.8715 175.986 89.3799 175.986 91.0962 174.269C92.3504 173.015 92.4164 172.025 92.4824 138.095V103.307L118.359 80.8635C137.106 64.5587 144.301 57.9576 144.433 56.7694C144.697 55.1852 143.179 53.4689 141.463 53.4689C141.001 53.4689 136.512 57.0335 131.561 61.3242Z" fill="#6A7282"/>
<path d="M45.8781 54.9212C45.68 55.3833 45.614 82.6459 45.68 115.52L45.8781 175.26L49.6407 175.458C53.1393 175.656 53.4694 175.524 53.7994 174.138C53.9974 173.279 54.0635 146.017 53.9974 113.539L53.7994 54.4591L49.9708 54.2611C47.3303 54.1291 46.0761 54.3271 45.8781 54.9212Z" fill="#6A7282"/>
</g>
<defs>
<clipPath id="clip0_488_400">
<rect width="235" height="235" fill="white"/>
</clipPath>
</defs>
</svg>
