<svg width="511" height="362" viewBox="0 0 511 362" fill="none" xmlns="http://www.w3.org/2000/svg">
<path d="M159.526 129.435L67.1867 181.799C60.6257 185.519 61.9018 192.398 70.0208 197.086L268.069 311.429C276.188 316.117 309.34 318.302 315.901 314.582L387.098 260.825C393.659 257.105 392.383 250.226 384.264 245.538L186.216 131.194C178.097 126.506 166.086 125.715 159.526 129.435Z" fill="#DEDEDC"/>
<path d="M414.787 253.103L414.806 253.107L413.863 237.548L398.752 238.238L393.383 237.108L209.935 131.194C201.816 126.506 189.805 125.715 183.245 129.435L101.608 175.729L85.7578 172.395L86.7228 188.317L86.7398 188.32C86.9318 191.315 89.3068 194.526 93.7398 197.085L291.788 311.428C299.908 316.116 311.918 316.908 318.479 313.187L410.818 260.823C414.27 258.866 415.532 256.031 414.787 253.103Z" fill="url(#paint0_linear_506_395)"/>
<path d="M93.0288 185.35L291.076 299.693C299.195 304.381 311.206 305.173 317.767 301.452L410.106 249.088C412.647 247.647 413.991 245.73 414.233 243.652L414.105 241.537C414.092 241.48 414.091 241.423 414.076 241.367L414.095 241.371L413.864 237.548L398.753 238.238L393.384 237.108L209.935 131.194C201.816 126.506 189.805 125.715 183.245 129.435L101.608 175.729L85.7578 172.395L86.0108 176.581L86.0278 176.584C86.2198 179.579 88.5958 182.79 93.0288 185.35Z" fill="url(#paint1_linear_506_395)"/>
<path d="M182.266 113.289L89.927 165.653C83.366 169.373 84.642 176.252 92.761 180.94L290.809 295.283C298.928 299.971 310.939 300.762 317.499 297.042L409.838 244.678C416.398 240.958 415.123 234.078 407.004 229.391L208.956 115.048C200.837 110.36 188.827 109.568 182.266 113.289Z" fill="#F5F5F5"/>
<path d="M410.738 237.357C411.005 236.854 411.277 236.028 410.575 234.666C409.792 233.148 408.092 231.579 405.788 230.249L207.74 115.906C200.644 111.81 189.944 111.017 184.373 114.176L92.0338 166.54C90.9838 167.135 90.2288 167.827 89.8508 168.54C89.5838 169.043 89.3108 169.869 90.0138 171.231C90.7968 172.749 92.4968 174.318 94.8018 175.648L292.851 289.99C299.947 294.086 310.647 294.88 316.217 291.72L408.556 239.356C409.606 238.761 410.361 238.07 410.738 237.357Z" fill="#3A3B3B"/>
<path d="M406.417 237.315C406.672 236.833 406.933 236.042 406.261 234.738C405.511 233.284 403.882 231.781 401.675 230.507L216.102 123.367C209.305 119.443 199.055 118.684 193.719 121.71L105.268 171.869C104.263 172.439 103.539 173.102 103.178 173.785C102.922 174.267 102.661 175.058 103.334 176.362C104.084 177.816 105.712 179.319 107.92 180.593L293.493 287.732C300.29 291.656 310.54 292.416 315.875 289.389L404.325 239.23C405.333 238.66 406.055 237.998 406.417 237.315Z" fill="#7979CC"/>
<path d="M125.756 157.141L171.833 131.087C179.126 126.963 182.968 121.183 182.405 115.183L181.953 114.378L97.2949 162.825L98.0849 162.862C108.405 163.344 118.463 161.264 125.756 157.141Z" fill="#F5F5F5"/>
<path d="M172.473 125.393C171.094 124.597 168.893 124.528 167.558 125.24C166.223 125.951 166.258 127.173 167.636 127.969C169.015 128.765 171.216 128.834 172.551 128.123C173.887 127.411 173.852 126.189 172.473 125.393Z" fill="#3A3B3B"/>
<path d="M118.196 155.48C117.077 154.834 115.29 154.778 114.206 155.356C113.122 155.933 113.15 156.925 114.27 157.572C115.389 158.218 117.176 158.274 118.26 157.697C119.343 157.118 119.315 156.126 118.196 155.48Z" fill="#3A3B3B"/>
<path d="M164.058 129.484C163.112 128.938 161.603 128.891 160.687 129.379C159.771 129.867 159.795 130.705 160.74 131.251C161.686 131.797 163.195 131.844 164.111 131.356C165.027 130.868 165.003 130.03 164.058 129.484Z" fill="#743B3B"/>
<path d="M123.807 150.975L154.822 133.078C155.138 132.896 155.098 132.577 154.733 132.366C154.368 132.155 153.816 132.132 153.5 132.315L122.485 150.212C122.169 150.394 122.208 150.713 122.573 150.924C122.939 151.135 123.491 151.158 123.807 150.975Z" fill="#3A3B3B"/>
<path d="M271.574 88.5791L197.901 131.157L207.767 212.306L270.238 176.195L271.574 88.5791Z" fill="#C6C4BF"/>
<path d="M271.574 88.6221L243.138 157.275L269.291 172.375L270.306 171.731L271.574 88.6221Z" fill="#A7A49C"/>
<path d="M270.237 176.195L207.767 212.262L270.629 248.555L333.099 212.488L270.237 176.195Z" fill="#F0EBE7"/>
<path d="M333.099 212.488L270.238 176.195L271.574 88.5791L342.965 129.796L333.099 212.488Z" fill="#77736F"/>
<path d="M270.628 248.599L207.767 212.306L197.901 131.157L269.291 172.375L270.628 248.599Z" fill="#A92419"/>
<path d="M270.628 248.6H210.937L208.951 251.953L155.203 220.824L152.956 215.371L204.61 186.344L207.767 212.307L270.628 248.6Z" fill="#999999"/>
<path d="M207.767 212.306L232.395 211.652L230.5 187.928L197.901 131.157L207.767 212.306Z" fill="#C9372D"/>
<path d="M270.628 248.599L233.956 212.488L231.92 188.863L269.291 172.375L270.628 248.599Z" fill="#C9372D"/>
<path d="M269.291 172.375L231.92 192.697L197.901 131.157L269.291 172.375Z" fill="#77736F"/>
<path d="M342.965 129.796L269.291 172.375L270.628 248.599L333.099 212.488L342.965 129.796Z" fill="#DB382F"/>
<path d="M269.291 172.375L277.005 199.797L299.988 207.042L336.226 186.278L339.776 156.525L269.291 172.375Z" fill="#A92419"/>
<path d="M240.537 60.1373L214.433 55.3633L170.893 80.5013L172.885 99.1963L197.901 131.157L271.574 88.6223L240.537 60.1373Z" fill="#F2F2F2"/>
<path d="M302.612 60.1373L328.715 55.3633L369.973 79.1403L367.981 97.8353L342.965 129.796L271.574 88.6223L302.612 60.1373Z" fill="#E0E0E0"/>
<path d="M360.122 73.4639L314.923 113.626L310.265 110.92L357.951 72.2129L360.122 73.4639Z" fill="#C6C4BF"/>
<path d="M347.838 66.375L302.64 106.536L297.981 103.831L345.668 65.124L347.838 66.375Z" fill="#C6C4BF"/>
<path d="M316.221 184.711L342.461 182.581L386.002 157.443L383.873 145.652L342.965 129.839L269.291 172.375L316.221 184.711Z" fill="#E0E0E0"/>
<path d="M229.777 181.892L203.537 179.762L162.279 155.942L164.408 144.151L197.901 131.157L269.291 172.375L229.777 181.892Z" fill="#F2F2F2"/>
<path d="M243.138 157.275L190.012 171.954L186.143 169.72L196.834 164.614L237.936 154.28L243.138 157.275Z" fill="#C6C4BF"/>
<path d="M230.82 150.161L177.694 164.84L173.825 162.606L184.516 157.501L225.617 147.167L230.82 150.161Z" fill="#C6C4BF"/>
<path d="M322.438 141.703C322.058 141.923 321.679 142.143 321.299 142.342C320.539 142.782 319.76 143.221 318.981 143.681C318.661 143.881 318.362 144.041 318.062 144.201L317.201 144.7L316.423 145.16C316.323 145.22 316.202 145.28 316.102 145.34C315.103 145.92 314.084 146.499 313.064 147.099C312.305 147.538 311.506 147.998 310.727 148.438C310.347 148.658 309.968 148.878 309.588 149.098C309.548 149.118 309.508 149.158 309.468 149.178C309.288 149.278 309.109 149.378 308.928 149.478V149.498C306.869 150.677 304.811 151.876 302.753 153.055L301.074 154.015L301.033 154.055C300.273 154.495 299.515 154.934 298.756 155.354C297.537 156.073 296.297 156.773 295.098 157.472C293.499 158.391 291.94 159.291 290.421 160.17C290.121 160.35 289.803 160.53 289.503 160.71L287.943 161.609C287.663 161.769 287.364 161.949 287.064 162.109C286.005 162.728 284.947 163.328 283.947 163.908C281.209 165.507 278.711 166.946 276.613 168.145C276.173 168.405 275.734 168.644 275.294 168.904C275.234 168.944 275.193 168.964 275.133 169.004C274.673 169.264 274.255 169.524 273.855 169.744H273.835C273.635 169.864 273.414 169.984 273.214 170.104L272.516 170.524C271.157 171.303 270.178 171.883 269.678 172.163C269.618 172.203 269.578 172.223 269.518 172.263C269.478 172.283 269.457 172.303 269.417 172.303C269.337 172.363 269.298 172.383 269.298 172.383L264.421 169.565L261.424 167.826L251.271 161.971L240.24 155.616L235.923 153.118V153.098L232.025 150.86L223.812 146.103L216.398 141.826L209.923 138.089L209.723 137.969L209.562 137.889C209.562 137.889 209.603 137.829 209.663 137.709C209.903 137.31 210.483 136.31 210.742 135.651C211.062 134.812 214.558 131.993 217.396 129.795C220.234 127.617 222.392 124.659 225.73 122.5C228.708 120.541 229.687 120.222 231.706 119.063C231.926 118.943 232.147 118.823 232.406 118.663C232.446 118.643 232.466 118.623 232.506 118.623C234.984 117.164 238.241 116.984 240.04 116.005C241.879 115.006 249.374 111.668 249.374 111.668C249.374 111.668 254.53 109.51 259.027 107.831C261.285 106.992 263.443 106.312 265.541 105.812H265.562C272.097 104.253 278.173 104.393 285.248 107.091C289.944 108.89 294.601 111.048 298.398 114.366C303.354 118.723 306.532 124.738 309.13 130.794C309.59 131.853 312.866 126.837 313.606 127.696C313.666 127.776 313.727 127.856 313.807 127.936C314.786 129.195 315.366 130.974 315.885 132.692C316.265 133.951 316.605 135.15 317.044 136.09C317.104 136.21 317.164 136.33 317.244 136.449C317.764 137.289 318.743 138.368 319.742 139.287C319.742 139.307 319.782 139.327 319.782 139.327C321.001 140.526 322.22 141.526 322.42 141.685C322.438 141.703 322.438 141.703 322.438 141.703Z" fill="#ED964E"/>
<path d="M325.815 134.069C325.815 134.069 325.815 134.069 325.795 134.069C324.336 132.131 322.577 130.352 320.579 128.773C318.101 126.814 315.263 125.176 312.065 123.857C310.606 123.237 309.047 122.698 307.428 122.218C305.33 118.501 302.132 115.563 299.134 113.025C296.096 110.427 292.819 107.829 289.082 105.85C288.003 105.271 286.864 104.751 285.704 104.291C280.708 102.352 276.091 102.273 270.455 104.051C270.435 104.051 270.415 104.071 270.415 104.071C270.035 104.191 269.636 104.331 269.236 104.47C268.037 104.89 266.818 105.33 265.559 105.809H265.539C261.762 107.208 257.765 108.887 254.007 111.005C249.291 112.564 245.354 115.542 242.096 118C240.717 119.039 239.338 120.099 237.979 121.198C236.3 119.959 234.442 119.1 232.503 118.62C232.423 118.58 232.363 118.56 232.283 118.56C228.666 117.681 224.769 118.12 221.271 119.919L220.571 120.259C217.054 122.078 212.197 124.536 210.239 129.432C209.24 131.91 209.06 134.768 209.659 137.706C209.679 137.786 209.699 137.886 209.719 137.966L209.919 138.086H209.939L216.394 141.823L223.808 146.1L232.022 150.857L235.919 153.115L240.236 155.613C240.376 155.393 240.516 155.153 240.656 154.933C240.956 154.473 241.236 154.014 241.535 153.534C242.155 152.495 242.774 151.435 243.314 150.296C243.354 150.196 243.414 150.096 243.454 149.976C244.753 147.158 245.513 143.841 245.692 140.463C245.972 140.303 246.252 140.163 246.531 140.023C249.429 138.444 252.407 136.905 255.464 135.486C254.964 136.545 254.545 137.584 254.165 138.584C251.947 144.4 250.787 149.656 250.668 154.672C250.648 155.751 250.668 156.85 250.748 157.93C250.828 159.289 251.008 160.648 251.268 161.967L261.42 167.822C260.241 165.364 259.442 162.766 259.002 160.088C260.701 161.727 262.679 163.066 264.698 164.365C266.337 165.404 268.016 166.463 269.774 167.443C268.855 167.983 267.756 168.463 266.477 168.922C266.337 168.962 266.217 169.022 266.077 169.062C265.877 169.122 265.657 169.202 265.458 169.262C265.438 169.282 265.438 169.262 265.438 169.262C265.098 169.382 264.759 169.482 264.419 169.562L269.295 172.38C269.295 172.38 269.335 172.36 269.415 172.3C269.435 172.3 269.475 172.28 269.515 172.26C269.575 172.22 269.615 172.2 269.675 172.16C270.175 171.88 271.154 171.301 272.513 170.521L273.212 170.101L273.312 170.061L273.832 169.741H273.852C274.252 169.521 274.672 169.261 275.131 169.001C275.191 168.981 275.231 168.941 275.291 168.901C275.711 168.661 276.15 168.421 276.61 168.142C278.708 166.943 281.206 165.504 283.944 163.905C283.804 163.905 283.684 163.885 283.544 163.865C285.283 160.967 286.542 158.029 287.321 155.111C287.301 155.311 287.281 155.511 287.241 155.711C286.981 157.889 286.961 160.068 287.061 162.106C287.361 161.946 287.661 161.766 287.94 161.606L289.499 160.707C289.799 160.527 290.119 160.347 290.418 160.167C291.937 159.288 293.496 158.388 295.095 157.469C295.095 157.209 295.135 156.949 295.155 156.69C295.455 154.312 296.274 150.934 298.572 148.316C299.271 147.536 300.111 146.797 301.01 146.038C301.07 146.278 301.13 146.498 301.19 146.737C301.71 148.795 301.829 150.954 301.35 153.072C301.27 153.392 301.19 153.712 301.07 154.011L302.749 153.051C304.807 151.872 306.866 150.673 308.924 149.494L309.464 149.174C309.504 149.154 309.544 149.114 309.584 149.094C309.544 148.175 309.444 147.275 309.284 146.376C309.244 146.216 309.224 146.036 309.184 145.877C308.764 143.718 308.065 141.66 307.185 139.722C307.385 139.402 307.585 139.082 307.765 138.743C308.045 139.363 308.304 139.982 308.544 140.622C308.604 140.742 308.644 140.862 308.704 141.002C309.643 143.42 310.382 145.938 310.722 148.436L313.06 147.097L316.098 145.338C316.198 145.278 316.318 145.218 316.418 145.158L317.197 144.698L318.057 144.199C317.657 142.48 317.138 140.802 316.538 139.163C315.918 137.444 315.199 135.766 314.439 134.147C314.859 134.447 315.258 134.747 315.638 135.046C315.698 135.106 315.778 135.146 315.838 135.206C316.337 135.606 316.797 136.005 317.237 136.445C318.176 137.324 318.996 138.284 319.735 139.283C319.735 139.303 319.775 139.323 319.775 139.323C320.435 140.242 321.014 141.202 321.514 142.201L322.413 141.681L324.412 140.542C325.811 139.743 327.17 138.943 328.469 138.204C327.714 136.767 326.834 135.388 325.815 134.069ZM272.574 111.746C276.611 110.407 279.449 110.407 282.806 111.726C286.563 113.165 289.981 115.743 293.138 118.401C293.338 118.561 293.538 118.741 293.738 118.9C293.658 118.88 293.558 118.88 293.478 118.88C292.938 118.8 292.419 118.78 291.879 118.74C291.799 118.68 291.739 118.62 291.659 118.56C289.061 116.342 285.923 115.442 283.385 114.703C279.869 113.684 276.252 112.645 272.574 111.746ZM299.574 128.593C299.914 128.653 300.234 128.713 300.573 128.773C300.973 128.953 301.333 129.153 301.672 129.352C301.772 129.912 301.812 130.491 301.792 131.071C301.492 130.691 301.212 130.332 300.913 129.992C300.494 129.492 300.034 129.033 299.574 128.593ZM218.455 138.925C218.195 138.365 217.955 137.806 217.796 137.246C217.196 135.407 217.137 133.709 217.636 132.41C218.415 130.471 220.973 129.032 223.432 127.773C223.692 127.633 223.951 127.493 224.211 127.373L224.93 126.993C226.089 126.393 227.348 126.094 228.607 126.094C229.726 126.094 230.845 126.334 231.885 126.813C227.948 130.99 224.85 135.806 223.891 141.602C221.992 141.703 219.594 141.304 218.455 138.925ZM250.271 129.133C248.412 130.033 246.594 130.952 244.835 131.871C244.695 131.311 244.515 130.732 244.315 130.172C247.612 125.515 252.029 121.419 257.205 118.381C257.545 118.281 257.864 118.201 258.224 118.141C260.263 117.741 262.501 117.881 264.719 118.221C265.878 118.401 267.037 118.641 268.176 118.9C270.634 119.459 273.112 120.099 275.55 120.779C275.45 120.799 275.33 120.839 275.21 120.879C271.093 121.559 267.016 122.558 263.059 123.857C258.645 125.316 254.348 127.154 250.271 129.133ZM275.612 161.509C273.374 160.41 271.195 159.071 269.017 157.652C267.758 156.852 266.579 156.073 265.58 155.254C265.3 155.034 265.04 154.814 264.8 154.595C264.081 153.935 263.481 153.236 263.041 152.456C261.842 150.338 261.762 147.28 262.861 144.262C263.061 143.722 263.281 143.183 263.54 142.683C264.519 140.645 265.918 138.846 267.657 137.407C268.736 136.508 269.675 135.988 270.475 135.848C270.655 135.828 270.834 135.808 271.034 135.808C271.594 135.808 272.253 135.948 272.973 136.188C273.433 136.348 273.872 136.548 274.292 136.808C276.93 138.267 278.989 141.185 279.848 144.522C279.948 144.842 280.008 145.162 280.068 145.501C280.188 146.14 280.268 146.8 280.308 147.459C280.529 152.875 278.03 157.931 275.612 161.509ZM288.023 151.776C288.083 151.297 288.143 150.837 288.183 150.357C288.283 149.278 288.323 148.199 288.263 147.14C288.263 147.02 288.263 146.92 288.243 146.8C288.063 143.422 287.064 140.185 285.505 137.367C285.445 137.247 285.365 137.107 285.285 136.987C285.125 136.707 284.965 136.447 284.785 136.188C282.667 132.89 279.709 130.292 276.251 128.913C276.511 128.813 276.771 128.733 277.03 128.653C278.569 128.413 280.108 128.213 281.667 128.073C283.666 127.873 285.664 127.773 287.643 127.753C287.903 127.733 288.163 127.733 288.422 127.733C288.802 128.452 289.222 129.232 289.781 130.011C290.72 131.35 291.94 132.429 292.999 133.389C293.698 134.009 294.358 134.588 294.818 135.128C294.938 135.268 295.058 135.428 295.198 135.588C295.897 136.447 296.677 137.467 297.456 138.646C297.156 138.886 296.857 139.146 296.557 139.385C295.218 140.484 293.859 141.623 292.6 143.062C290.501 145.44 288.942 148.418 288.023 151.776Z" fill="#FABD67"/>
<path d="M316.542 139.166C316.362 137.827 316.122 136.508 315.843 135.209C315.683 134.41 315.503 133.61 315.283 132.811C314.863 131.152 314.384 129.513 313.804 127.935C313.284 126.536 312.705 125.177 312.065 123.858C309.467 118.622 305.75 114.125 300.374 111.147C296.617 109.069 293.019 107.17 289.082 105.851C286.024 104.792 282.787 104.073 279.109 103.872C276.171 103.712 273.253 103.812 270.455 104.052C270.435 104.052 270.415 104.072 270.415 104.072C265.439 104.492 260.802 105.411 256.965 106.29C252.728 107.229 247.792 108.528 243.175 110.866C238.898 113.025 235.201 115.942 232.283 118.56C232.083 118.72 231.883 118.9 231.703 119.06C231.363 119.38 231.044 119.66 230.724 119.959C227.886 122.577 225.448 125.195 223.43 127.773C220.912 130.951 219.053 134.108 217.794 137.246C217.494 137.986 217.234 138.725 217.015 139.464C216.755 140.243 216.555 141.043 216.396 141.822L223.81 146.099C223.87 145.26 223.99 144.42 224.17 143.561C225.189 138.704 228.307 133.648 233.583 128.292C230.145 134.367 231.185 142.322 233.483 148.237C233.723 148.897 234.003 149.536 234.283 150.136C234.783 151.195 235.322 152.175 235.922 153.094V153.114L240.239 155.612L251.271 161.967L261.423 167.822L264.421 169.561L269.297 172.379C269.297 172.379 269.337 172.359 269.417 172.299C269.437 172.299 269.477 172.279 269.517 172.259C269.577 172.219 269.617 172.199 269.677 172.159C268.198 171.34 266.779 170.38 265.46 169.261C265.44 169.281 265.44 169.261 265.44 169.261C265.3 169.141 265.18 169.041 265.04 168.921C265.38 168.961 265.739 169.021 266.079 169.061C268.637 169.401 271.235 169.641 273.833 169.741H273.853C274.253 169.521 274.673 169.261 275.132 169.001C275.192 168.981 275.232 168.941 275.292 168.901C275.712 168.661 276.151 168.421 276.611 168.142C278.709 166.943 281.207 165.504 283.945 163.905C284.944 163.325 286.003 162.726 287.063 162.106C287.363 161.946 287.663 161.766 287.942 161.606C288.462 161.306 288.981 161.007 289.501 160.707C289.801 160.527 290.122 160.347 290.421 160.167C294.838 156.49 297.075 150.694 298.774 144.838C299.154 143.539 299.573 142.06 299.913 140.481C300.552 141.44 300.952 142.659 301.112 144.178C301.212 145.017 301.232 145.877 301.192 146.736C301.032 149.774 300.073 152.911 298.754 155.35C299.513 154.93 300.274 154.491 301.033 154.051L301.072 154.011L302.751 153.051C304.809 151.872 306.868 150.673 308.926 149.494V149.474C309.106 148.255 309.186 147.076 309.186 145.877C309.186 145.557 309.186 145.217 309.166 144.898C309.206 145.378 309.246 145.877 309.286 146.377C309.346 147.277 309.406 148.216 309.466 149.175C309.506 149.155 309.546 149.115 309.586 149.095C309.966 148.875 310.345 148.655 310.725 148.435C311.505 147.995 312.304 147.536 313.063 147.096L316.102 145.337C316.202 145.277 316.321 145.217 316.421 145.157L317.201 144.697C317.042 142.863 316.842 141.005 316.542 139.166ZM282.067 141.784C281.508 142.483 280.948 143.203 280.329 143.942C280.169 144.142 280.009 144.342 279.849 144.522C279.229 145.242 278.63 145.921 278.05 146.561C276.352 148.42 274.753 149.918 273.154 151.158C272.714 151.498 272.295 151.817 271.855 152.097C271.835 152.117 271.815 152.117 271.815 152.117C271.116 152.637 270.396 153.076 269.677 153.476C268.378 154.196 266.999 154.795 265.58 155.255C264.66 155.595 263.722 155.855 262.783 156.074C262.623 156.114 262.462 156.154 262.302 156.194C260.983 156.074 259.664 155.894 258.365 155.714C258.185 153.435 258.365 151.097 258.885 148.939C259.464 146.501 261.223 144.462 263.541 142.684C265.62 141.045 268.178 139.606 270.736 138.247C271.955 137.608 273.114 137.128 274.293 136.808C277.451 135.889 280.608 135.949 284.585 136.169C284.645 136.169 284.705 136.169 284.785 136.189C285.085 136.189 285.404 136.209 285.724 136.249C285.584 136.489 285.444 136.729 285.284 136.989C285.184 137.189 285.064 137.409 284.924 137.628C284.126 138.946 283.167 140.345 282.067 141.784ZM246.774 152.736C246.274 152.476 245.775 152.177 245.335 151.837C244.676 151.338 244.056 150.718 243.457 149.978C242.738 149.079 242.078 148 241.499 146.761C239.241 141.905 238.341 135.13 240.959 131.532C244.357 126.875 248.414 121.699 253.809 118.961C257.446 117.102 262.503 116.103 267.659 116.103C269.318 116.103 270.996 116.203 272.635 116.423C269.977 116.683 267.319 117.283 264.721 118.222C261.623 119.321 258.605 120.9 255.828 122.979C253.61 124.638 251.731 126.696 250.272 129.134C248.393 132.192 247.134 135.849 246.535 140.026C246.295 141.725 246.155 143.503 246.135 145.362C246.094 147.38 246.234 149.998 246.774 152.736ZM288.243 128.154V128.434C287.144 128.334 286.065 128.274 285.025 128.214C283.886 128.154 282.767 128.094 281.668 128.074C276.712 127.954 272.195 128.434 266.999 131.192C263.402 133.111 258.106 135.909 254.528 140.325C255.367 135.409 257.406 131.731 260.583 129.373C265.12 125.995 270.556 124.297 275.792 124.297C280.069 124.297 284.246 125.436 287.643 127.754C287.843 127.875 288.043 128.014 288.243 128.154ZM283.727 155.074C282.528 155.634 281.088 155.934 279.689 156.093C281.887 154.194 284.106 151.876 286.464 149.038C287.083 148.278 287.683 147.539 288.243 146.8C289.282 145.441 290.222 144.122 291.061 142.823C290.282 145.501 289.384 148.159 288.184 150.357C287.025 152.456 285.586 154.175 283.727 155.074ZM308.828 141.844C308.748 141.424 308.648 141.024 308.548 140.625C308.068 138.786 307.329 137.147 306.35 135.748C304.991 133.79 303.152 132.291 300.934 131.311C300.594 131.151 300.274 131.031 299.955 130.891C299.575 129.512 298.956 128.133 298.076 126.794C297.416 125.795 296.657 124.935 295.858 124.176C295.418 122.317 294.619 120.559 293.48 118.88C293.38 118.72 293.261 118.56 293.141 118.4C293.001 118.22 292.86 118.02 292.721 117.84C292.061 117.021 291.362 116.361 290.642 115.701C290.123 115.221 289.583 114.762 289.023 114.342C291.441 115.361 293.859 116.66 296.517 118.119C302.033 121.177 305.79 127.132 307.809 136.106C308.169 137.645 308.468 139.284 308.708 141.002C308.747 141.285 308.788 141.564 308.828 141.844Z" fill="#FFD190"/>
<path d="M302.335 144.127C300.701 141.285 300.405 138.886 300.379 136.897C300.313 136.106 300.082 135.561 299.902 136.118C299.831 136.38 299.859 137.002 300.208 137.569C300.332 137.784 300.712 138.253 300.981 138.418C301.264 138.614 301.472 138.622 301.507 138.513C301.605 138.278 301.013 137.657 300.234 136.436C300.058 136.143 299.836 135.75 299.72 135.448C299.639 135.192 299.585 134.954 299.546 134.729C299.47 134.283 299.468 133.899 299.487 133.557C299.538 132.871 299.652 132.344 299.713 131.92C299.714 131.659 299.835 131.647 299.702 131.27C299.542 130.912 299.443 130.536 299.324 130.171C299.114 129.429 298.874 128.651 298.921 127.584C298.953 127.058 299.096 126.452 299.389 125.905C299.685 125.365 300.12 124.9 300.475 124.591C301.184 124.004 301.613 123.622 301.349 123.451C301.017 123.352 300.412 123.611 300.086 123.843C299.714 124.08 299.383 124.318 299.177 124.649C298.913 124.949 298.976 125.599 298.871 125.794C298.756 126.367 298.513 126.388 297.634 126.265C297.35 126.198 297.306 126.253 297.285 126.315C297.267 126.376 297.299 126.469 297.469 126.576C297.645 126.679 297.953 126.818 298.559 126.876C299.146 126.939 300.13 126.855 301.194 126.345C301.717 126.096 302.219 125.757 302.633 125.384C303.06 125.006 303.431 124.537 303.63 124.226C304.061 123.547 304.101 123.334 304.034 123.591C303.96 123.824 303.74 124.547 303.079 125.656C302.355 126.822 301.153 128.045 299.732 128.766C298.313 129.517 296.847 129.765 295.742 129.757C294.627 129.759 293.767 129.56 293.046 129.336C291.624 128.866 290.722 128.258 289.891 127.577C288.829 126.557 288.141 125.529 287.495 124.332C286.328 121.923 285.644 119.245 286.401 116.194L287.538 115.378L294.47 115.755C295.342 115.792 296.254 115.898 296.859 115.899C296.867 115.718 296.868 115.516 296.397 115.277C296.151 115.164 295.78 115.032 295.155 115.019C294.538 114.993 293.561 115.125 292.57 115.641C291.576 116.125 290.739 117 290.271 117.749C289.865 118.44 289.815 118.7 289.906 118.474C290.005 118.272 290.209 117.594 290.895 116.496C291.217 115.974 291.741 115.311 292.345 114.764C292.935 114.221 293.635 113.737 294.374 113.373C295.871 112.635 297.35 112.456 298.424 112.515C299.519 112.569 300.314 112.788 300.964 113.01C301.608 113.239 302.101 113.498 302.534 113.747C302.964 113.997 303.359 114.269 303.513 114.419C304.375 115.163 305.896 116.123 307.124 118.135C307.692 119.041 308.284 120.539 308.312 121.775C308.392 123.038 308.151 124.282 307.568 125.477C307.046 126.666 305.888 127.814 304.75 128.272C303.683 128.667 303.162 128.585 303.049 128.531C302.991 128.448 303.186 128.017 303.118 127.939C303.09 127.853 303.144 128.046 303.36 128.178C303.459 128.25 303.616 128.294 303.743 128.331C303.901 128.347 304.313 128.728 304.57 128.885C305.148 129.292 305.708 129.636 306.234 129.805C306.491 129.89 306.732 129.93 306.925 129.893C307.021 129.872 307.106 129.836 307.173 129.774C307.208 129.665 307.146 129.457 307.146 129.334C307.072 128.797 307.347 128.653 308.241 128.982C308.675 129.155 309.268 129.469 309.886 130.021C310.491 130.541 311.152 131.418 311.483 132.076C312.277 133.519 312.457 135.137 312.368 136.373C312.141 138.898 311.199 140.225 310.374 141.224C308.753 142.806 306.845 143.972 303.609 144.699L302.335 144.127Z" fill="#FAE3C8"/>
<path d="M290.216 145.324C291.393 148.893 291.64 150.977 291.568 152.708C291.531 153.581 291.378 154.249 291.078 154.917C290.383 156.061 290.103 156.333 289.847 155.591C289.743 155.261 289.66 154.246 289.162 154.214C288.696 154.098 288.195 154.595 287.539 155.375C286.909 156.117 285.944 157.172 285.118 157.599C284.358 158.018 283.648 158.262 283.061 158.513C281.83 159 281.096 159.421 280.079 160.145C279.107 160.768 278.368 161.691 278.635 162.485C278.69 162.686 278.798 162.872 278.924 163.04C278.986 163.121 279.06 163.21 279.131 163.28C279.169 163.371 279.16 163.495 279.178 163.598C279.214 164.055 279.184 164.549 278.993 165.048C278.636 166.057 277.638 167.193 275.786 168.292C273.911 169.412 271.391 170.06 269.25 170.017C267.054 169.988 265.094 169.378 263.5 168.363C262.698 167.863 261.99 167.257 261.359 166.582C260.673 165.86 260.466 165.395 260.571 165.209C260.662 165.028 261.158 165.131 262.071 165.243C262.276 165.269 262.593 165.279 262.764 165.258C262.853 165.224 262.941 165.183 263.025 165.136C263.193 165.049 263.352 164.912 263.487 164.739C263.552 164.655 263.619 164.565 263.664 164.47C263.563 164.391 263.462 164.29 263.361 164.187L262.755 163.58C262.351 163.207 261.947 162.735 261.543 162.228C260.735 161.248 259.926 160.102 259.116 158.536L259.11 156.737C259.909 155.165 260.709 154.014 261.51 153.028C261.911 152.518 262.311 152.043 262.712 151.667L263.313 151.056C263.413 150.952 263.513 150.85 263.614 150.77L264.392 150.555C264.927 150.417 265.487 150.316 266.056 150.265L266.918 150.196C267.286 150.214 267.791 150.299 268.183 150.399C269.843 150.818 270.997 151.402 271.706 151.732C272.432 152.057 272.809 152.148 272.763 151.914C272.769 151.731 272.732 151.573 272.639 151.454C272.463 151.195 272.047 151.131 271.453 151.282C270.909 151.438 270.035 151.902 269.66 152.433C269.317 152.955 269.657 153.167 270.609 153.248C271.074 153.281 271.696 153.303 272.403 153.317C272.591 153.312 272.75 153.325 272.959 153.31C273.204 153.28 273.447 153.258 273.689 153.249C274.171 153.229 274.644 153.243 275.075 153.303C276.846 153.509 277.72 154.222 278.283 154.364C278.795 154.595 279.542 154.33 279.61 153.866C279.669 153.638 279.552 153.328 279.282 153.107C278.958 152.904 278.324 153.203 277.863 153.159C277.386 153.154 276.947 152.845 276.625 151.938C276.263 151.113 276.437 149.323 276.736 148.295C277.269 146.144 278.102 145.233 278.391 145.108C279.074 144.502 279.934 143.917 280.947 143.572C282.971 142.862 285.457 142.627 288.991 144.004L290.216 145.324Z" fill="#734F25"/>
<path d="M254.799 129.595C254.84 130.012 254.924 130.516 254.944 130.856L255.018 131.874C255.072 132.543 255.174 133.268 255.162 133.716C255.19 134.251 255.209 134.734 255.174 135.09C255.161 135.474 255.13 135.922 255.22 136.136C255.37 136.621 256.227 136.655 257.217 135.562C258.192 134.462 258.09 133.706 257.485 133.829C256.248 134.25 253.28 134.745 252.597 135.594C252.496 135.712 252.432 135.771 252.384 135.949C252.32 136.162 252.32 136.571 252.002 137.265C251.724 137.986 250.756 138.768 250.179 138.943C249.59 139.174 249.315 139.243 249.289 139.344C249.599 139.69 250.554 140.083 251.448 140.219C252.322 140.353 253.407 140.38 254.063 140.034C254.442 139.93 254.736 139.513 254.915 139.399C255.116 139.285 255.259 139.212 255.435 139.216C255.775 139.24 256.164 139.503 256.497 140.19C256.646 140.531 256.792 140.963 256.848 141.503C256.891 141.785 256.886 142.069 256.894 142.394C256.88 142.652 256.851 143.364 256.76 143.818C256.687 144.312 256.509 145.047 256.302 145.62C256.057 146.317 255.749 146.988 255.32 147.68C254.477 149.093 253.197 150.248 252.087 150.866C249.846 152.086 248.829 151.631 248.486 151.128C248.353 150.881 248.233 150.445 248.205 149.97C248.155 149.74 248.167 149.499 248.092 149.244C248.088 149.204 248.056 149.192 248.072 149.13C248.177 148.978 248.273 148.819 248.357 148.657C248.55 148.299 248.757 147.858 248.902 147.268C249.22 146.09 248.887 144.839 248.651 144.554C248.4 144.216 248.389 144.395 248.446 145.261C248.454 145.658 248.445 146.377 248.193 147.045C247.943 147.722 247.544 148.243 247.18 148.561C246.502 149.137 245.546 149.493 244.756 149.503C244.45 149.411 244.52 149.238 244.384 149.11C244.037 148.57 243.688 148.02 243.303 147.268L242.99 145.497C243.094 144.658 243.233 144.022 243.374 143.396C243.359 143.244 243.554 143.056 243.367 142.934C242.69 142.893 241.853 143.209 241.281 143.726C240.955 143.995 240.588 144.462 240.353 145.078C240.115 145.685 240.107 146.342 240.103 146.677C240.139 147.421 240.076 147.486 239.791 147.028C239.521 146.625 239.177 145.244 239.539 143.949C239.702 143.3 239.944 142.806 240.174 142.398C240.278 142.212 240.394 142.03 240.519 141.854C240.558 141.771 240.549 141.737 240.568 141.676C240.677 141.254 240.864 140.837 241.02 140.467C241.383 139.686 241.701 139.011 242.005 138.532C242.541 137.576 242.461 136.753 240.998 137.348C240.259 137.644 239.327 138.427 238.692 139.387C238.382 139.862 238.138 140.289 237.974 140.754C237.807 141.082 237.703 141.577 237.641 141.824C237.561 142.03 237.565 142.495 237.543 142.505C237.551 142.582 237.534 142.619 237.565 142.653C237.591 142.698 237.684 142.637 237.773 142.486C237.985 142.189 238.221 141.471 238.484 140.505C238.623 140.015 238.75 139.446 238.968 138.835C239.163 138.225 239.514 137.313 240.012 136.727C240.895 135.417 242.396 134.514 243.908 133.886C244.663 133.561 245.535 133.408 246.325 133.272C247.133 133.178 247.972 133.239 248.592 133.332C248.811 133.404 248.786 133.458 248.435 133.612C248.095 133.716 247.338 134.333 247.168 134.828C246.962 135.299 246.996 135.457 246.956 135.424C246.931 135.356 246.908 135.169 246.838 135.041C246.431 133.926 243.703 132.451 242.771 130.911C242.357 130.067 242.512 128.325 244.056 126.404C245.617 124.49 247.316 123.945 248.323 123.944C248.842 123.906 249.26 124.143 249.698 124.322C250.112 124.468 250.581 124.742 251.059 125.067C251.496 125.306 252.048 125.821 252.551 126.28L253.3 126.984C253.545 127.218 253.854 127.618 254.119 127.93L254.799 129.595Z" fill="#FAE3C8"/>
<path d="M280.315 116.761C279.965 116.992 279.558 117.301 279.268 117.477L278.402 118.017C277.835 118.377 277.241 118.805 276.839 119.003C276.379 119.277 275.96 119.519 275.629 119.654C275.283 119.822 274.872 120.003 274.725 120.182C274.366 120.541 274.735 121.315 276.164 121.682C277.591 122.032 278.213 121.589 277.822 121.111C276.873 120.213 275.051 117.818 273.982 117.609C273.83 117.575 273.749 117.546 273.569 117.586C273.351 117.629 272.988 117.819 272.227 117.861C271.46 117.951 270.317 117.459 269.892 117.031C269.414 116.618 269.224 116.407 269.122 116.43C268.96 116.866 269.058 117.894 269.354 118.747C269.643 119.583 270.124 120.555 270.736 120.974C271.005 121.261 271.51 121.327 271.695 121.432C271.89 121.556 272.021 121.649 272.099 121.807C272.237 122.119 272.186 122.585 271.733 123.2C271.501 123.491 271.186 123.821 270.734 124.122C270.505 124.291 270.251 124.419 269.967 124.578C269.733 124.685 269.089 124.991 268.645 125.123C268.173 125.289 267.44 125.474 266.837 125.558C266.106 125.667 265.369 125.707 264.557 125.649C262.914 125.563 261.296 124.968 260.231 124.273C258.107 122.859 258.036 121.748 258.321 121.21C258.477 120.978 258.808 120.667 259.214 120.422C259.394 120.271 259.613 120.169 259.803 119.984C259.836 119.962 259.833 119.928 259.895 119.914C260.079 119.936 260.264 119.947 260.446 119.946C260.853 119.95 261.339 119.927 261.929 119.781C263.119 119.513 264.071 118.635 264.213 118.294C264.395 117.914 264.232 117.988 263.492 118.442C263.145 118.634 262.504 118.962 261.796 119.049C261.081 119.144 260.434 119.033 259.983 118.859C259.158 118.528 258.396 117.848 258.019 117.154C257.958 116.84 258.143 116.822 258.193 116.642C258.509 116.083 258.833 115.518 259.319 114.827L260.74 113.724C261.53 113.425 262.158 113.252 262.779 113.084C262.906 113 263.163 113.085 263.185 112.863C262.905 112.245 262.236 111.652 261.512 111.387C261.122 111.224 260.538 111.117 259.883 111.196C259.235 111.269 258.651 111.568 258.352 111.721C257.71 112.099 257.624 112.074 257.896 111.609C258.126 111.182 259.188 110.234 260.502 109.951C261.153 109.793 261.702 109.777 262.17 109.79C262.383 109.796 262.598 109.813 262.812 109.842C262.904 109.838 262.929 109.814 262.992 109.802C263.416 109.702 263.872 109.673 264.272 109.638C265.132 109.595 265.877 109.562 266.443 109.608C267.539 109.637 268.229 109.182 267.021 108.165C266.415 107.65 265.287 107.189 264.142 107.075C263.577 107.022 263.086 107.005 262.598 107.077C262.23 107.082 261.744 107.221 261.497 107.281C261.277 107.307 260.868 107.527 260.849 107.512C260.784 107.556 260.744 107.557 260.729 107.6C260.701 107.644 260.798 107.698 260.974 107.706C261.336 107.755 262.081 107.629 263.058 107.412C263.556 107.306 264.119 107.154 264.761 107.062C265.392 106.95 266.362 106.836 267.113 107.003C268.683 107.174 270.182 108.081 271.442 109.126C272.081 109.642 272.623 110.342 273.112 110.978C273.571 111.649 273.909 112.42 274.116 113.012C274.155 113.24 274.095 113.242 273.795 113.003C273.544 112.751 272.645 112.369 272.128 112.449C271.616 112.486 271.492 112.59 271.502 112.539C271.551 112.485 271.706 112.378 271.786 112.256C272.583 111.376 272.617 108.275 273.544 106.734C274.098 105.974 275.711 105.299 278.13 105.77C280.552 106.259 281.825 107.508 282.295 108.399C282.57 108.84 282.555 109.32 282.602 109.792C282.666 110.227 282.642 110.769 282.577 111.343C282.57 111.841 282.371 112.569 282.199 113.229L281.925 114.219C281.832 114.545 281.622 115.004 281.47 115.385L280.315 116.761Z" fill="#734F25"/>
<path d="M265.52 119.38C265.52 119.42 265.5 119.44 265.48 119.48C264.92 120.339 258.425 122.418 257.366 122.278C256.287 122.158 253.309 120.04 253.309 119.66C253.309 119.28 254.128 109.227 254.248 109.048C254.368 108.848 258.045 107.669 258.245 107.789L261.862 109.328C261.862 109.328 261.862 109.328 261.882 109.348C262.102 109.847 265.779 118.061 265.52 119.38Z" fill="#8B3C1C"/>
<path d="M265.52 119.38C265.52 119.42 265.5 119.44 265.48 119.48C264.92 120.339 258.425 122.418 257.366 122.278L257.706 113.085L261.863 109.328C261.863 109.328 261.863 109.328 261.883 109.348C262.102 109.847 265.779 118.061 265.52 119.38Z" fill="#914627"/>
<path d="M307.162 137.709C307.162 137.709 300.875 137.922 300.459 138.589C300.042 139.255 291.234 151.909 291.489 152.614C291.744 153.32 292.732 156.501 292.619 156.525C292.506 156.549 295.418 157.275 295.418 157.275L305.602 151.41L307.162 141.143V137.709Z" fill="#914627"/>
<path d="M298.398 155.571L295.418 157.275L292.62 156.525L291.489 152.614L298.398 155.571Z" fill="#8B3C1C"/>
<path d="M282.968 141.244C281.729 142.983 274.973 150.137 270.236 153.135C269.936 153.255 269.617 153.355 269.298 153.415C265.961 154.114 262.563 151.416 262.123 150.437C261.603 149.378 262.362 144.641 262.602 143.342C262.642 143.122 263.143 142.802 263.962 142.403C268.099 140.425 280.249 136.667 280.249 136.667L283.628 137.706C283.628 137.706 284.227 139.525 282.968 141.244Z" fill="#914627"/>
<path d="M269.298 153.415C265.961 154.114 262.563 151.416 262.123 150.437C261.603 149.378 262.362 144.641 262.602 143.342C262.642 143.122 263.143 142.802 263.962 142.403C265.221 142.523 266.42 142.983 266.98 143.642C268.039 144.881 268.199 149.298 268.199 149.298C268.199 149.298 268.299 152.016 269.298 153.415Z" fill="#8B3C1C"/>
<path d="M293.006 115.996C293.006 115.996 292.09 118.287 292.09 118.973C292.09 119.659 298.918 128.736 300.001 129.403C301.083 130.069 305.742 129.797 305.742 129.797C305.742 129.797 306.681 126.144 306.602 126.12C306.522 126.096 296.557 116.051 296.557 116.051L293.006 115.996Z" fill="#914627"/>
<path d="M293.006 115.996C293.006 115.996 292.392 117.537 292.173 118.469C292.119 118.765 292.09 118.973 292.09 118.973C292.09 118.973 292.52 119.717 293.18 120.807C295.153 123.682 299.19 128.903 300.001 129.403C301.167 128.154 301.208 126.28 301.208 126.28C301.208 126.28 296.524 117.411 293.006 115.996Z" fill="#8B3C1C"/>
<path d="M241.223 124.653C241.223 124.653 234.798 123.835 234.264 123.562C233.729 123.288 222.724 137.315 222.308 138.231C221.891 139.147 222.049 145.101 222.049 145.101L230.857 150.186L236.402 144.434L242.709 129.154L241.223 124.653Z" fill="#914627"/>
<path d="M232.052 142.393C232.052 142.393 232.073 145.203 231.511 147.139C230.949 149.075 230.859 150.184 230.859 150.184L222.051 145.099C222.051 145.099 221.602 139.936 222.31 138.229C223.017 136.522 232.052 142.393 232.052 142.393Z" fill="#8B3C1C"/>
<path d="M222.309 138.23C222.309 138.23 223.322 140.416 226.139 141.707C228.673 142.868 232.051 142.394 232.051 142.394C232.051 142.394 233.633 139.146 236.797 134.4C239.961 129.654 241.223 124.653 241.223 124.653L234.264 123.562C234.264 123.562 225.669 133.151 222.309 138.23Z" fill="#C2683E"/>
<path d="M262.612 143.339C262.612 143.339 266.776 148.971 268.191 149.305C269.607 149.638 277.018 142.643 277.767 142.394C278.516 142.144 283.62 137.71 283.62 137.71L280.25 136.666C280.251 136.664 266.192 140.288 262.612 143.339Z" fill="#C2683E"/>
<path d="M254.243 109.043C254.243 109.043 256.367 113.082 257.699 113.082C259.031 113.082 261.863 109.328 261.863 109.328L258.241 107.783C258.241 107.783 255.451 108.293 254.243 109.043Z" fill="#C2683E"/>
<path d="M307.162 137.709L303.206 152.76L298.397 155.57L291.488 152.613C291.488 152.613 291.152 152.166 300.458 138.588C302.895 137.084 307.162 137.709 307.162 137.709Z" fill="#C2683E"/>
<path d="M293.006 115.996C293.006 115.996 300.397 124.531 301.208 126.28C303.706 126.405 306.601 126.119 306.601 126.119L296.556 116.05L293.006 115.996Z" fill="#C2683E"/>
<path d="M298.88 129.19C298.88 130.251 298.02 131.11 296.96 131.11C295.899 131.11 295.04 130.25 295.04 129.19C295.04 128.129 295.9 127.27 296.96 127.27C298.021 127.27 298.88 128.13 298.88 129.19Z" fill="#AD5844"/>
<path d="M292.702 120.68C292.702 121.741 291.842 122.6 290.782 122.6C289.722 122.6 288.862 121.74 288.862 120.68C288.862 119.62 289.722 118.76 290.782 118.76C291.842 118.76 292.702 119.619 292.702 120.68Z" fill="#FC736A"/>
<path d="M283.121 116.695C283.121 117.755 282.261 118.615 281.201 118.615C280.14 118.615 279.281 117.755 279.281 116.695C279.281 115.634 280.141 114.775 281.201 114.775C282.262 114.774 283.121 115.634 283.121 116.695Z" fill="#AD5844"/>
<path d="M304.84 137.826C304.84 138.887 303.98 139.746 302.92 139.746C301.86 139.746 301 138.886 301 137.826C301 136.765 301.86 135.906 302.92 135.906C303.981 135.906 304.84 136.766 304.84 137.826Z" fill="#FC736A"/>
<path d="M290.782 149.36C290.782 150.421 289.922 151.28 288.862 151.28C287.802 151.28 286.942 150.42 286.942 149.36C286.942 148.299 287.802 147.44 288.862 147.44C289.922 147.44 290.782 148.3 290.782 149.36Z" fill="#FC736A"/>
<path d="M263.114 155.299C263.114 156.36 262.254 157.219 261.194 157.219C260.134 157.219 259.274 156.359 259.274 155.299C259.274 154.239 260.134 153.379 261.194 153.379C262.254 153.379 263.114 154.238 263.114 155.299Z" fill="#AD5844"/>
<path d="M252.887 143.479C253.801 142.941 254.978 143.245 255.516 144.159C256.054 145.073 255.75 146.25 254.836 146.788C253.922 147.326 252.745 147.022 252.207 146.108C251.668 145.194 251.973 144.017 252.887 143.479Z" fill="#FC736A"/>
<path d="M244.546 153.627C243.82 154.4 242.604 154.437 241.831 153.711C241.058 152.985 241.021 151.769 241.747 150.997C242.473 150.224 243.689 150.187 244.461 150.913C245.235 151.639 245.272 152.854 244.546 153.627Z" fill="#AD5844"/>
<path d="M257.292 136.507C256.566 137.28 255.35 137.317 254.577 136.591C253.804 135.865 253.767 134.65 254.493 133.878C255.219 133.105 256.435 133.068 257.207 133.794C257.981 134.52 258.018 135.734 257.292 136.507Z" fill="#AD5844"/>
<path d="M286.372 129.508C285.646 130.281 284.43 130.318 283.657 129.592C282.884 128.866 282.847 127.65 283.573 126.877C284.299 126.104 285.515 126.067 286.287 126.793C287.061 127.52 287.099 128.735 286.372 129.508Z" fill="#AD5844"/>
<path d="M268.045 140.616C267.319 141.389 266.103 141.426 265.33 140.7C264.557 139.973 264.52 138.758 265.246 137.985C265.972 137.212 267.188 137.175 267.96 137.901C268.734 138.628 268.772 139.843 268.045 140.616Z" fill="#AD5844"/>
<path d="M242.036 144.806C241.31 145.579 240.094 145.616 239.322 144.89C238.549 144.164 238.512 142.948 239.238 142.176C239.965 141.403 241.18 141.366 241.953 142.092C242.725 142.817 242.762 144.033 242.036 144.806Z" fill="#FC736A"/>
<path d="M220.444 135.734C219.717 136.507 218.502 136.544 217.729 135.818C216.956 135.092 216.919 133.876 217.645 133.103C218.371 132.33 219.587 132.293 220.359 133.019C221.133 133.746 221.17 134.961 220.444 135.734Z" fill="#FC736A"/>
<path d="M232.014 128.439C231.288 129.212 230.072 129.249 229.3 128.523C228.527 127.797 228.49 126.581 229.216 125.809C229.942 125.036 231.158 124.999 231.93 125.725C232.703 126.451 232.74 127.667 232.014 128.439Z" fill="#AD5844"/>
<path d="M243.269 136.091C242.543 136.864 241.327 136.901 240.555 136.175C239.782 135.449 239.745 134.233 240.471 133.461C241.197 132.688 242.413 132.651 243.186 133.377C243.958 134.103 243.995 135.318 243.269 136.091Z" fill="#FC736A"/>
<path d="M248.387 128.135C247.66 128.908 246.445 128.945 245.673 128.219C244.9 127.493 244.863 126.277 245.589 125.505C246.315 124.732 247.531 124.695 248.303 125.421C249.075 126.147 249.113 127.363 248.387 128.135Z" fill="#AD5844"/>
<path d="M242.626 119.297C241.899 120.07 240.684 120.107 239.912 119.381C239.139 118.655 239.102 117.439 239.828 116.667C240.554 115.894 241.77 115.857 242.542 116.583C243.315 117.309 243.352 118.525 242.626 119.297Z" fill="#FC736A"/>
<path d="M253.341 114.056C252.615 114.829 251.399 114.866 250.627 114.14C249.854 113.414 249.817 112.198 250.543 111.425C251.269 110.652 252.485 110.615 253.257 111.341C254.03 112.068 254.067 113.283 253.341 114.056Z" fill="#AD5844"/>
<path d="M267.39 120.216C266.664 120.989 265.448 121.026 264.675 120.3C263.902 119.574 263.865 118.358 264.591 117.586C265.317 116.813 266.533 116.776 267.305 117.502C268.079 118.228 268.116 119.443 267.39 120.216Z" fill="#FC736A"/>
<path d="M275.518 112.066C274.792 112.839 273.576 112.876 272.803 112.15C272.03 111.424 271.993 110.208 272.719 109.435C273.445 108.662 274.661 108.625 275.433 109.351C276.207 110.078 276.245 111.293 275.518 112.066Z" fill="#FC736A"/>
<path d="M304.319 118.01C303.593 118.783 302.377 118.82 301.605 118.094C300.832 117.368 300.795 116.152 301.521 115.38C302.247 114.607 303.463 114.57 304.236 115.296C305.008 116.022 305.046 117.237 304.319 118.01Z" fill="#FC736A"/>
<path d="M311.776 131.139C311.049 131.912 309.834 131.949 309.061 131.223C308.288 130.497 308.251 129.281 308.977 128.509C309.703 127.736 310.919 127.699 311.691 128.425C312.465 129.151 312.502 130.367 311.776 131.139Z" fill="#FC736A"/>
<path d="M277.402 147.295C277.402 148.356 276.543 149.215 275.482 149.215C274.422 149.215 273.562 148.355 273.562 147.295C273.562 146.235 274.422 145.375 275.482 145.375C276.542 145.375 277.402 146.235 277.402 147.295Z" fill="#AD5844"/>
<path d="M294.086 139.372C294.086 140.433 293.226 141.292 292.166 141.292C291.105 141.292 290.246 140.432 290.246 139.372C290.246 138.312 291.106 137.452 292.166 137.452C293.226 137.452 294.086 138.311 294.086 139.372Z" fill="#FC736A"/>
<path d="M312.297 143.49C312.297 144.551 311.437 145.41 310.377 145.41C309.316 145.41 308.457 144.55 308.457 143.49C308.457 142.43 309.317 141.57 310.377 141.57C311.437 141.57 312.297 142.43 312.297 143.49Z" fill="#AD5844"/>
<path d="M290.18 124.795C288.511 123.814 286.818 123.164 285.106 122.927C284.263 122.767 283.411 122.772 282.593 122.806C281.781 122.823 281.338 123.138 281.362 123.237L278.314 122.214C278.239 122.636 278.658 122.927 278.571 122.895C278.62 122.911 278.391 122.837 278.217 122.806C277.821 122.724 277.249 122.682 276.712 122.623L273.167 122.433C271.982 122.419 270.478 122.172 269.598 122.185C269.127 122.192 268.749 122.358 268.13 122.671C267.567 123 266.714 123.291 266.028 123.278C265.33 123.324 264.706 123.271 264.126 123.288C263.536 123.314 262.952 123.417 262.378 123.55C261.29 123.817 260.031 124.405 259.355 125.001C259.209 125.172 259.253 125.447 259.132 126.265C259.006 127.144 258.415 127.988 257.915 128.501C256.829 129.569 256.274 130.14 255.568 131.119C255.228 131.572 254.908 132.064 254.564 132.563C254.219 133.066 253.818 133.664 253.883 133.687C253.928 133.694 253.9 133.641 254.076 134.001C254.248 134.329 254.589 134.799 254.978 135.426C255.908 136.824 256.224 138.857 255.768 140.577C255.275 142.472 254.042 143.589 253.429 144.417C252.729 145.344 252.545 145.543 252.578 146.36C252.591 147.128 253.114 148.184 253.626 149.391C254.148 150.576 254.645 152.176 254.291 153.707C253.95 154.755 253.965 155.942 254.234 157.15L253.877 157.33C253.023 156.315 252.563 154.957 252.466 153.527C252.356 152.54 251.84 151.728 251.142 150.769C250.465 149.806 249.549 148.751 249.07 147.052C248.869 146.216 248.809 145.25 249.068 144.283C249.323 143.355 249.751 142.618 250.15 142.042C250.987 140.875 251.513 140.088 251.623 139.523C251.794 138.829 251.709 138.212 251.352 137.475C251.129 137.019 250.762 136.459 250.414 135.652C250.059 134.899 249.786 133.521 250.288 132.346C250.812 131.201 251.281 130.867 251.655 130.362C252.063 129.869 252.507 129.378 252.98 128.888C253.849 127.921 255.286 126.968 256.148 126.493C256.584 126.2 256.819 126.03 256.987 125.684L257.335 124.754C257.48 124.369 257.838 123.858 258.234 123.606C259.001 123.122 259.536 123.026 260.193 122.785C260.821 122.574 261.468 122.44 262.111 122.311C263.369 122.04 264.803 122.079 265.89 121.964C266.453 121.854 266.791 121.676 267.255 121.299C267.669 120.929 268.356 120.396 269.119 120.152C269.848 119.889 270.588 119.798 271.168 119.692C271.722 119.576 272.368 119.443 272.99 119.343C274.253 119.129 275.546 118.991 276.91 119.057C277.612 119.097 278.29 119.135 279.1 119.378C279.283 119.416 279.521 119.512 279.738 119.597C279.939 119.665 280.196 119.794 280.468 119.979C280.952 120.23 281.712 121.103 281.73 122.137L278.683 121.114C279.242 120.408 280.079 120.007 280.773 119.856C281.481 119.695 282.109 119.705 282.678 119.752C283.769 119.857 284.824 120.148 285.811 120.545C287.77 121.381 289.458 122.77 290.466 124.518L290.18 124.795Z" fill="#FFD9A1"/>
<path d="M290.84 129.385C290.753 131.292 290.17 133.237 289.162 134.948C288.676 135.788 288.172 136.576 287.876 137.346C287.553 138.127 287.502 138.755 287.543 139.679C287.581 140.544 287.642 141.771 287.266 142.892C286.92 144.002 286.337 144.99 285.652 145.849C284.273 147.623 282.4 148.688 281.158 149.747C279.895 150.748 279.27 152.024 278.276 153.759C277.391 155.417 275.919 157.531 273.829 158.666C272.826 159.249 271.623 159.633 270.548 159.811C269.487 159.994 268.578 160.064 267.854 160.235C266.467 160.565 265.091 161.39 263.874 162.515L262.516 159.435C264.387 159.402 266.748 159.398 268.783 160.255C269.744 160.62 270.558 160.983 271.306 161.16C272.031 161.332 272.718 161.338 273.549 161.147C275.187 160.778 276.984 159.718 279.133 159.472C281.363 159.202 283.066 160.368 284.98 159.806C283.255 160.919 280.954 160.272 279.412 160.868C277.754 161.392 276.318 162.639 274.292 163.454C273.299 163.862 272.023 164.123 270.845 163.948C269.69 163.804 268.699 163.466 267.829 163.248C266.203 162.803 264.622 162.896 262.671 163.047L258.109 163.399L261.313 159.966C262.752 158.424 264.624 157.042 266.93 156.468C268.045 156.189 269.028 156.1 269.825 155.936C270.612 155.788 271.222 155.548 271.863 155.193C273.148 154.508 273.989 153.431 274.934 151.812C275.409 151.024 275.894 150.142 276.562 149.275C277.208 148.401 278.099 147.54 278.949 146.932C280.678 145.672 282.222 144.933 283.325 143.806C283.885 143.246 284.346 142.618 284.643 141.946C284.95 141.285 285.062 140.588 285.163 139.571C285.243 138.608 285.548 137.328 286.154 136.446C286.735 135.537 287.418 134.839 288.022 134.138C289.235 132.789 290.203 131.191 290.84 129.385Z" fill="#FFD9A1"/>
<path d="M240.066 126.344C240.075 127.294 239.921 127.99 239.034 128.647C238.806 128.787 238.534 128.919 238.227 128.981C237.687 129.055 237.573 129.019 237.381 129.024C237.051 129.018 236.815 128.926 236.678 128.748C236.612 128.66 236.555 128.581 236.644 128.442C236.694 128.358 237.173 127.92 236.971 127.347C236.766 127.03 236.739 127.293 236.775 127.384C236.801 127.497 236.867 127.613 236.963 127.703C237.31 128.143 238.142 128.003 239.011 128.976L239.46 129.479L237.944 130.697C237.69 130.901 237.436 131.092 237.173 131.21C237.042 131.27 236.911 131.333 236.779 131.378L236.581 131.451L236.532 131.47C236.582 131.474 236.792 131.451 236.925 131.404C237.232 131.312 237.527 131.095 237.7 130.866C237.918 130.646 238.116 130.192 238.128 129.901C238.147 129.82 238.157 129.733 238.154 129.651C238.155 129.484 238.127 129.341 238.096 129.235C238.037 129.034 238.023 129 238.091 129.037C238.167 129.157 238.63 129.416 238.926 130.524C239.068 131.068 238.959 131.778 238.733 132.201C238.522 132.64 238.274 132.84 238.131 132.955C237.797 133.248 237.854 132.969 237.737 132.806C237.582 132.73 237.408 132.984 237.192 133.326C236.979 133.637 236.613 134.207 236.087 134.21L235.813 133.919C235.537 133.279 234.838 133.445 234.726 132.179C234.705 131.886 234.823 131.434 234.924 131.173C235.027 130.894 235.125 130.728 235.135 130.626C235.159 130.526 235.073 130.503 234.965 130.688C234.846 130.86 234.755 131.283 234.828 131.563C234.979 132.136 235.035 131.996 234.777 131.692C234.674 131.516 234.497 131.262 234.331 130.808C234.249 130.575 234.187 130.3 234.172 129.996C234.167 129.845 234.179 129.691 234.198 129.542C234.23 129.19 234.441 128.66 234.695 128.39C234.931 128.136 235.29 127.895 235.66 127.778C235.826 127.72 236.066 127.68 236.149 127.677L236.201 127.685L236.41 127.718C236.549 127.736 236.69 127.772 236.83 127.804C237.111 127.868 237.399 128.004 237.688 128.153L236.622 129.873C237.051 129.7 236.757 128.943 236.2 128.647C236.066 128.549 235.904 128.474 235.729 128.369C235.572 128.242 235.316 128.286 235.052 127.671C234.786 126.78 235.572 126.106 235.896 125.956C236.271 125.732 236.515 125.647 236.745 125.566C237.203 125.401 237.554 125.401 237.814 125.465C237.916 125.503 238.099 125.511 237.855 125.56C237.843 125.588 237.86 125.643 237.91 125.679C238.141 125.902 238.866 125.757 239.834 126.017L240.066 126.344Z" fill="#2B1810"/>
<path d="M280.53 141.493C279.962 142.253 279.417 142.715 278.313 142.7C278.047 142.673 277.751 142.613 277.469 142.475C276.995 142.206 276.926 142.11 276.77 141.997C276.512 141.792 276.379 141.575 276.378 141.351C276.379 141.241 276.381 141.145 276.536 141.088C276.627 141.052 277.273 140.993 277.46 140.414C277.49 140.037 277.308 140.23 277.282 140.325C277.234 140.431 277.217 140.564 277.238 140.692C277.248 141.252 277.994 141.645 278.096 142.947L278.149 143.62L276.205 143.67C275.88 143.678 275.561 143.676 275.281 143.611C275.141 143.579 274.998 143.55 274.865 143.506L274.662 143.445L274.611 143.43C274.649 143.464 274.83 143.571 274.964 143.615C275.264 143.728 275.63 143.734 275.906 143.657C276.213 143.614 276.646 143.373 276.831 143.15C276.895 143.097 276.955 143.035 277.003 142.967C277.105 142.834 277.17 142.704 277.21 142.601C277.285 142.405 277.294 142.37 277.326 142.44C277.314 142.581 277.525 143.069 277.088 144.13C276.871 144.648 276.355 145.146 275.918 145.346C275.484 145.567 275.165 145.577 274.982 145.582C274.539 145.612 274.754 145.424 274.759 145.224C274.682 145.07 274.389 145.167 274.01 145.307C273.652 145.426 273.015 145.657 272.595 145.341L272.553 144.943C272.722 144.267 272.064 143.976 272.742 142.901C272.902 142.655 273.271 142.366 273.51 142.22C273.761 142.061 273.94 141.988 274.009 141.913C274.089 141.849 274.034 141.778 273.835 141.86C273.636 141.925 273.307 142.206 273.196 142.473C272.969 143.02 273.099 142.943 273.077 142.545C273.102 142.343 273.115 142.032 273.258 141.571C273.334 141.336 273.452 141.079 273.624 140.829C273.712 140.706 273.814 140.59 273.92 140.484C274.16 140.223 274.648 139.93 275.014 139.869C275.356 139.81 275.787 139.836 276.153 139.968C276.32 140.022 276.535 140.136 276.603 140.184L276.64 140.222L276.786 140.375C276.886 140.473 276.976 140.587 277.067 140.698C277.252 140.919 277.398 141.201 277.538 141.495L275.646 142.217C276.093 142.339 276.317 141.559 276.054 140.987C276.007 140.827 275.924 140.669 275.848 140.479C275.801 140.283 275.569 140.163 275.732 139.513C276.061 138.643 277.093 138.583 277.443 138.66C277.877 138.709 278.123 138.79 278.355 138.864C278.819 139.01 279.099 139.224 279.266 139.432C279.324 139.524 279.465 139.641 279.241 139.533C279.214 139.548 279.194 139.602 279.212 139.661C279.26 139.979 279.925 140.302 280.538 141.096L280.53 141.493Z" fill="#EBE4E1"/>
<path d="M259.656 116.806C258.85 116.304 258.344 115.8 258.265 114.699C258.269 114.432 258.304 114.132 258.417 113.839C258.644 113.344 258.735 113.267 258.835 113.102C259.018 112.827 259.222 112.676 259.446 112.657C259.555 112.649 259.652 112.642 259.721 112.792C259.765 112.88 259.878 113.519 260.47 113.655C260.848 113.653 260.64 113.489 260.544 113.47C260.434 113.431 260.301 113.425 260.174 113.457C259.617 113.514 259.288 114.291 258 114.502L257.334 114.611L257.12 112.678C257.084 112.355 257.06 112.037 257.101 111.752C257.121 111.609 257.137 111.465 257.17 111.329L257.214 111.122L257.225 111.07C257.195 111.11 257.103 111.3 257.07 111.438C256.983 111.746 257.008 112.111 257.108 112.38C257.177 112.683 257.454 113.093 257.692 113.259C257.75 113.319 257.817 113.373 257.889 113.415C258.03 113.506 258.165 113.559 258.272 113.59C258.474 113.648 258.509 113.654 258.442 113.692C258.3 113.692 257.832 113.943 256.738 113.598C256.203 113.426 255.664 112.954 255.427 112.535C255.17 112.121 255.133 111.804 255.113 111.622C255.045 111.183 255.251 111.381 255.451 111.37C255.598 111.28 255.477 110.997 255.305 110.631C255.156 110.284 254.872 109.669 255.152 109.224L255.545 109.148C256.233 109.259 256.468 108.579 257.595 109.164C257.854 109.303 258.173 109.646 258.339 109.872C258.519 110.109 258.607 110.281 258.687 110.343C258.758 110.417 258.824 110.356 258.725 110.165C258.643 109.972 258.336 109.668 258.06 109.58C257.496 109.4 257.584 109.523 257.979 109.468C258.183 109.475 258.494 109.463 258.965 109.567C259.206 109.623 259.471 109.718 259.735 109.869C259.865 109.946 259.989 110.039 260.104 110.135C260.384 110.351 260.718 110.813 260.809 111.173C260.896 111.509 260.908 111.941 260.807 112.316C260.767 112.487 260.672 112.711 260.63 112.783L260.595 112.823L260.455 112.982C260.365 113.09 260.259 113.189 260.157 113.29C259.953 113.493 259.683 113.663 259.402 113.827L258.522 112.003C258.438 112.458 259.234 112.616 259.783 112.305C259.938 112.245 260.089 112.149 260.271 112.057C260.462 111.993 260.562 111.753 261.223 111.86C262.118 112.114 262.265 113.138 262.218 113.493C262.206 113.929 262.146 114.181 262.092 114.419C261.986 114.894 261.797 115.191 261.604 115.375C261.517 115.44 261.412 115.591 261.501 115.359C261.484 115.333 261.428 115.319 261.371 115.341C261.059 115.416 260.792 116.105 260.054 116.783L259.656 116.806Z" fill="#2B1810"/>
<path d="M306.205 143.419C305.637 144.18 305.092 144.641 303.988 144.626C303.722 144.599 303.426 144.539 303.144 144.401C302.67 144.133 302.601 144.036 302.445 143.922C302.186 143.717 302.054 143.501 302.053 143.276C302.054 143.166 302.055 143.07 302.21 143.013C302.301 142.977 302.948 142.918 303.135 142.339C303.165 141.963 302.982 142.155 302.956 142.25C302.908 142.356 302.891 142.489 302.912 142.617C302.922 143.177 303.668 143.57 303.77 144.871L303.822 145.544L301.878 145.594C301.553 145.602 301.235 145.6 300.955 145.535C300.814 145.503 300.671 145.474 300.538 145.43L300.335 145.369L300.285 145.354C300.323 145.388 300.503 145.496 300.637 145.539C300.937 145.652 301.304 145.658 301.58 145.581C301.887 145.538 302.32 145.297 302.506 145.073C302.57 145.02 302.63 144.958 302.678 144.89C302.78 144.758 302.845 144.627 302.885 144.524C302.96 144.328 302.969 144.293 303.001 144.363C302.989 144.504 303.199 144.992 302.762 146.053C302.545 146.571 302.03 147.069 301.593 147.269C301.159 147.49 300.841 147.5 300.658 147.505C300.215 147.536 300.429 147.347 300.434 147.147C300.357 146.993 300.065 147.09 299.686 147.231C299.328 147.35 298.69 147.581 298.27 147.265L298.229 146.867C298.397 146.191 297.739 145.9 298.417 144.825C298.578 144.579 298.947 144.29 299.186 144.144C299.437 143.985 299.615 143.912 299.684 143.837C299.764 143.772 299.709 143.702 299.511 143.784C299.312 143.849 298.983 144.129 298.872 144.397C298.645 144.944 298.775 144.867 298.753 144.469C298.778 144.267 298.791 143.956 298.934 143.495C299.01 143.26 299.128 143.003 299.3 142.753C299.388 142.63 299.491 142.514 299.596 142.408C299.836 142.147 300.324 141.854 300.69 141.793C301.032 141.735 301.464 141.76 301.829 141.892C301.996 141.946 302.211 142.06 302.279 142.108L302.316 142.146L302.462 142.299C302.562 142.397 302.652 142.512 302.744 142.622C302.929 142.843 303.074 143.125 303.214 143.419L301.324 144.142C301.771 144.264 301.994 143.484 301.731 142.911C301.684 142.751 301.601 142.593 301.525 142.403C301.478 142.207 301.247 142.087 301.41 141.437C301.739 140.567 302.771 140.508 303.121 140.584C303.555 140.633 303.801 140.714 304.033 140.788C304.498 140.934 304.776 141.147 304.943 141.355C305.001 141.447 305.143 141.564 304.92 141.456C304.893 141.471 304.873 141.525 304.891 141.584C304.939 141.902 305.604 142.225 306.217 143.018L306.205 143.419Z" fill="#2B1810"/>
<path d="M301.659 128.626C300.88 128.397 300.468 128.145 300.128 127.637C299.843 127.175 299.675 126.247 300.241 125.493C300.821 124.801 301.621 124.964 301.992 124.913C302.395 124.879 302.395 124.574 302.136 124.326L303.12 125.239C302.952 125.428 302.81 125.664 302.686 125.888C302.563 126.117 302.439 126.273 302.314 126.404C302.054 126.651 301.874 126.966 301.605 127.089L298.801 128.369L298.411 125.621C298.331 125.058 298.498 124.465 298.798 123.937C299.097 123.408 299.593 122.93 300.346 122.624L300.738 122.702C301.324 123.243 301.732 123.628 302.025 123.963C302.318 124.299 302.558 124.571 302.632 124.857L299.438 123.389C299.929 123.067 300.553 123.012 301.125 122.971C301.416 122.958 301.715 122.99 302.02 123.116C302.324 123.237 302.615 123.391 302.883 123.52L304.06 124.083L303.867 124.433C303.574 124.966 303.244 125.419 303.089 125.934C302.925 126.444 303.111 127.114 303.319 127.116C303.514 127.058 303.32 126.948 303.137 127.251C302.896 127.517 302.695 128.017 302.053 128.554L301.659 128.626Z" fill="#EBE4E1"/>
<path d="M297.759 120.97C297.221 121.651 296.361 121.378 295.948 121.044C295.539 120.696 295.277 120.154 295.53 119.741C295.786 119.367 296.456 119.212 296.585 119.02C296.657 118.927 296.647 118.832 296.554 118.76C296.515 118.724 296.458 118.695 296.377 118.679C296.309 118.754 296.276 118.988 296.351 119.152C297.083 120.035 296.475 119.976 296.316 120.155C296.061 120.263 295.766 120.435 295.143 120.163C294.838 120.014 294.381 119.724 294.096 119.187C293.819 118.69 293.807 118.168 293.934 117.89C294.169 117.289 294.674 117.098 295.344 116.984L295.736 117.062C296.329 117.378 296.765 117.627 297.052 117.462C297.198 117.403 297.268 117.094 297.123 116.77C296.969 116.414 296.719 116.225 296.615 116.155C296.408 116.027 296.554 116.24 296.734 116.399C296.825 116.486 296.934 116.568 297.04 116.72L297.118 116.837C297.123 116.881 297.16 116.925 297.348 117.018C297.63 117.195 297.862 117.404 297.959 117.667C298.074 117.933 298.089 118.267 298.055 118.445C297.988 118.537 297.942 118.617 297.908 118.691C297.826 118.839 297.811 118.963 297.871 119.089C297.976 119.335 298.598 119.617 298.861 119.682C299.118 119.708 298.944 119.606 298.731 119.652C298.51 119.708 297.977 119.782 297.867 120.584L297.759 120.97Z" fill="#2B1810"/>
<path d="M230.151 139.605C229.889 139.947 230.15 140.244 230.222 140.405C230.363 140.577 230.45 140.688 230.31 141.023C230.246 141.179 230.115 141.359 229.897 141.558C229.695 141.747 229.254 141.946 229.202 141.965C229.106 141.992 229.271 142.053 229.688 141.642C229.777 141.543 229.87 141.402 229.924 141.285C229.958 141.231 229.977 141.166 229.994 141.102C230.03 140.973 230.024 140.832 229.986 140.714C229.716 141.02 229.077 141.609 228.95 141.994C228.895 142.115 228.952 142.139 228.815 142.536C228.736 142.734 228.484 142.924 228.323 142.968L227.973 143.055C227.684 143.109 227.375 143.222 227.076 143.316C226.463 143.533 226.003 143.687 225.966 143.809C226.035 143.912 225.995 144.249 226.507 143.78C226.702 143.537 226.73 143.23 226.617 143.227C226.525 143.202 226.393 143.32 226.226 143.542C226.058 143.757 225.872 144.034 225.565 144.315C225.263 144.589 224.83 144.822 224.413 144.748L224.139 144.457C223.86 143.749 223.316 143.789 223.086 143.335C222.944 143.139 222.838 142.837 222.832 142.403C222.797 141.992 222.997 141.279 223.5 140.749C223.999 140.224 224.605 139.988 225.033 139.956C225.422 139.901 226.008 139.915 226.382 140.052C227.182 140.267 227.5 140.762 227.689 141.213C227.792 141.423 227.895 141.627 228.025 141.697C228.139 141.748 227.882 141.726 227.732 142.003C227.683 142.205 227.712 142.011 227.664 141.925C227.547 141.473 226.904 141.224 226.654 140.694C226.629 140.472 226.636 140.227 226.685 139.994C226.709 139.878 226.734 139.761 226.775 139.655C226.851 139.491 226.975 139.307 227.1 139.171C227.665 138.608 228.041 138.607 228.142 138.571C228.29 138.531 228.047 138.656 228.019 138.727C227.975 138.809 227.999 138.846 228.081 138.852C228.234 138.89 228.581 138.663 229.08 138.611C229.493 138.549 230.216 138.704 230.338 139.251L230.151 139.605Z" fill="#EBE4E1"/>
<path d="M232.641 136.564C231.876 136.312 231.551 136.062 231.287 135.812C231.254 135.278 230.728 136.543 232.226 137.187C232.746 137.321 232.67 137.263 232.588 137.265C232.525 137.249 232.462 137.211 232.399 137.146C232.135 136.89 231.908 136.255 231.61 136.136C231.313 136.032 230.778 136.079 230.199 135.978C229.5 135.865 229.05 135.481 228.873 135.384C228.764 135.336 228.676 135.337 228.732 135.511C228.727 135.561 228.931 135.86 229.33 136.058C229.754 136.286 230.322 136.259 230.456 136.205C230.605 136.141 230.542 136.175 230.099 136.195C229.676 136.271 228.684 135.947 228.396 135.503C228.087 135.127 227.909 134.608 227.89 134.159C227.923 133.935 228.011 133.979 228.069 133.875C228.34 133.6 228.744 133.312 229.368 133.004L229.766 132.967C230.436 133.155 230.886 133.363 231.204 133.583C231.276 133.603 231.367 133.773 231.423 133.67C231.448 133.337 231.295 132.945 231.044 132.675C230.845 132.32 229.983 132.033 229.684 132.094C229.365 132.102 229.42 132.091 229.692 132.006C229.947 131.928 230.646 131.904 231.182 132.188C231.693 132.441 231.987 132.831 232.056 132.981C232.262 133.354 232.284 133.58 232.283 133.756C232.328 134.097 232.047 134.209 231.737 134.421C231.484 134.71 231.412 134.996 231.634 134.849C231.834 134.728 232.105 134.078 232.338 133.815C232.399 133.748 232.461 133.707 232.522 133.689C232.564 133.692 232.614 133.618 233.256 133.786C233.409 133.837 233.597 133.919 233.787 134.055C233.882 134.123 233.974 134.202 234.057 134.291L234.172 134.453C234.314 134.674 234.429 134.948 234.479 135.219C234.558 135.954 234.442 135.676 234.402 135.825C234.136 136.073 233.81 136.321 233.043 136.567L232.641 136.564Z" fill="#2B1810"/>
<path d="M268.081 149.281C267.316 149.029 266.991 148.779 266.727 148.529C266.693 147.995 266.168 149.26 267.666 149.904C268.186 150.038 268.11 149.98 268.028 149.982C267.965 149.966 267.902 149.928 267.839 149.863C267.575 149.607 267.348 148.972 267.05 148.853C266.753 148.749 266.218 148.796 265.639 148.694C264.94 148.581 264.49 148.197 264.313 148.1C264.204 148.052 264.116 148.053 264.172 148.226C264.167 148.277 264.371 148.575 264.77 148.774C265.194 149.002 265.762 148.975 265.896 148.921C266.045 148.857 265.982 148.891 265.539 148.911C265.117 148.987 264.124 148.663 263.836 148.219C263.527 147.843 263.349 147.324 263.33 146.875C263.363 146.651 263.451 146.695 263.509 146.591C263.78 146.316 264.184 146.028 264.808 145.72L265.206 145.683C265.876 145.871 266.326 146.079 266.644 146.299C266.716 146.319 266.807 146.489 266.863 146.386C266.888 146.053 266.735 145.661 266.484 145.391C266.285 145.037 265.423 144.749 265.124 144.81C264.805 144.817 264.86 144.807 265.132 144.722C265.387 144.644 266.086 144.62 266.622 144.904C267.133 145.157 267.427 145.547 267.496 145.697C267.702 146.07 267.724 146.296 267.723 146.472C267.768 146.813 267.486 146.925 267.176 147.137C266.923 147.426 266.851 147.712 267.073 147.565C267.273 147.444 267.544 146.794 267.777 146.531C267.838 146.464 267.9 146.423 267.961 146.405C268.003 146.408 268.053 146.334 268.694 146.502C268.847 146.553 269.035 146.635 269.225 146.771C269.32 146.839 269.412 146.918 269.495 147.008L269.61 147.17C269.752 147.391 269.867 147.665 269.917 147.936C269.996 148.671 269.88 148.393 269.84 148.542C269.574 148.79 269.248 149.038 268.481 149.284L268.081 149.281Z" fill="#2B1810"/>
<path d="M236.672 139.514C236.484 140.297 236.261 140.641 236.034 140.924C235.504 141.001 236.809 141.421 237.328 139.876C237.419 139.346 237.367 139.427 237.376 139.509C237.365 139.573 237.332 139.639 237.273 139.707C237.04 139.991 236.425 140.269 236.331 140.576C236.252 140.88 236.342 141.41 236.288 141.995C236.233 142.701 235.887 143.181 235.805 143.365C235.766 143.477 235.774 143.566 235.942 143.495C235.993 143.496 236.274 143.269 236.438 142.854C236.63 142.413 236.557 141.849 236.492 141.72C236.416 141.577 236.455 141.637 236.511 142.077C236.621 142.492 236.379 143.507 235.96 143.831C235.611 144.17 235.108 144.39 234.662 144.445C234.436 144.431 234.472 144.339 234.365 144.29C234.068 144.042 233.749 143.664 233.391 143.067L233.321 142.673C233.453 141.99 233.623 141.525 233.817 141.19C233.831 141.117 233.993 141.012 233.886 140.965C233.552 140.967 233.174 141.152 232.925 141.424C232.588 141.652 232.372 142.534 232.457 142.827C232.491 143.144 232.476 143.09 232.369 142.827C232.271 142.579 232.19 141.885 232.429 141.327C232.64 140.797 233.004 140.472 233.148 140.391C233.503 140.155 233.726 140.114 233.901 140.101C234.238 140.029 234.372 140.3 234.608 140.591C234.917 140.82 235.208 140.868 235.043 140.659C234.906 140.469 234.236 140.253 233.955 140.042C233.883 139.987 233.837 139.929 233.814 139.869C233.814 139.827 233.735 139.783 233.851 139.13C233.889 138.974 233.956 138.779 234.076 138.579C234.136 138.479 234.207 138.381 234.29 138.291L234.443 138.163C234.651 138.003 234.915 137.867 235.181 137.794C235.907 137.655 235.64 137.793 235.792 137.822C236.061 138.067 236.334 138.372 236.642 139.116L236.672 139.514Z" fill="#EBE4E1"/>
<path d="M297.927 154.059C297.152 154.278 296.743 154.252 296.384 154.192C296.058 153.768 296.329 155.111 297.931 154.808C298.438 154.628 298.342 154.622 298.275 154.67C298.214 154.692 298.141 154.695 298.052 154.677C297.69 154.613 297.147 154.213 296.833 154.28C296.529 154.36 296.111 154.697 295.575 154.937C294.933 155.234 294.345 155.167 294.144 155.186C294.027 155.207 293.954 155.258 294.097 155.37C294.121 155.414 294.457 155.548 294.899 155.49C295.378 155.442 295.834 155.102 295.915 154.983C296.003 154.847 295.97 154.91 295.613 155.174C295.305 155.473 294.301 155.759 293.814 155.552C293.348 155.413 292.91 155.082 292.644 154.72C292.546 154.516 292.644 154.503 292.634 154.385C292.705 154.005 292.879 153.541 293.224 152.937L293.533 152.684C294.193 152.465 294.683 152.386 295.069 152.391C295.14 152.367 295.311 152.457 295.299 152.341C295.134 152.05 294.788 151.811 294.428 151.727C294.065 151.545 293.19 151.788 292.975 152.005C292.715 152.19 292.754 152.15 292.932 151.928C293.1 151.721 293.666 151.311 294.27 151.247C294.835 151.172 295.297 151.331 295.438 151.416C295.817 151.61 295.962 151.785 296.059 151.931C296.287 152.189 296.116 152.439 295.977 152.788C295.929 153.169 296.029 153.446 296.131 153.2C296.23 152.988 296.091 152.297 296.137 151.949C296.15 151.859 296.178 151.791 296.219 151.741C296.255 151.72 296.255 151.63 296.881 151.412C297.036 151.368 297.239 151.332 297.472 151.339C297.589 151.343 297.709 151.356 297.828 151.384L298.014 151.455C298.255 151.559 298.503 151.722 298.696 151.918C299.173 152.483 298.921 152.318 298.971 152.464C298.889 152.818 298.757 153.206 298.258 153.839L297.927 154.059Z" fill="#EBE4E1"/>
<path d="M325.815 134.07C325.555 134.07 324.296 133.111 324.036 133.011C322.757 132.471 321.438 132.551 320.079 132.531C318.7 132.511 317.281 132.511 315.882 132.691C315.682 132.731 315.482 132.751 315.283 132.811C313.944 133.031 312.685 133.49 311.546 134.31C310.767 134.889 310.067 135.629 309.168 135.949C308.708 136.109 308.249 136.149 307.809 136.109C307.329 136.069 306.85 135.929 306.35 135.749C304.491 135.05 302.613 133.611 300.654 133.97C299.375 134.21 298.476 135.389 297.277 135.649C296.637 135.769 295.898 135.669 295.199 135.589C294.799 135.529 294.419 135.489 294.06 135.509C291.757 135.588 290.584 136.804 288.582 137.679C287.734 138.05 286.786 138.164 285.961 138.582C285.205 138.966 284.596 139.582 284.029 140.212C281.804 142.683 279.997 145.529 278.708 148.594C278.559 148.949 278.411 149.315 278.151 149.599C277.741 150.046 277.121 150.219 276.545 150.408C275.34 150.802 274.139 151.386 273.37 152.394C272.524 153.502 272.311 154.971 271.605 156.173C270.805 157.535 269.351 158.493 267.783 158.691C266.344 158.873 264.701 158.498 263.57 159.406C262.502 160.264 262.441 161.84 262.476 163.21C260.148 161.983 257.783 160.807 255.486 159.526C253.816 158.595 252.6 158.418 250.753 157.935C249.914 157.715 249.074 157.435 248.275 157.096C246.99 156.573 245.75 155.963 244.535 155.3L247.389 151.647L249.422 148.02C249.422 148.02 248.008 143.376 249.422 142.113C250.836 140.85 254.918 139.4 254.918 139.4L258.616 135.811L262.229 131.956L264.307 128.032L267.844 125.43L272.431 124.066L273.119 126.823L280.325 125.43C280.325 125.43 282.876 121.937 284.976 120.242C287.076 118.547 289.025 117.247 289.025 117.247C289.025 117.247 292.575 115.643 295.16 115.02C297.745 114.398 307.165 116.549 307.165 116.549C306.32 115.104 303.077 112.867 303.077 112.867L297.984 111.64C297.984 111.64 294.088 112.203 293.009 112.386C291.93 112.569 290.278 112.959 289.025 113.083C287.772 113.207 284.976 115.18 284.976 115.18L280.209 118.686C280.209 118.686 278.687 121.114 277.824 121.114C276.961 121.114 275.555 120.781 274.122 120.682C272.689 120.583 269.601 122.184 266.031 123.277C262.461 124.37 259.135 126.264 259.135 126.264C259.135 126.264 256.756 129.329 256.04 130.501C255.324 131.672 254.045 132.04 253.123 132.313C252.201 132.586 250.472 134.751 249.363 135.195C248.254 135.639 245.737 139.304 245.737 139.304L241.955 142.094C241.955 142.094 241.971 143.498 242.473 144.037C242.975 144.576 242.713 147.17 242.713 147.17L240.333 152.762C238.038 151.277 235.782 149.705 233.486 148.242C231.838 147.202 230.162 146.233 228.422 145.382L228.428 145.378C228.428 145.378 229.364 142.924 229.775 142.112C230.186 141.301 230.34 139.254 231.77 137.455C233.2 135.656 234.482 135.22 237.122 133.906C239.762 132.592 240.864 130.685 242.714 129.156C244.564 127.627 248.256 126.743 248.901 126.689C249.546 126.635 255.156 122.472 256.509 121.157C257.863 119.842 264.596 117.588 264.596 117.588C264.596 117.588 267.969 116.557 269.687 115.035C271.404 113.513 271.009 113.19 272.231 110.435C273.453 107.68 277.407 108.59 277.407 108.59C277.407 108.59 281.781 107.672 283.162 107.276C284.543 106.88 289.088 105.853 289.088 105.853C288.275 105.251 285.94 104.387 285.94 104.387L282.18 104.812C282.18 104.812 276.677 106.045 276.164 106.045C275.652 106.045 269.687 109.331 269.687 109.331C269.687 109.331 265.588 112.123 264.766 112.388C263.945 112.653 251.945 119.569 251.945 119.569L244.32 124.301L237.548 127.129C237.548 127.129 233.308 131.426 232.056 131.876C230.804 132.325 226.608 136.053 226.608 136.053L222.831 139.06L221.514 142.324C221.114 142.103 220.719 141.87 220.337 141.609C219.498 141.03 218.758 140.37 217.879 139.85C217.639 139.71 217.36 139.59 217.02 139.47C215.421 138.91 212.843 138.591 211.644 138.091C211.024 137.831 210.465 137.851 209.945 138.091C209.925 138.091 216.4 141.828 216.4 141.828L223.814 146.105L232.028 150.862L235.925 153.12L240.242 155.618L251.274 161.973L261.426 167.828L264.424 169.567L269.3 172.385C269.3 172.385 269.34 172.365 269.42 172.305C269.44 172.305 269.48 172.285 269.52 172.265C269.58 172.225 269.62 172.205 269.68 172.165C270.18 171.885 271.159 171.306 272.518 170.526C272.758 170.386 273.038 170.226 273.317 170.066C273.477 169.966 273.657 169.866 273.857 169.746C274.257 169.526 274.677 169.266 275.136 169.006C275.196 168.986 275.236 168.946 275.296 168.906C275.716 168.666 276.155 168.426 276.615 168.147C278.713 166.948 281.211 165.509 283.949 163.91C284.948 163.33 286.008 162.731 287.067 162.111C287.367 161.951 287.666 161.771 287.946 161.611C288.466 161.311 288.985 161.012 289.505 160.712C289.805 160.532 290.125 160.352 290.424 160.172C291.943 159.293 293.502 158.393 295.101 157.474C296.3 156.775 297.539 156.075 298.758 155.356C299.517 154.936 300.277 154.497 301.036 154.057C301.596 153.717 302.175 153.398 302.755 153.058C304.813 151.879 306.872 150.68 308.93 149.501C309.11 149.381 309.29 149.281 309.47 149.181C309.51 149.161 309.55 149.121 309.59 149.101C309.97 148.881 310.349 148.661 310.729 148.441C311.509 148.001 312.308 147.542 313.067 147.102C314.086 146.502 315.106 145.923 316.105 145.343C316.205 145.283 316.325 145.223 316.425 145.163C317.284 144.663 318.144 144.184 318.983 143.684C319.762 143.224 320.542 142.785 321.301 142.345C321.381 142.305 321.461 142.265 321.521 142.205C321.841 142.045 322.14 141.865 322.44 141.706C323.1 141.306 323.759 140.926 324.419 140.547C325.818 139.748 327.177 138.948 328.476 138.209C337.009 133.273 342.965 129.835 342.965 129.835L325.815 134.07Z" fill="#BA9672"/>
<path d="M382.666 45.9296L382.665 45.9486C382.645 46.0056 382.644 46.0436 382.643 46.1026C382.581 46.3136 382.501 46.5056 382.402 46.6176C382.402 46.6176 382.402 46.6176 382.382 46.6176L382.165 46.7696L268.351 111.504L266.822 112.384L260.723 115.983L259.194 116.883L156.989 176.984L153.006 166.831L256.505 110.55L258.014 109.746L264.304 106.324L265.792 105.52L380.77 43.2746L381.024 43.1436C381.044 43.1436 381.063 43.1446 381.063 43.1446C381.082 43.1446 381.101 43.1446 381.101 43.1446L381.14 43.1456C381.237 43.1476 381.333 43.1876 381.45 43.2476C381.7 43.3866 381.929 43.6216 382.136 43.9336C382.211 44.0506 382.288 44.1666 382.343 44.3036L382.364 44.3236C382.494 44.5966 382.587 44.8876 382.62 45.1766C382.675 45.4466 382.689 45.6986 382.666 45.9296Z" fill="#613F3E"/>
<path d="M156.294 177.174C156.555 177.178 156.781 177.118 156.986 176.99C157.452 176.699 157.819 176.047 157.993 175.203C158.023 175.063 158.044 174.928 158.061 174.798L158.07 174.719C158.15 174.064 158.123 173.337 157.991 172.569C157.842 171.725 157.577 170.9 157.205 170.121L157.183 170.072C157.006 169.704 156.801 169.341 156.575 169.003C155.981 168.109 155.294 167.434 154.586 167.05C154.27 166.877 153.964 166.776 153.683 166.746L153.622 166.739C153.592 166.737 153.556 166.735 153.52 166.734C153.33 166.731 153.156 166.763 153.002 166.83L152.782 166.95C152.485 167.154 152.231 167.498 152.049 167.948C151.933 168.229 151.844 168.55 151.783 168.899C151.735 169.196 151.708 169.497 151.701 169.801C151.693 170.29 151.735 170.806 151.83 171.334C152.094 172.856 152.735 174.314 153.632 175.443C153.668 175.488 153.701 175.528 153.735 175.569C153.977 175.86 154.229 176.117 154.485 176.337L154.512 176.36C155.093 176.848 155.67 177.127 156.186 177.167C156.224 177.172 156.26 177.174 156.294 177.174Z" fill="#857372"/>
<path d="M268.352 111.504L266.823 112.384C266.83 111.979 266.799 111.554 266.729 111.11C266.568 110.278 266.31 109.444 265.935 108.666L265.916 108.628C265.728 108.258 265.54 107.888 265.312 107.557C264.991 107.089 264.648 106.678 264.305 106.325L265.793 105.521C266.156 105.855 266.517 106.286 266.84 106.772C267.068 107.103 267.275 107.455 267.444 107.824L267.462 107.883C267.838 108.661 268.095 109.474 268.256 110.326C268.326 110.732 268.358 111.138 268.352 111.504Z" fill="#855D5C"/>
<path d="M260.723 115.984L259.194 116.884C259.202 116.44 259.151 115.938 259.063 115.454C258.922 114.604 258.646 113.769 258.269 112.992L258.251 112.954C258.082 112.584 257.874 112.214 257.647 111.883C257.307 111.357 256.927 110.906 256.505 110.552L258.014 109.748C258.435 110.102 258.816 110.552 259.176 111.099C259.403 111.43 259.61 111.8 259.778 112.17L259.817 112.208C260.173 112.987 260.45 113.82 260.59 114.652C260.661 115.114 260.711 115.56 260.723 115.984Z" fill="#855D5C"/>
<path d="M394.521 53.1102L394.52 53.1292C394.5 53.1862 394.499 53.2242 394.498 53.2832C394.436 53.4942 394.356 53.6862 394.257 53.7982C394.257 53.7982 394.257 53.7982 394.237 53.7982L394.02 53.9502L280.206 118.684L278.676 119.565L272.577 123.164L271.048 124.064L168.843 184.165L164.86 174.012L268.359 117.731L269.868 116.927L276.158 113.505L277.646 112.702L392.623 50.4552L392.877 50.3242C392.897 50.3242 392.916 50.3252 392.916 50.3252C392.935 50.3252 392.954 50.3252 392.954 50.3252H392.993C393.09 50.3272 393.186 50.3672 393.303 50.4272C393.553 50.5662 393.781 50.8012 393.989 51.1142C394.064 51.2312 394.141 51.3472 394.196 51.4842L394.217 51.5042C394.347 51.7762 394.44 52.0682 394.473 52.3562C394.529 52.6262 394.544 52.8792 394.521 53.1102Z" fill="#613F3E"/>
<path d="M168.149 184.354C168.411 184.358 168.636 184.298 168.841 184.17C169.307 183.879 169.674 183.227 169.848 182.384C169.878 182.244 169.9 182.109 169.916 181.979L169.925 181.9C170.005 181.244 169.978 180.518 169.846 179.75C169.697 178.906 169.432 178.081 169.06 177.302L169.038 177.253C168.861 176.885 168.656 176.522 168.43 176.184C167.836 175.29 167.15 174.615 166.442 174.231C166.126 174.058 165.82 173.957 165.539 173.927L165.478 173.92C165.448 173.918 165.412 173.916 165.376 173.915C165.186 173.912 165.012 173.944 164.858 174.012L164.638 174.131C164.341 174.335 164.087 174.679 163.905 175.129C163.789 175.41 163.7 175.731 163.639 176.08C163.591 176.376 163.564 176.678 163.557 176.982C163.549 177.472 163.591 177.987 163.686 178.515C163.95 180.036 164.591 181.495 165.488 182.624C165.524 182.669 165.557 182.709 165.591 182.75C165.833 183.041 166.085 183.298 166.341 183.519L166.368 183.541C166.949 184.029 167.526 184.308 168.042 184.348C168.079 184.351 168.116 184.353 168.149 184.354Z" fill="#857372"/>
<path d="M280.206 118.684L278.676 119.565C278.683 119.16 278.652 118.735 278.582 118.291C278.422 117.459 278.164 116.624 277.788 115.847L277.769 115.809C277.581 115.439 277.393 115.069 277.165 114.738C276.844 114.271 276.501 113.859 276.158 113.505L277.646 112.702C278.009 113.036 278.37 113.466 278.693 113.953C278.92 114.284 279.128 114.636 279.297 115.005L279.315 115.064C279.69 115.842 279.948 116.655 280.109 117.507C280.18 117.913 280.213 118.318 280.206 118.684Z" fill="#855D5C"/>
<path d="M272.578 123.164L271.049 124.064C271.057 123.62 271.006 123.118 270.918 122.633C270.777 121.783 270.501 120.949 270.124 120.171L270.106 120.133C269.937 119.763 269.729 119.393 269.502 119.062C269.162 118.536 268.782 118.085 268.36 117.731L269.869 116.927C270.29 117.281 270.671 117.731 271.03 118.278C271.257 118.609 271.464 118.979 271.633 119.349L271.672 119.387C272.028 120.166 272.305 120.999 272.445 121.831C272.515 122.294 272.565 122.739 272.578 123.164Z" fill="#855D5C"/>
<path d="M361.278 242.974L322.84 265.166C317.365 268.327 309.083 268.67 304.341 265.933L302.41 264.818C297.669 262.081 298.263 257.299 303.738 254.138L342.176 231.946C347.651 228.785 355.933 228.442 360.675 231.179L362.606 232.294C367.348 235.032 366.753 239.813 361.278 242.974Z" fill="#484F77"/>
<path d="M320.402 255.979C322.9 257.421 322.815 259.637 320.188 261.153C317.562 262.67 313.725 262.719 311.227 261.277C308.743 259.842 308.863 257.647 311.489 256.131C314.116 254.613 317.93 254.551 320.402 255.979ZM313.516 259.97C314.905 260.772 317.054 260.769 318.313 260.042C319.584 259.308 319.529 258.102 318.14 257.3C316.751 256.498 314.687 256.481 313.415 257.214C312.145 257.947 312.127 259.168 313.516 259.97Z" fill="white"/>
<path d="M330.878 254.87L327.278 254.218L327.23 254.246L325.632 255.168L327.996 256.533L325.781 257.811L317.24 252.88L321.053 250.679C323.304 249.379 325.684 249.271 327.584 250.368C328.875 251.114 329.294 251.97 328.825 252.831L333.383 253.422L330.878 254.87ZM323.854 254.142L325.463 253.212C326.359 252.695 326.416 252.127 325.551 251.628C324.711 251.143 323.74 251.183 322.844 251.699L321.235 252.629L323.854 254.142Z" fill="white"/>
<path d="M338.44 245.565C340.987 247.035 340.866 249.103 338.118 250.69L334.548 252.752L326.007 247.82L329.662 245.71C332.349 244.159 335.906 244.103 338.44 245.565ZM336.201 246.887C334.727 246.035 332.771 246.011 331.428 246.787L330.036 247.59L334.958 250.432L336.459 249.566C337.742 248.824 337.664 247.73 336.201 246.887Z" fill="white"/>
<path d="M341.971 238.604L343.75 239.631L339.271 242.217L340.867 243.138L344.91 240.804L346.677 241.825L342.646 244.166L344.254 245.095L348.854 242.44L350.633 243.466L343.819 247.401L335.278 242.47L341.971 238.604Z" fill="white"/>
<path d="M357.085 239.739L353.486 239.087L353.437 239.115L351.839 240.037L354.203 241.402L351.988 242.681L343.447 237.749L347.26 235.548C349.512 234.248 351.891 234.141 353.791 235.237C355.082 235.983 355.501 236.839 355.032 237.701L359.59 238.291L357.085 239.739ZM350.062 239.011L351.671 238.081C352.567 237.564 352.624 236.996 351.76 236.497C350.919 236.012 349.948 236.052 349.052 236.569L347.443 237.498L350.062 239.011Z" fill="white"/>
<defs>
<linearGradient id="paint0_linear_506_395" x1="87.1378" y1="222.792" x2="413.877" y2="213.845" gradientUnits="userSpaceOnUse">
<stop stop-color="#737373"/>
<stop offset="0.0405" stop-color="#868686"/>
<stop offset="0.6188" stop-color="#868686"/>
<stop offset="0.6336" stop-color="#989898"/>
<stop offset="0.6523" stop-color="#A9A9A9"/>
<stop offset="0.6663" stop-color="#AFAFAF"/>
<stop offset="0.7071" stop-color="#DEDEDE"/>
<stop offset="0.9766" stop-color="#DEDEDE"/>
<stop offset="1" stop-color="#F9F9F9"/>
</linearGradient>
<linearGradient id="paint1_linear_506_395" x1="86.9771" y1="216.922" x2="413.256" y2="207.988" gradientUnits="userSpaceOnUse">
<stop stop-color="#B3B3B3"/>
<stop offset="0.0405" stop-color="#BDBDBD"/>
<stop offset="0.6188" stop-color="#BDBDBD"/>
<stop offset="0.6206" stop-color="#BEBEBE"/>
<stop offset="0.6466" stop-color="#CFCFCF"/>
<stop offset="0.6663" stop-color="#D5D5D5"/>
<stop offset="0.7071" stop-color="#F0F0F0"/>
<stop offset="0.9766" stop-color="#F0F0F0"/>
<stop offset="1" stop-color="white"/>
</linearGradient>
</defs>
</svg>
