<?xml version="1.0" encoding="utf-8"?>
<!-- Generator: Adobe Illustrator 27.5.0, SVG Export Plug-In . SVG Version: 6.00 Build 0)  -->
<svg version="1.1" xmlns="http://www.w3.org/2000/svg" xmlns:xlink="http://www.w3.org/1999/xlink" x="0px" y="0px"
	 viewBox="0 0 500 500" style="enable-background:new 0 0 500 500;" xml:space="preserve">
<g id="BACKGROUND">
	<rect x="-0.726" y="-0.752" style="fill:#FFFFFF;" width="500.036" height="500.036"/>
</g>
<g id="OBJECTS">
	<rect y="374.099" style="fill:#FFE3E7;" width="500.192" height="125.901"/>
	<circle style="fill:#FFE6EC;" cx="330.776" cy="134.585" r="58.596"/>
	<path style="fill:#F4D4DA;" d="M446.177,213.466c0.186-0.999,0.288-2.028,0.288-3.081c0-9.229-7.482-16.711-16.711-16.711
		c-6.515,0-12.156,3.731-14.912,9.171c-0.891-6.422-6.4-11.367-13.067-11.367c-5.244,0-9.773,3.059-11.901,7.489
		c-0.422-0.064-0.855-0.098-1.295-0.098c-4.726,0-8.556,3.831-8.556,8.556c0,0.148,0.004,0.296,0.011,0.442
		c-0.004,0-0.007,0-0.011,0c-7.202,0-13.36,4.451-15.885,10.75c-2.202-1.178-4.832-1.575-7.447-0.924
		c-5.597,1.394-9.005,7.061-7.611,12.658c1.394,5.597,7.061,9.005,12.658,7.611c1.83-0.456,3.424-1.37,4.694-2.588
		c3.128,4.083,8.05,6.718,13.591,6.718c4.25,0,8.136-1.553,11.129-4.118c3.725,7.028,11.114,11.817,19.622,11.817
		c11.419,0,20.822-8.624,22.056-19.714c1.947,1.983,4.657,3.215,7.656,3.215c5.926,0,10.731-4.804,10.731-10.731
		C451.216,218.727,449.203,215.364,446.177,213.466z"/>
	<g>
		<polygon style="fill:#F4D4DA;" points="47.971,410.626 462.534,410.626 478.923,445.292 26.432,445.292 		"/>
		<g>
			<path style="fill:#612929;" d="M299.586,421.94c-0.099,0-0.199-0.02-0.296-0.063c-0.368-0.163-0.534-0.595-0.371-0.963
				c0.898-2.023,2.804-3.548,4.974-3.981c0.397-0.078,0.779,0.178,0.858,0.573c0.079,0.395-0.178,0.78-0.573,0.859
				c-1.713,0.342-3.217,1.546-3.925,3.142C300.133,421.778,299.866,421.94,299.586,421.94z"/>
		</g>
		<g>
			<path style="fill:#612929;" d="M302.765,424.854c-0.035,0-0.07-0.002-0.105-0.007c-0.399-0.058-0.676-0.428-0.618-0.827
				c0.246-1.705,1.582-3.201,3.249-3.637c0.391-0.101,0.789,0.132,0.891,0.521c0.102,0.39-0.131,0.789-0.521,0.891
				c-1.115,0.292-2.009,1.292-2.174,2.434C303.434,424.591,303.121,424.854,302.765,424.854z"/>
		</g>
		<g>
			<path style="fill:#612929;" d="M140.011,434.658c-0.179,0-0.359-0.066-0.5-0.198l-3.492-3.281
				c-0.294-0.276-0.308-0.738-0.032-1.032c0.276-0.293,0.738-0.308,1.032-0.032l3.492,3.281c0.294,0.276,0.308,0.738,0.032,1.032
				C140.399,434.581,140.205,434.658,140.011,434.658z"/>
		</g>
		<g>
			<path style="fill:#612929;" d="M144.077,433.886c-0.199,0-0.396-0.081-0.541-0.239l-3.562-3.924
				c-0.271-0.299-0.249-0.76,0.05-1.031c0.299-0.271,0.76-0.248,1.031,0.05l3.562,3.924c0.271,0.298,0.248,0.76-0.05,1.031
				C144.427,433.824,144.252,433.886,144.077,433.886z"/>
		</g>
		<g>
			<path style="fill:#612929;" d="M63.21,431.467c-0.393,0-0.718-0.313-0.729-0.709c-0.058-2.071,1.488-4.009,3.52-4.412
				c0.395-0.079,0.779,0.178,0.858,0.574c0.078,0.396-0.178,0.779-0.574,0.858c-1.331,0.264-2.383,1.583-2.345,2.939
				c0.011,0.403-0.306,0.739-0.709,0.75C63.224,431.467,63.218,431.467,63.21,431.467z"/>
		</g>
		<g>
			<path style="fill:#612929;" d="M65.776,433.133c-0.007,0-0.014,0-0.021,0c-0.403-0.012-0.72-0.348-0.709-0.751
				c0.059-2.049,1.769-3.852,3.811-4.02c0.407-0.032,0.754,0.266,0.787,0.668c0.033,0.402-0.266,0.754-0.667,0.787
				c-1.28,0.105-2.435,1.323-2.472,2.607C66.493,432.82,66.169,433.133,65.776,433.133z"/>
		</g>
		<g>
			<path style="fill:#612929;" d="M448.76,428.305c-0.039,0-0.078-0.003-0.118-0.009c-0.398-0.064-0.668-0.439-0.604-0.837
				c0.479-2.96,3.316-5.333,6.306-5.294c0.403,0.005,0.725,0.337,0.72,0.74c-0.005,0.4-0.331,0.72-0.73,0.72
				c-0.021,0-0.044-0.001-0.066-0.001c-2.245,0-4.431,1.851-4.79,4.068C449.422,428.05,449.112,428.305,448.76,428.305z"/>
		</g>
		<g>
			<path style="fill:#612929;" d="M451.92,429.138c-0.132,0-0.265-0.035-0.385-0.11c-0.342-0.213-0.447-0.663-0.234-1.005
				c1.031-1.658,3.094-2.587,5.022-2.261c0.397,0.068,0.665,0.444,0.597,0.842c-0.067,0.397-0.445,0.664-0.842,0.597
				c-1.334-0.227-2.823,0.443-3.538,1.592C452.402,429.016,452.164,429.138,451.92,429.138z"/>
		</g>
	</g>
	<g>
		<polygon style="fill:#E89931;" points="358.572,274.98 370.309,319.638 377.05,319.638 361.785,274.98 		"/>
		<g>
			<path style="fill:#FBB03B;" d="M392.556,413.167l2.973-0.964l0.402-8.195l-2.812-0.964l3.053-0.964l0.08-10.284l-1.687-1.125
				l2.008-3.615l0.563-12.855l-3.374-2.651l2.973-1.767v-11.971l-3.615-1.928v-3.133l2.41-2.169v-9.4l-2.41-3.374l2.41-1.446v-3.555
				l-84.68,2.109l7.174,82.345c0.123,1.412,1.305,2.496,2.723,2.496h74.623l0.08-5.624L392.556,413.167z"/>
			<path style="fill:#E89931;" d="M453.857,331.353l-58.328,1.452v3.555l-2.41,1.446l2.41,3.374v9.4l-2.41,2.169v3.133l3.615,1.928
				v11.971l-2.973,1.767l3.374,2.651l-0.563,12.855l-2.008,3.615l1.687,1.125l-0.08,10.284l-3.053,0.964l2.812,0.964l-0.402,8.195
				l-2.973,0.964l2.892,0.964l-0.08,5.624h49.715c1.86,0,3.4-1.447,3.514-3.304L453.857,331.353z"/>
		</g>
		<path style="fill:#FCBB65;" d="M307.937,337.309l87.591-0.949v-17.354l-88.301,2.211c-0.834,0.021-1.487,0.725-1.445,1.558
			l0.656,13.123C306.479,336.695,307.14,337.318,307.937,337.309z"/>
		<path style="fill:#FBB03B;" d="M454.325,319.979l-58.797-0.972v17.354l58.812-1.568c0.804-0.021,1.445-0.679,1.445-1.484v-11.846
			C455.785,320.652,455.135,319.992,454.325,319.979z"/>
		<path style="fill:#E89931;" d="M420.435,273.106l22.557,49.447c0.354,0.776,1.129,1.275,1.983,1.275h1.926
			c1.126,0,1.857-1.188,1.349-2.193l-25.549-50.566L420.435,273.106z"/>
		<path style="fill:#FCBB65;" d="M405.478,321.598l12.225-45.172l-60.096,1.065l-20.888,42.989h-8.029l27.407-46.862
			c0.44-0.752,1.236-1.224,2.107-1.25l62.858-1.842c1.641-0.048,2.892,1.458,2.543,3.062l-10.708,49.245
			c-0.289,1.33-1.467,2.279-2.828,2.279h-1.899C406.333,325.113,404.999,323.369,405.478,321.598z"/>
		<g>
			<path style="fill:#612929;" d="M395.359,372.942c-0.361-0.501-0.44-1.317-0.006-1.661c0.104-0.082,0.256-0.156,0.418-0.233
				c0.243-0.117,0.518-0.249,0.771-0.471c0.836-0.734,0.846-1.937,0.851-2.583l0.085-10.618l-0.437-0.194
				c-0.189-0.084-0.394-0.167-0.609-0.255c-0.569-0.231-1.215-0.493-1.751-0.868c-0.72-0.503-1.171-1.202-1.207-1.87
				c-0.03-0.56,0.24-1.138,0.69-1.474c0.131-0.098,0.29-0.188,0.458-0.284c0.345-0.195,0.735-0.417,1.046-0.792
				c0.587-0.711,0.611-1.654,0.626-2.278l0.219-8.774l-0.484-0.183c-0.657-0.248-1.38-0.917-1.915-1.743l1.908-1.259
				c-0.247-0.432-0.427-0.902-0.543-1.39l-3.279,2.164l0.289,0.579c0.611,1.224,1.555,2.25,2.541,2.791l-0.194,7.779
				c-0.015,0.581-0.047,1.087-0.293,1.385c-0.139,0.168-0.371,0.3-0.64,0.452c-0.201,0.113-0.408,0.231-0.612,0.384
				c-0.842,0.63-1.33,1.672-1.273,2.722c0.061,1.129,0.728,2.218,1.828,2.988c0.671,0.469,1.397,0.764,2.038,1.024
				c0.043,0.017,0.085,0.035,0.128,0.052l-0.078,9.651c-0.005,0.578-0.036,1.218-0.354,1.497c-0.103,0.09-0.267,0.169-0.441,0.253
				c-0.216,0.104-0.46,0.221-0.69,0.404c-1.145,0.906-1.033,2.604-0.273,3.659c0.584,0.81,1.432,1.293,2.272,1.74l-0.485,9.786
				c-0.046,0.918-0.118,1.721-0.545,2.253c-0.199,0.247-0.498,0.473-0.815,0.712c-0.639,0.482-1.435,1.081-1.525,2.111
				c-0.069,0.778,0.343,1.589,1.074,2.116c0.376,0.272,0.815,0.464,1.28,0.564l-0.021,7.617c-1.731,0.198-2.813,1.025-2.874,2.243
				c-0.047,0.931,0.548,1.619,1.026,2.172c0.062,0.072,0.124,0.143,0.184,0.215c1.378,1.646,1.739,4.101,0.925,6.086l-2.927,0.669
				l0.168,0.715c0.373,1.586,1.531,2.943,3.02,3.587l-0.053,2.931c-0.007,0.403,0.314,0.736,0.717,0.743c0.004,0,0.009,0,0.013,0
				c0.397,0,0.722-0.318,0.729-0.717l0.072-4l-0.527-0.16c-0.995-0.303-1.855-1.075-2.304-2.021l2.113-0.483l0.153-0.314
				c1.232-2.534,0.829-5.812-0.98-7.972c-0.064-0.077-0.131-0.154-0.199-0.232c-0.354-0.41-0.69-0.798-0.672-1.144
				c0.03-0.598,1.138-0.887,2.155-0.902l0.717-0.011l0.029-10.393l-0.726-0.006c-0.425-0.003-0.837-0.134-1.163-0.369
				c-0.306-0.221-0.497-0.544-0.474-0.804c0.031-0.357,0.38-0.644,0.949-1.073c0.374-0.282,0.762-0.574,1.075-0.963
				c0.758-0.944,0.82-2.187,0.865-3.095l0.531-10.71l-0.645-0.345C396.523,373.924,395.784,373.532,395.359,372.942z"/>
			<path style="fill:#612929;" d="M455.526,334.618h0.002H455.526z"/>
		</g>
		<g>
			<path style="fill:#612929;" d="M318.03,353.819c-0.371,0-0.689-0.282-0.725-0.659l-0.954-9.754
				c-0.039-0.401,0.254-0.758,0.655-0.797c0.398-0.041,0.758,0.254,0.797,0.655l0.954,9.754c0.04,0.401-0.254,0.758-0.655,0.797
				C318.078,353.818,318.054,353.819,318.03,353.819z"/>
		</g>
		<g>
			<path style="fill:#612929;" d="M320.788,351.357c-0.376,0-0.695-0.288-0.726-0.669l-0.52-6.244
				c-0.034-0.402,0.265-0.754,0.667-0.788c0.407-0.036,0.754,0.265,0.788,0.667l0.52,6.244c0.034,0.402-0.265,0.755-0.667,0.788
				C320.828,351.357,320.808,351.357,320.788,351.357z"/>
		</g>
		<g>
			<path style="fill:#612929;" d="M321.206,351.125c-0.346,0-0.653-0.247-0.717-0.6l-0.892-4.941
				c-0.072-0.397,0.192-0.776,0.588-0.848c0.396-0.071,0.776,0.192,0.848,0.588l0.892,4.941c0.072,0.397-0.192,0.776-0.588,0.848
				C321.293,351.121,321.249,351.125,321.206,351.125z"/>
		</g>
		<g>
			<path style="fill:#612929;" d="M386.975,410.957c-0.014,0-0.029,0-0.043-0.001c-0.402-0.023-0.71-0.368-0.686-0.771l0.858-14.783
				c0.023-0.402,0.365-0.704,0.771-0.686c0.402,0.023,0.71,0.368,0.686,0.771l-0.858,14.783
				C387.68,410.657,387.358,410.957,386.975,410.957z"/>
		</g>
		<g>
			<path style="fill:#612929;" d="M384.094,408.009c-0.015,0-0.031-0.001-0.046-0.001c-0.402-0.025-0.708-0.372-0.683-0.774
				l0.514-8.251c0.025-0.402,0.372-0.705,0.774-0.683c0.402,0.025,0.708,0.371,0.683,0.774l-0.514,8.251
				C384.798,407.711,384.477,408.009,384.094,408.009z"/>
		</g>
		<g>
			<path style="fill:#612929;" d="M403.885,341.988c-0.375,0-0.694-0.288-0.727-0.668c-0.034-0.402,0.264-0.755,0.666-0.788
				l15.348-1.295c0.401-0.037,0.755,0.264,0.788,0.666c0.034,0.401-0.264,0.754-0.666,0.788l-15.348,1.295
				C403.926,341.987,403.905,341.988,403.885,341.988z"/>
		</g>
		<g>
			<path style="fill:#612929;" d="M409.018,345.099c-0.376,0-0.696-0.289-0.727-0.67c-0.033-0.402,0.266-0.754,0.668-0.787
				l8.266-0.674c0.402-0.035,0.754,0.266,0.786,0.668c0.033,0.402-0.267,0.754-0.668,0.787l-8.265,0.674
				C409.058,345.099,409.038,345.099,409.018,345.099z"/>
		</g>
		<g>
			<path style="fill:#612929;" d="M369.617,333.217c-1.154,0-2.305-0.019-3.456-0.058c-0.403-0.014-0.718-0.351-0.705-0.754
				c0.014-0.403,0.347-0.715,0.754-0.705c5.719,0.193,11.493-0.102,17.163-0.875c0.396-0.054,0.767,0.225,0.822,0.625
				c0.054,0.399-0.225,0.767-0.624,0.822C378.96,332.901,374.28,333.217,369.617,333.217z"/>
		</g>
		<g>
			<path style="fill:#612929;" d="M369.468,329.945c-0.37,0-0.688-0.281-0.725-0.658c-0.04-0.401,0.253-0.758,0.654-0.798
				l8.19-0.815c0.405-0.038,0.759,0.253,0.799,0.654c0.04,0.401-0.253,0.759-0.654,0.799l-8.191,0.816
				C369.517,329.944,369.492,329.945,369.468,329.945z"/>
		</g>
	</g>
	<g>
		<path style="fill:#F7931E;" d="M81.355,314.469c0,0-8.639,15.785-6.871,28.961c1.768,13.176,14.301,25.87,14.301,25.87
			l1.878,24.591c0,0-26.301-4.345-30.64-7.719c-4.339-3.374-1.125-5.979-1.125-5.979s-8.034-9.928-6.749-13.464
			s6.267-2.792,6.267-2.792s-5.624-17.615-3.214-21.471c2.41-3.856,7.231-1.928,7.231-1.928s-3.047-12.694-1.443-14.783
			s5.139,0.643,5.139,0.643S70.712,312.503,81.355,314.469z"/>
		<path style="fill:#F7931E;" d="M264.465,310.287c0,0,1.286-0.654,2.999-1.189c1.714-0.536-1.286-3.856-2.464-4.285
			c-0.936-0.34-4.504-7.432-7.919-13.932c-1.384,0.028-2.794-1.512-2.794-1.512s-1.607,0.447-1.821,2.4
			c-0.214,1.953-5.678-1.092-5.43,0c0.248,1.092-3.621,1.606-3.621,1.606s-5.625-3.131-8.079,0c-1.298,1.655-2.499,0.44-3.342-1.073
			c-3.577,13.47-4.793,29.492,6.687,35.785c21.35,11.705,26.747-11.812,26.747-11.812s2.571,0.536,2.999-1.806
			C268.857,312.128,264.465,310.287,264.465,310.287z"/>
		<path style="fill:#00A99D;" d="M211.975,252.966c0,0,14.931,7.122,21.96,17.465c7.029,10.343-14.659,8.03-14.659,8.03
			l-9.443-17.782L211.975,252.966z"/>
		<path style="fill:#DCEAE9;" d="M127.509,252.549c0,0-15.443,25.483-14.711,55.129c0.732,29.646-4.089,60.015-4.089,60.015
			s6.909,16.711,83.073,16.711c34.226,0,47.321-11.408,47.321-11.408s8.195-81.333-28.2-117.674
			C174.509,218.982,127.509,252.549,127.509,252.549z"/>
		<path style="fill:#8C6239;" d="M189.452,296.159c0,0,0.563,5.762,2.706,6.298c2.142,0.536,9.212,1.714,18.854,1.286
			c9.641-0.429,24.745-2.332,26.888-2.13c2.142,0.202,5.308,0.523,6.189-1.083c0.881-1.607,0.454-6.486-0.671-7.153
			C242.29,292.708,193.387,293.182,189.452,296.159z"/>
		<path style="fill:#F7E4C1;" d="M235.337,293.375c2.454-3.131,8.079,0,8.079,0s3.868-0.514,3.621-1.606
			c-0.248-1.092,5.216,1.953,5.43,0c0.214-1.953,1.821-2.4,1.821-2.4s1.41,1.54,2.794,1.512c-0.886-1.688-1.762-3.335-2.579-4.815
			c-3.964-7.177-12.537-15.635-12.537-15.635l-2.072,0.592c0,0-4.823,9.696-7.899,21.279
			C232.838,293.815,234.039,295.03,235.337,293.375z"/>
		
			<ellipse transform="matrix(0.9982 -0.0596 0.0596 0.9982 -14.5175 10.7406)" style="fill:#00A99D;" cx="172.688" cy="248.594" rx="35.879" ry="21.28"/>
		<path style="fill:#F7931E;" d="M108.87,185.961c0,0-3.535-31.333,0-33.904c3.535-2.571,23.62,10.123,26.834,12.533
			c3.214,2.41,9.641-3.535,10.123-3.535c0.482,0,3.053,0.964,2.089,2.41c-0.964,1.446,15.908-14.301,15.586-10.123
			c-0.321,4.178-1.928,6.267-1.928,6.267s20.085-8.195,17.193-4.66c-2.892,3.535-4.499,4.66-4.499,4.66l7.391,0.482
			c0,0,17.193-14.783,22.817-13.819s2.732,26.673,2.732,26.673s5.624,5.785,9.159,13.015c3.535,7.231,3.696,11.087,3.696,11.087
			s14.301-0.482,11.73,3.053c-2.571,3.535-3.696,4.82-3.696,4.82s3.672-1.768,4.005,0c0.333,1.768-5.451,6.909-5.451,6.909
			s5.145-1.768,5.465,0.803c0.319,2.571-6.59,8.356-6.59,8.356s6.909-2.41,7.391,0c0.482,2.41-8.195,10.926-9.802,11.248
			c-1.607,0.321,3.696,1.125,3.696,1.768s-6.106,1.607-6.106,1.607s4.981,3.535,4.66,4.66c-0.321,1.125-4.017,1.277-4.017,1.277
			s2.571,2.901,1.768,4.347c-0.803,1.446-5.624,0-5.624,0l-2.25,3.903c0,0,4.66,2.203,2.25,4.613
			c-2.41,2.41-4.339,1.928-4.339,1.928s1.446,4.82-7.874,0.964c0,0-3.696,9.802-12.373,4.338c0,0-17.514,4.097-32.458,2.932
			c0,0-8.998,4.7-7.873,0c0,0-4.339,5.423-4.981,0.763c-0.643-4.66-4.017-6.427-4.017-6.427s-20.567-0.482-24.906-5.142
			c0,0-11.409,5.463-13.497,3.856c-2.089-1.607,3.856-11.73,3.856-11.73s-10.444,4.178-10.926,0.803
			c-0.482-3.374,4.178-7.07,4.178-7.07s-8.998,3.856-9.159,0c-0.161-3.856,6.106-6.588,6.106-6.588s-12.373-0.803-11.087-4.338
			c1.285-3.535,8.516-3.856,8.516-3.856s-12.212-5.785-11.569-7.391c0.643-1.607,19.764-8.516,22.174-12.051
			C109.673,201.869,108.87,185.961,108.87,185.961z"/>
		<path style="fill:#F7E4C1;" d="M114.654,176.481c0,0-4.178-13.337,0-16.229c4.178-2.892,15.586,8.115,15.586,8.115
			S123.653,169.089,114.654,176.481z"/>
		<path style="fill:#F7E4C1;" d="M188.247,159.768c0,0,11.569-8.514,14.462-7.068c2.892,1.446,0.803,15.424,0.803,15.424
			S196.764,161.533,188.247,159.768z"/>
		<path style="fill:#C1272D;" d="M107.888,204.016c0,0-5.178,1.067-5.178-5.682c0-6.749,6.287-6,6.287-6s28.956-0.32,31.634-0.855
			v6.18c0,0-24.286-1.044-31.693-2.219c0,0-4.914,1.43-0.429,5.59L107.888,204.016z"/>
		<g>
			<path style="fill:#C1272D;" d="M170.197,195.763c0,0,11.141-4.178,20.782,0v3.107c0,0-5.999-4.285-20.782,0.964V195.763z"/>
		</g>
		<path style="fill:#FFAF5F;" d="M190.979,187.514v13.567c0,3.748,2.989,6.786,6.676,6.786h18.343c2.245,0,4.065-1.85,4.065-4.132
			v-16.221H190.979z"/>
		<path style="fill:#F7931E;" d="M169.769,312.954c-2.678-0.643-0.803-4.713-0.803-4.713s-3.053,0.75-5.624-0.398
			c-2.571-1.148,0.643-5.815,0.643-5.815s-5.463,1.607-6.856,0c-1.393-1.607,2.999-5.356-2.035-3.732
			c-2.961,0.955-3.476-1.035-3.398-2.836c-1.852,1.082-3.786,2.065-5.868,2.836c-8.384,3.104-11.113-0.887-11.515-1.584
			c-0.027-0.046-0.092-0.05-0.123-0.007c-1.1,1.506-14.948,20.697-9.392,39.447l0.061,0.209v0c3.891,3.846,6.24,2.196,6.24,2.196
			s0,3.856,0.857,5.035c0.857,1.178,2.999-3.321,2.999-3.321s1.928,4.392,3.642,4.392c1.714,0,2.25-4.499,2.25-4.499
			s4.392,4.285,5.57,3.856c1.178-0.428-0.348-4.044-0.348-4.044c8.69-0.61,20.429-15.006,27.886-25.507l0.347-2.586
			C174.301,311.883,172.447,313.597,169.769,312.954z"/>
		<path style="fill:#00A99D;" d="M134.258,296.611c-17.836-16.129-10.714-36.381-10.714-36.381
			c-46.866,34.016,1.309,76.126,1.314,76.13v0C119.073,316.838,134.258,296.611,134.258,296.611z"/>
		<path style="fill:#FF0000;" d="M198.48,296.443c0,0-0.762,6.157,8.376,5.836c9.138-0.321,10.153-5.836,10.153-5.836H198.48z"/>
		<path style="fill:#FF0000;" d="M219.276,296.687c0,0,2.566,5.227,13.828,3.486c11.262-1.741,7.28-6.373,7.28-6.373
			L219.276,296.687z"/>
		<path style="fill:#F7E4C1;" d="M270.358,422.878c0,0,12.96,3.84,20.352-7.729c7.391-11.569,17.088-41.384,8.677-45.42
			c0,0-0.535-3.749-4.928-3.642C290.067,366.194,270.358,422.878,270.358,422.878z"/>
		<g>
			<path style="fill:#C1272D;" d="M215.998,209.327h-18.343c-4.486,0-8.135-3.699-8.135-8.246v-15.027h32.003v17.681
				C221.522,206.819,219.044,209.327,215.998,209.327z M192.438,188.974v12.107c0,2.937,2.34,5.327,5.216,5.327h18.343
				c1.437,0,2.605-1.199,2.605-2.673v-14.762H192.438z"/>
		</g>
		<path style="fill:#F7E4C1;" d="M171.858,256.983c0,0,12.051,9.962,22.335-0.803c0,0,19.282-8.677,22.817-25.388
			c0,0-9.394-19.121-20.765-23.138c0,0-2.855-9.159-11.372-9.962c-8.516-0.803-17.997,13.176-17.997,13.176
			s-16.229,4.017-30.851,20.407C136.025,231.274,140.364,256.501,171.858,256.983z"/>
		<path style="fill:#EF795E;" d="M190.336,212.474c0,0-6.106-4.66-8.677,0c-2.571,4.66,5.785,11.569,8.677,11.89
			C190.336,224.364,191.782,216.17,190.336,212.474z"/>
		<path style="fill:#E56A55;" d="M196.245,211.188c0,0,2.126,10.444-5.908,13.176c0,0,1.286-7.713,0-11.89
			C190.336,212.474,194.601,207.493,196.245,211.188z"/>
		<path style="fill:#772C32;" d="M168.965,239.951c0,0,20.806-2.569,21.371-12.855c0,0,1.768,3.856,7.07,7.231
			c0,0-5.873,11.553-6.427,18.222c-0.555,6.669-8.837,6.041-8.837,6.041S173.143,255.537,168.965,239.951z"/>
		<path style="fill:#F15A24;" d="M183.186,250.877c0,0-3.929-7.466-11.565-3.653c0,0,4.053,9.049,10.521,11.365
			c0,0,1.372,0.03,2.092-0.075C184.233,258.515,184.933,255.115,183.186,250.877z"/>
		<path style="fill:#F9EDE1;" d="M174.14,238.962c0,0,0.932,4.149,3.235,4.149c2.303,0,3.246-6.186,3.246-6.186
			S176.392,238.467,174.14,238.962z"/>
		<path style="fill:#F9EDE1;" d="M194.66,232.288c0,0,1.702,1.436,4.982,2.266c0,0-0.803,5.035-3.106,5.142
			C194.233,239.803,194.66,232.288,194.66,232.288z"/>
		<path style="fill:#F9EDE1;" d="M190.979,252.549c0,0-0.857-2.918-2.142-2.75c-1.286,0.168-0.836,7.557-0.836,7.557
			S190.798,256.16,190.979,252.549z"/>
		<path style="fill:#FFAF5F;" d="M140.632,187.514v13.567c0,3.748,3.038,6.786,6.786,6.786h18.647c2.282,0,4.132-1.85,4.132-4.132
			v-16.221H140.632z"/>
		<g>
			<path style="fill:#C1272D;" d="M166.065,209.327h-18.647c-4.547,0-8.246-3.699-8.246-8.246v-15.027h32.485v17.681
				C171.657,206.819,169.148,209.327,166.065,209.327z M142.091,188.974v12.107c0,2.937,2.39,5.327,5.327,5.327h18.647
				c1.474,0,2.673-1.199,2.673-2.673v-14.762H142.091z"/>
		</g>
		<path style="fill:#F9EDE1;" d="M177.645,255.723c0,0,0.487-3.614,1.88-3.667c1.393-0.054,1.772,6.187,1.772,6.187
			S179.257,257.362,177.645,255.723z"/>
		<path style="fill:#7C3606;" d="M189.452,293.565c0,0,2.212,3.783,6.422,4.73c4.21,0.947,24.778-0.231,28.206-0.981
			c3.428-0.75,15.426-0.745,17.997-1.551c2.571-0.806,0.75-7.662,0.75-7.662S193.816,287.995,189.452,293.565z"/>
		<path style="fill:#8CC621;" d="M191.515,291.53c0,0,2.077,2.678,4.359,2.357c2.282-0.321,3.568-0.911,5.014,0.027
			c1.446,0.937,4.553,2.437,6.16,1.044c1.607-1.393,4.178-2.785,4.178-2.785s2.464,0.245,3.428,1.354
			c0.964,1.109,2.785,2.97,3.856,1.933c1.071-1.038,2.999-3.716,3.964-3.93c0.964-0.214,3.321,2.306,5.57,2.117
			c2.25-0.189,3.467-2.867,4.893-2.76c1.427,0.107,1.748,1.361,3.462,1.859c1.714,0.498,2.812-1.109,3.495-1.431
			c0.683-0.321,2.825-0.97,4.004-0.432c1.178,0.539,2.25,0.655,2.892-0.206c0.643-0.862,0.321-5.357-4.499-5.734
			c-4.821-0.377-40.291,2.087-40.291,2.087L191.515,291.53z"/>
		<path style="fill:#C69C6D;" d="M195.874,283.067c1.639,0.857,21.886-0.214,24.456-0.536c2.571-0.321,20.46-0.536,23.567-2.785
			l-12.105-7.82c0,0-25.025-1.821-35.919,2.999c0,0-1.034,3.296-1.361,6.665C194.948,282.27,195.416,282.828,195.874,283.067z"/>
		<path style="fill:#8C6239;" d="M194.835,286.495c0,0,0.235,3.535,3.546,3.642c3.31,0.107,45.088-1.928,45.516-3.642
			c0.428-1.714,0-6.749,0-6.749c-3.107,2.25-20.996,2.464-23.567,2.785c-2.571,0.321-22.817,1.393-24.456,0.536
			c-0.458-0.24-0.926-0.797-1.361-1.477C194.341,283.362,194.364,285.153,194.835,286.495z"/>
		<path style="fill:#F7E4C1;" d="M243.897,279.746l-4.368-2.822c0,0-9.022,2.929-12.236,1.965c-3.214-0.964-3.321-4.178-3.321-4.178
			s-0.857,1.178-2.464,0c-1.607-1.178,0-3.121,0-3.121l-3.108,0.02c0,0,1.607-6.004,12.748-5.04
			c11.142,0.964,12.748,6.536,12.748,6.536S245.825,276.961,243.897,279.746z"/>
		<path style="fill:#F7E4C1;" d="M201.986,276.78c-0.482-4.386-4.579-3.915-4.579-3.915c-2.169-4.204-9.159,0.107-9.159,0.107
			c-6.026-1.446-18.05,12.292-18.05,12.292c-6.87,1.676-12.206,6.517-18.503,10.197c-0.078,1.801,0.437,3.79,3.398,2.836
			c5.035-1.624,0.643,2.126,2.035,3.732c1.393,1.607,6.856,0,6.856,0s-3.214,4.667-0.643,5.815c2.571,1.148,5.624,0.398,5.624,0.398
			s-1.875,4.071,0.803,4.713c2.678,0.643,4.533-1.071,4.533-1.071l-0.347,2.586c4.333-6.101,7.221-10.888,7.221-10.888
			C190.251,304.063,202.468,281.166,201.986,276.78z"/>
		<g>
			<path style="fill:#F7931E;" d="M299.387,369.729c-1.102-0.957-2.996-0.414-2.996-0.414s1.175-0.978-1.931-3.228
				c-3.107-2.25-5.999,1.607-5.999,1.607c-5.356-2.25-11.891,11.355-11.891,11.355s-11.144-1.907-18.107-3.086
				c-6.963-1.178-19.359-2.966-19.359-2.966c-0.915,0.61-5.416,2.59-13.904,4.631c-2.296,3.395-4.867,7.24-5.941,9.012
				c-2.142,3.535-12.212,11.355-16.818,12.962c-4.606,1.607-25.924,0.964-29.887-1.714c-3.964-2.678-13.604-9.534-18.532-12.747
				c-1.808-1.179-4.669-3.296-7.566-5.503c-10.895-1.506-18.442-3.036-18.442-3.036s-13.627-8.908-19.304-8.908
				c-5.677,0-17.247,6.642-17.247,6.642c-2.678,5.035,1.5,52.276,10.498,54.204c8.998,1.928,29.994-6.427,30.53-6.534
				s14.033,5.249,18.961,4.928c4.928-0.321,12.64-1.928,12.64-1.928c17.247,6.213,52.811,0.428,58.274-2.124
				c5.463-2.553,27.53-3.981,27.53-3.981l12.855,1.714c14.569,8.355,25.495-7.606,32.994-27.852
				C303.243,372.514,300.817,370.972,299.387,369.729z"/>
			<path style="fill:#F7E4C1;" d="M172.554,397.888c3.964,2.678,25.281,3.321,29.887,1.714c4.606-1.607,14.676-9.427,16.818-12.962
				c1.074-1.772,3.644-5.618,5.941-9.012c-7.163,1.723-17.166,3.488-30.256,4.509c-15.91,1.241-34.83-0.611-48.488-2.5
				c2.898,2.207,5.758,4.324,7.566,5.503C158.949,388.354,168.59,395.21,172.554,397.888z"/>
		</g>
		<path style="fill:#F7931E;" d="M116.85,387.518c0,0-2.035-23.479-15.104-23.58c-13.069-0.101,7.552,31.929,7.552,31.929
			l-14.405,33.893c0,0,17.458,4.886,21.422-15.146C120.278,394.581,116.85,387.518,116.85,387.518z"/>
		<path style="fill:#F7E4C1;" d="M74.002,380.977c0,0,3.214-11.141,7.07-12.533c3.856-1.393,3.856,0.536,3.856,0.536
			s1.821-5.249,6.749-5.035c4.928,0.214,5.035,3.749,5.035,3.749s1.285-4.928,5.999-3.214c4.713,1.714,8.57,15.854,8.57,15.854
			s11.783,42.42-9.32,48.205C80.857,434.324,66.396,420.719,74.002,380.977z"/>
		<path style="fill:#EF795E;" d="M88.249,394.26c0,0-10.391,1.071-10.069,11.034c0.321,9.962,6.261,17.675,15.075,17.247
			c8.813-0.429,12.925-10.153,13.306-15.64C106.941,401.414,104.96,391.154,88.249,394.26z"/>
		<path style="fill:#EF795E;" d="M81.278,373.705c-0.96,0.04-1.759,0.755-2.005,1.684c-0.821,3.099-2.799,12.182,1.156,15.551
			C84.83,394.689,86.833,373.472,81.278,373.705z"/>
		<path style="fill:#EF795E;" d="M93.126,372.514c-1.016-1.269-3.063-0.825-3.546,0.728c-1.13,3.64-3.532,12.902,0.489,15.126
			C94.161,390.631,96.271,376.441,93.126,372.514z"/>
		<path style="fill:#EF795E;" d="M103.672,374.468c-0.966-1.91-3.732-1.8-4.575,0.168c-1.92,4.479-4.431,12.28,1.043,12.883
			C105.954,388.159,106.106,379.28,103.672,374.468z"/>
		<g>
			<path style="fill:#612929;" d="M201.255,235.637c-0.537,0-1.082-0.047-1.627-0.143c-2.303-0.405-4.613-1.632-6.865-3.645
				c-0.728-0.65-1.776-1.663-2.478-2.942c-0.717-1.307-0.969-2.722-0.71-3.983c0.08-0.395,0.465-0.65,0.861-0.568
				c0.395,0.081,0.649,0.467,0.568,0.861c-0.189,0.923,0.01,1.984,0.56,2.989c0.458,0.835,1.128,1.623,2.171,2.556
				c2.047,1.83,4.115,2.939,6.146,3.296c2.373,0.418,4.8-0.303,6.18-1.836c0.27-0.299,0.731-0.323,1.031-0.054
				c0.299,0.27,0.324,0.731,0.054,1.031C205.737,234.762,203.573,235.637,201.255,235.637z"/>
		</g>
		<g>
			<path style="fill:#612929;" d="M167.551,240.692c-2.223,0-4.443-0.234-6.616-0.712c-0.394-0.087-0.643-0.476-0.556-0.87
				c0.087-0.394,0.477-0.641,0.869-0.556c8.301,1.826,17.349-0.083,24.204-5.107c2.601-1.906,3.952-3.789,4.131-5.756
				c0.036-0.402,0.397-0.698,0.793-0.661c0.401,0.037,0.697,0.391,0.661,0.793c-0.219,2.408-1.763,4.633-4.721,6.801
				C180.922,238.578,174.231,240.692,167.551,240.692z"/>
		</g>
		<g>
			<path style="fill:#612929;" d="M145.991,264.86c-0.128,0-0.257-0.033-0.375-0.104c-2.342-1.405-4.381-3.211-6.059-5.367
				c-0.248-0.318-0.191-0.777,0.128-1.024c0.318-0.248,0.777-0.191,1.024,0.128c1.567,2.014,3.471,3.7,5.658,5.012
				c0.346,0.207,0.458,0.655,0.25,1.001C146.481,264.733,146.239,264.86,145.991,264.86z"/>
		</g>
		<g>
			<path style="fill:#612929;" d="M170.09,270.51c-6.86,0-13.712-1.173-20.103-3.545c-0.378-0.14-0.57-0.56-0.43-0.938
				c0.14-0.378,0.56-0.57,0.938-0.43c14.422,5.351,31.251,4.446,45.016-2.423c0.361-0.18,0.799-0.034,0.979,0.327
				c0.18,0.361,0.034,0.799-0.327,0.979C188.143,268.482,179.109,270.51,170.09,270.51z"/>
		</g>
		<g>
			<path style="fill:#612929;" d="M124.893,337.001c-0.333,0-0.634-0.23-0.711-0.569c-1.57-6.931-1.519-14.371,0.148-21.517
				c1.608-6.892,4.685-13.364,8.916-18.768c-4.857-3.737-8.512-8.961-10.331-14.791c-0.12-0.385,0.095-0.794,0.479-0.914
				c0.385-0.12,0.794,0.095,0.914,0.479c1.801,5.774,5.497,10.925,10.406,14.503l0.621,0.453l-0.484,0.597
				c-4.337,5.35-7.483,11.842-9.101,18.774c-1.617,6.932-1.668,14.146-0.146,20.863c0.089,0.393-0.158,0.784-0.55,0.873
				C125.001,336.995,124.947,337.001,124.893,337.001z"/>
		</g>
		<g>
			<path style="fill:#612929;" d="M200.618,274.491c-0.316,0-0.608-0.207-0.701-0.526c-0.113-0.387,0.11-0.792,0.497-0.905
				c6.637-1.93,13.776-2.54,20.644-1.765c0.401,0.045,0.689,0.407,0.644,0.807c-0.045,0.401-0.405,0.689-0.807,0.644
				c-6.679-0.754-13.62-0.16-20.073,1.716C200.754,274.482,200.686,274.491,200.618,274.491z"/>
		</g>
		<g>
			<path style="fill:#612929;" d="M244.317,280.476c-0.05-0.172-0.109-0.352-0.181-0.51c-0.103-0.225-0.229-0.475-0.388-0.666
				c-0.091-0.11-0.156-0.138-0.241-0.183c-0.343-0.186-0.524-0.456-0.582-0.744c-0.929-0.798-1.996-1.426-3.156-1.84
				c-0.379-0.135-0.797,0.063-0.933,0.442c-0.136,0.38,0.062,0.797,0.442,0.933c0.993,0.355,1.91,0.89,2.705,1.574
				c-13.728,1.657-27.697,2.799-41.544,3.396c-0.403,0.017-0.715,0.358-0.698,0.76c0.017,0.392,0.34,0.698,0.729,0.698
				c0.01,0,0.021,0,0.032-0.001c14.379-0.62,28.889-1.826,43.127-3.585l0.734-0.091
				C244.348,280.598,244.335,280.537,244.317,280.476z"/>
		</g>
		<g>
			<path style="fill:#612929;" d="M196.346,290.989c-0.388,0-0.711-0.306-0.729-0.697c-0.018-0.403,0.294-0.744,0.696-0.762
				l38.962-1.752c2.059-0.093,4.622-0.208,6.468-1.48c0.964-0.664,1.684-1.837,1.835-2.988c0.075-0.576,0.041-1.408-0.548-2.097
				c-0.262-0.307-0.226-0.767,0.08-1.029c0.306-0.262,0.767-0.226,1.029,0.08c0.732,0.856,1.046,2.005,0.886,3.235
				c-0.205,1.566-1.145,3.099-2.454,4.001c-2.191,1.509-4.985,1.635-7.23,1.736l-38.962,1.752
				C196.368,290.988,196.357,290.989,196.346,290.989z"/>
		</g>
		<g>
			<path style="fill:#612929;" d="M217.736,296.25c-0.989,0-2.074-0.472-3.241-1.413c-0.102-0.082-0.204-0.166-0.307-0.25
				c-0.88-0.72-1.711-1.4-2.646-1.435c-0.997-0.036-1.937,0.671-2.931,1.422c-1.199,0.906-2.558,1.932-4.222,1.6
				c-0.828-0.165-1.495-0.646-2.083-1.071c-0.46-0.332-0.895-0.646-1.355-0.788c-0.8-0.247-1.762-0.03-2.781,0.201
				c-1.443,0.326-3.079,0.695-4.335-0.464c-0.296-0.273-0.315-0.735-0.042-1.031c0.273-0.296,0.735-0.315,1.031-0.042
				c0.646,0.596,1.574,0.44,3.024,0.113c1.106-0.249,2.361-0.533,3.532-0.171c0.689,0.213,1.243,0.612,1.779,0.999
				c0.513,0.37,0.997,0.72,1.514,0.823c1.022,0.205,1.965-0.508,3.056-1.333c1.1-0.831,2.35-1.774,3.865-1.715
				c1.425,0.053,2.536,0.962,3.516,1.764c0.1,0.082,0.199,0.163,0.298,0.243c1.165,0.939,2.126,1.272,2.86,0.992
				c0.556-0.213,0.975-0.785,1.419-1.391c0.533-0.728,1.137-1.553,2.124-1.906c1.405-0.503,2.696,0.203,3.834,0.826
				c0.884,0.484,1.718,0.94,2.509,0.841c0.728-0.091,1.461-0.669,2.17-1.228c1.083-0.854,2.31-1.822,3.825-1.253
				c0.623,0.234,1.076,0.687,1.475,1.086c0.372,0.372,0.692,0.693,1.051,0.766c0.534,0.11,1.008-0.292,1.739-0.955
				c0.568-0.515,1.212-1.099,2.025-1.346c1.015-0.308,2.042-0.02,2.948,0.234c0.9,0.252,1.677,0.469,2.25,0.118
				c0.672-0.412,0.704-1.545,0.283-2.284c-0.525-0.922-1.567-1.546-2.486-2.097c-0.346-0.207-0.458-0.655-0.251-1.001
				c0.207-0.346,0.655-0.458,1.001-0.251c1.02,0.611,2.289,1.372,3.004,2.627c0.769,1.349,0.635,3.379-0.788,4.251
				c-1.115,0.683-2.332,0.343-3.406,0.043c-0.784-0.219-1.524-0.427-2.132-0.242c-0.499,0.151-0.97,0.578-1.468,1.03
				c-0.809,0.734-1.724,1.567-3.01,1.304c-0.79-0.16-1.323-0.694-1.793-1.165c-0.323-0.323-0.628-0.629-0.955-0.751
				c-0.707-0.266-1.377,0.219-2.409,1.033c-0.825,0.65-1.761,1.387-2.891,1.529c-1.26,0.158-2.391-0.462-3.391-1.009
				c-0.994-0.544-1.852-1.014-2.642-0.731c-0.565,0.202-0.989,0.781-1.438,1.394c-0.524,0.715-1.117,1.525-2.074,1.892
				C218.454,296.185,218.102,296.25,217.736,296.25z"/>
		</g>
		<g>
			<path style="fill:#612929;" d="M206.889,304.535c-3.442,0-6.882-0.08-10.316-0.24c-1.916-0.09-3.913-0.279-5.417-1.495
				c-0.956-0.773-1.545-2.08-1.501-3.33c0.035-1,0.467-1.838,1.214-2.359c0.331-0.23,0.786-0.149,1.016,0.181
				c0.23,0.33,0.149,0.785-0.181,1.016c-0.464,0.323-0.577,0.838-0.59,1.214c-0.028,0.795,0.357,1.656,0.96,2.143
				c1.162,0.94,2.823,1.09,4.567,1.172c14.723,0.686,29.573-0.111,44.136-2.368c0.994-0.154,1.865-0.323,2.461-0.833
				c0.632-0.54,0.953-1.505,0.858-2.581c-0.094-1.064-0.543-2.112-0.977-3.125c-0.159-0.371,0.013-0.799,0.383-0.958
				c0.37-0.158,0.799,0.013,0.958,0.383c0.457,1.066,0.975,2.275,1.089,3.572c0.136,1.545-0.374,2.972-1.364,3.819
				c-0.96,0.821-2.246,1.02-3.186,1.166C229.738,303.657,218.304,304.535,206.889,304.535z"/>
		</g>
		<g>
			<path style="fill:#612929;" d="M188.245,276.004c-0.184,0-0.368-0.069-0.51-0.208c-0.288-0.282-0.294-0.743-0.012-1.032
				c1.283-1.314,2.737-2.804,4.685-3.482c1.944-0.677,4.634-0.296,5.793,1.741c0.199,0.35,0.077,0.796-0.273,0.995
				c-0.35,0.199-0.796,0.077-0.995-0.273c-0.74-1.302-2.638-1.573-4.044-1.084c-1.623,0.565-2.95,1.924-4.12,3.123
				C188.624,275.93,188.434,276.004,188.245,276.004z"/>
		</g>
		<g>
			<path style="fill:#612929;" d="M179.164,304.639c-0.363,0-0.678-0.271-0.723-0.641c-0.049-0.4,0.236-0.764,0.636-0.813
				c6.727-0.822,11.421-5.786,13.621-8.672c3.433-4.505,5.609-9.871,7.714-15.061c0.526-1.297,1.04-2.772,0.482-3.868
				c-0.602-1.181-2.325-1.483-3.576-1.085c-1.486,0.473-2.72,1.687-3.809,2.759c-0.287,0.282-0.749,0.279-1.032-0.008
				c-0.283-0.287-0.279-0.75,0.008-1.032c1.206-1.186,2.572-2.53,4.39-3.109c1.86-0.593,4.358-0.076,5.32,1.813
				c0.837,1.643,0.217,3.483-0.43,5.079c-2.141,5.279-4.354,10.737-7.906,15.397c-4.038,5.298-9.225,8.578-14.605,9.236
				C179.223,304.637,179.193,304.639,179.164,304.639z"/>
		</g>
		<g>
			<path style="fill:#612929;" d="M229.396,279.291c-0.309,0-0.619-0.006-0.93-0.019c-0.839-0.034-1.819-0.124-2.724-0.531
				c-1.043-0.47-1.807-1.324-2.044-2.286c-0.361-1.467,0.51-2.897,1.533-3.663c1.024-0.767,2.258-1.086,3.347-1.367
				c0.392-0.101,0.788,0.134,0.889,0.524c0.101,0.39-0.133,0.788-0.524,0.889c-1.005,0.26-2.044,0.529-2.837,1.123
				c-0.618,0.463-1.191,1.331-0.991,2.146c0.13,0.53,0.589,1.017,1.226,1.304c0.677,0.305,1.484,0.375,2.183,0.404
				c3.495,0.141,6.911-0.607,10.692-1.526c0.392-0.095,0.787,0.145,0.882,0.537c0.095,0.392-0.145,0.786-0.537,0.882
				C236,278.573,232.749,279.291,229.396,279.291z"/>
		</g>
		<g>
			<path style="fill:#612929;" d="M223.225,275.496c-0.255,0-0.516-0.02-0.779-0.071c-0.862-0.17-1.56-0.685-1.867-1.377
				c-0.333-0.749-0.2-1.684,0.348-2.44c0.443-0.611,1.074-1.02,1.632-1.339c1.544-0.883,3.21-1.511,4.953-1.869
				c0.395-0.081,0.781,0.174,0.861,0.568c0.081,0.395-0.173,0.781-0.568,0.861c-1.591,0.326-3.112,0.9-4.521,1.706
				c-0.445,0.254-0.896,0.543-1.175,0.929c-0.236,0.325-0.315,0.723-0.196,0.99c0.112,0.251,0.432,0.462,0.816,0.538
				c0.451,0.089,0.971,0.023,1.474-0.039c0.398-0.049,0.764,0.233,0.815,0.633c0.05,0.4-0.233,0.765-0.633,0.815
				C224.022,275.447,223.631,275.496,223.225,275.496z"/>
		</g>
		<g>
			<path style="fill:#612929;" d="M172.117,324.952c-0.34,0-0.644-0.239-0.715-0.585c-0.08-0.395,0.175-0.78,0.57-0.861
				c14.245-2.888,28.741-3.173,43.088-0.844c0.398,0.064,0.668,0.439,0.603,0.837c-0.065,0.398-0.44,0.667-0.837,0.603
				c-14.173-2.3-28.493-2.02-42.564,0.834C172.214,324.947,172.165,324.952,172.117,324.952z"/>
		</g>
		<g>
			<path style="fill:#612929;" d="M297.444,369.129c-0.073-0.051-0.153-0.087-0.235-0.108c-0.294-1.623-1.433-3.09-3.002-3.675
				c-1.894-0.706-4.154-0.033-5.398,1.536c-1.232-0.27-2.603,0.028-4.001,0.875c-1.315,0.796-2.577,2.052-3.463,3.444
				c-0.296,0.466-0.586,0.956-0.866,1.429c-1.238,2.092-2.407,4.067-4.413,4.789c-1.48,0.532-3.209,0.246-4.733-0.006l-31.513-5.22
				c-0.397-0.065-0.774,0.203-0.839,0.601c-0.066,0.398,0.203,0.773,0.601,0.839l31.513,5.22c0.918,0.152,1.964,0.325,3.033,0.325
				c0.813,0,1.639-0.1,2.433-0.386c2.501-0.9,3.86-3.197,5.175-5.419c0.287-0.485,0.558-0.943,0.842-1.389
				c1.495-2.35,4.252-4.329,6.277-3.572l0.57,0.213l0.312-0.522c0.773-1.293,2.55-1.917,3.962-1.391
				c0.646,0.241,1.189,0.715,1.566,1.3c0.017,0.02,0.035,0.038,0.052,0.06c0.921,1.165,1.174,2.528,1.038,3.897l1.273-1.825
				C297.856,369.814,297.775,369.359,297.444,369.129z"/>
		</g>
		<g>
			<path style="fill:#612929;" d="M92.929,430.856c-2.282,0-4.628-0.49-6.949-1.463c-3.636-1.524-6.912-4.143-9.226-7.373
				c-3.934-5.493-5.883-12.981-5.795-22.258c0.081-8.466,1.624-16.78,4.588-24.711c0.929-2.486,2.1-4.979,4.357-6.375
				c1.39-0.86,3.227-1.059,4.794-0.52c1.238,0.426,2.145,1.273,2.555,2.383c0.139,0.378-0.054,0.798-0.432,0.937
				c-0.377,0.139-0.798-0.054-0.937-0.432c-0.327-0.887-1.084-1.31-1.661-1.509c-1.145-0.394-2.539-0.245-3.551,0.381
				c-1.884,1.165-2.919,3.402-3.758,5.645c-2.904,7.771-4.417,15.918-4.495,24.213c-0.086,8.961,1.772,16.159,5.522,21.395
				c5.228,7.299,13.589,9.345,19.146,7.593l0.122-0.038l0.128,0.005c7.54,0.311,15.636-0.898,23.418-3.502
				c0.529-0.177,1.058-0.361,1.587-0.544c2.386-0.828,4.853-1.684,7.435-1.964c3.415-0.371,6.816,0.282,10.105,0.913
				c0.463,0.089,0.925,0.178,1.387,0.263c10.415,1.933,21.19,2.397,31.61,2.845c14.116,0.607,28.714,1.235,42.644-2.286
				c12.431-4.575,25.984-6.051,39.196-4.269c1.218,0.164,2.462,0.358,3.665,0.546c5.572,0.868,11.333,1.766,16.608,0.074
				c4.644-1.49,9-5.145,12.266-10.289c2.98-4.694,4.843-10.062,6.644-15.252l6.132-17.669c0.443-1.275,0.901-2.594,0.815-3.901
				c-0.069-1.054-0.652-2.349-1.768-2.702c-0.481-0.152-1.102-0.008-1.544,0.359c-0.195,0.162-0.513,0.502-0.457,0.965
				c0.048,0.4-0.237,0.764-0.637,0.812c-0.403,0.048-0.764-0.236-0.813-0.637c-0.102-0.841,0.641-2.6,1.362-3.199
				c0.822-0.682,2.478-0.347,3.428-0.047c1.778,0.563,1.78,2.767,1.884,4.352c0.105,1.602-0.425,3.128-0.892,4.475l-6.132,17.668
				c-1.829,5.27-3.72,10.719-6.79,15.556c-2.44,3.843-6.684,8.853-13.052,10.897c-5.604,1.798-11.539,0.874-17.279-0.021
				c-1.196-0.186-2.432-0.379-3.635-0.541c-12.989-1.752-26.313-0.299-38.532,4.205l-0.073,0.023
				c-14.15,3.584-28.868,2.951-43.102,2.338c-10.471-0.45-21.298-0.916-31.814-2.868c-0.464-0.086-0.93-0.175-1.395-0.265
				c-3.184-0.611-6.475-1.242-9.673-0.895c-2.418,0.263-4.806,1.091-7.114,1.892c-0.534,0.185-1.067,0.371-1.602,0.549
				c-7.906,2.645-16.139,3.883-23.815,3.581C95.959,430.636,94.459,430.856,92.929,430.856z"/>
		</g>
		<g>
			<path style="fill:#612929;" d="M85.408,369.773c-0.029,0-0.059-0.002-0.088-0.005c-0.4-0.048-0.685-0.412-0.637-0.812
				c0.393-3.257,3.267-5.95,6.542-6.132c3.272-0.183,6.429,2.177,7.181,5.37c0.092,0.392-0.151,0.785-0.543,0.878
				c-0.393,0.093-0.785-0.151-0.878-0.543c-0.585-2.484-3.135-4.387-5.679-4.247c-2.547,0.141-4.868,2.317-5.174,4.849
				C86.086,369.501,85.771,369.773,85.408,369.773z"/>
		</g>
		<g>
			<path style="fill:#612929;" d="M121.378,378.605c-0.148,0-0.298-0.045-0.427-0.138c-2.741-1.981-5.222-4.331-7.622-6.603
				c-1.702-1.611-3.462-3.278-5.289-4.785c-1.554-1.283-3.259-2.506-5.187-2.768c-1.69-0.228-3.821,0.581-4.315,2.29
				c-0.112,0.387-0.516,0.61-0.904,0.499c-0.387-0.112-0.61-0.516-0.499-0.904c0.719-2.49,3.572-3.649,5.913-3.331
				c2.29,0.311,4.199,1.668,5.92,3.089c1.865,1.539,3.643,3.223,5.363,4.851c2.365,2.239,4.811,4.555,7.474,6.479
				c0.327,0.236,0.4,0.693,0.164,1.019C121.828,378.5,121.605,378.605,121.378,378.605z"/>
		</g>
		<g>
			<path style="fill:#612929;" d="M229.136,389.798c-0.277,0-0.541-0.158-0.664-0.426c-0.168-0.366-0.007-0.8,0.359-0.968
				c1.131-0.518,1.941-1.701,2.016-2.942c0.024-0.403,0.378-0.705,0.772-0.684c0.402,0.024,0.709,0.37,0.684,0.772
				c-0.107,1.764-1.258,3.445-2.865,4.182C229.341,389.776,229.238,389.798,229.136,389.798z"/>
		</g>
		<g>
			<path style="fill:#612929;" d="M232.176,390.645c-0.249,0-0.492-0.127-0.628-0.357c-0.206-0.346-0.092-0.794,0.254-1
				c0.931-0.554,1.547-1.654,1.533-2.737c-0.005-0.403,0.317-0.734,0.72-0.74c0.4-0.007,0.734,0.317,0.74,0.72
				c0.021,1.612-0.861,3.187-2.246,4.011C232.431,390.612,232.302,390.645,232.176,390.645z"/>
		</g>
		<g>
			<path style="fill:#612929;" d="M143.053,405.206c-0.104,0-0.209-0.022-0.309-0.069c-2.046-0.958-3.225-3.427-2.686-5.62
				c0.096-0.391,0.491-0.631,0.883-0.534c0.391,0.096,0.63,0.491,0.534,0.883c-0.373,1.516,0.474,3.288,1.888,3.95
				c0.365,0.171,0.522,0.605,0.351,0.97C143.59,405.05,143.327,405.206,143.053,405.206z"/>
		</g>
		<g>
			<path style="fill:#612929;" d="M146.664,403.989c-0.067,0-0.134-0.009-0.202-0.029c-2.083-0.599-3.568-2.682-3.454-4.846
				c0.021-0.403,0.367-0.717,0.767-0.691c0.402,0.021,0.712,0.365,0.691,0.767c-0.078,1.479,0.977,2.958,2.4,3.367
				c0.387,0.111,0.611,0.516,0.5,0.903C147.273,403.781,146.981,403.989,146.664,403.989z"/>
		</g>
		<g>
			<path style="fill:#612929;" d="M157.615,318.348c-0.282,0-0.551-0.165-0.67-0.44c-0.16-0.37,0.01-0.8,0.38-0.96
				c1.337-0.579,2.439-1.74,2.948-3.105c0.141-0.378,0.561-0.568,0.939-0.429c0.378,0.141,0.57,0.561,0.429,0.939
				c-0.655,1.756-2.016,3.19-3.736,3.935C157.81,318.329,157.711,318.348,157.615,318.348z"/>
		</g>
		<g>
			<path style="fill:#612929;" d="M160.358,320.028c-0.234,0-0.463-0.112-0.604-0.32c-0.226-0.333-0.14-0.787,0.194-1.014
				c1.248-0.848,2.125-2.184,2.406-3.667c0.075-0.396,0.455-0.657,0.853-0.581c0.396,0.075,0.656,0.457,0.581,0.853
				c-0.353,1.861-1.453,3.538-3.02,4.602C160.642,319.987,160.499,320.028,160.358,320.028z"/>
		</g>
		<g>
			<path style="fill:#612929;" d="M252.42,308.615c-0.138,0-0.277-0.039-0.401-0.12c-1.844-1.213-3.016-3.423-2.987-5.63
				c0.005-0.4,0.331-0.72,0.729-0.72c0.003,0,0.007,0,0.01,0c0.403,0.005,0.725,0.336,0.72,0.739
				c-0.023,1.721,0.892,3.445,2.33,4.391c0.337,0.222,0.43,0.674,0.208,1.011C252.89,308.499,252.658,308.615,252.42,308.615z"/>
		</g>
		<g>
			<path style="fill:#612929;" d="M254.123,305.951c-0.106,0-0.213-0.023-0.314-0.072c-1.448-0.693-2.462-2.175-2.583-3.776
				c-0.03-0.402,0.271-0.752,0.673-0.783c0.405-0.029,0.752,0.271,0.783,0.672c0.081,1.073,0.787,2.105,1.758,2.57
				c0.364,0.174,0.517,0.61,0.343,0.973C254.657,305.798,254.395,305.951,254.123,305.951z"/>
		</g>
		<g>
			<path style="fill:#612929;" d="M196.23,174.422c-0.059,0-0.119-0.007-0.178-0.022c-0.391-0.098-0.628-0.494-0.531-0.885
				c0.298-1.189-0.011-2.506-0.808-3.438c-0.262-0.306-0.226-0.767,0.08-1.029c0.306-0.262,0.767-0.226,1.029,0.08
				c1.099,1.285,1.526,3.102,1.114,4.741C196.855,174.201,196.557,174.422,196.23,174.422z"/>
		</g>
		<g>
			<path style="fill:#612929;" d="M199.496,174.042c-0.052,0-0.106-0.006-0.159-0.018c-0.393-0.088-0.641-0.478-0.553-0.871
				c0.257-1.153-0.072-2.417-0.858-3.299c-0.268-0.301-0.242-0.762,0.059-1.03c0.301-0.268,0.762-0.242,1.03,0.059
				c1.093,1.226,1.55,2.984,1.193,4.588C200.132,173.811,199.83,174.042,199.496,174.042z"/>
		</g>
		<g>
			<path style="fill:#612929;" d="M179.503,221.978c-0.152,0-0.304-0.047-0.435-0.145c-4.497-3.347-11.091-3.84-16.035-1.198
				c-0.356,0.19-0.798,0.055-0.988-0.3c-0.19-0.355-0.056-0.798,0.299-0.988c5.511-2.945,12.582-2.417,17.594,1.315
				c0.323,0.241,0.39,0.698,0.15,1.021C179.946,221.876,179.726,221.978,179.503,221.978z"/>
		</g>
		<g>
			<path style="fill:#612929;" d="M165.626,227.88c-0.215,0-0.427-0.094-0.571-0.275c-0.251-0.315-0.199-0.774,0.116-1.025
				c3.399-2.708,8.312-3.261,12.227-1.376c0.363,0.175,0.516,0.611,0.341,0.974c-0.175,0.363-0.611,0.516-0.974,0.341
				c-3.421-1.647-7.715-1.163-10.685,1.203C165.946,227.828,165.785,227.88,165.626,227.88z"/>
		</g>
		<g>
			<path style="fill:#612929;" d="M197.901,200.371c-0.06,0-0.119-0.003-0.179-0.008c-0.956-0.085-1.746-0.8-2.284-2.07
				c-0.82-1.935-1.048-4.136-0.643-6.199c0.078-0.395,0.46-0.652,0.857-0.575c0.396,0.078,0.653,0.461,0.575,0.857
				c-0.35,1.779-0.152,3.679,0.555,5.348c0.144,0.341,0.537,1.139,1.068,1.185c0.524,0.045,1.032-0.672,1.3-1.302
				c0.729-1.708,0.956-3.657,0.639-5.488c-0.069-0.397,0.198-0.775,0.595-0.843c0.399-0.068,0.775,0.197,0.844,0.595
				c0.364,2.104,0.103,4.345-0.735,6.309C199.902,199.566,198.943,200.371,197.901,200.371z"/>
		</g>
		<g>
			<path style="fill:#612929;" d="M155.593,201.965c-0.658,0-1.303-0.327-1.721-0.775c-0.56-0.6-0.797-1.369-0.976-2.042
				c-0.567-2.14-0.874-4.348-0.914-6.561c-0.007-0.403,0.314-0.736,0.717-0.743c0.005,0,0.009,0,0.013,0
				c0.397,0,0.722,0.318,0.73,0.717c0.037,2.096,0.329,4.186,0.866,6.213c0.139,0.525,0.302,1.067,0.632,1.42
				c0.246,0.264,0.636,0.384,0.852,0.262c0.222-0.125,0.369-0.5,0.483-0.85c0.754-2.314,0.994-4.814,0.695-7.229
				c-0.049-0.4,0.235-0.764,0.635-0.814c0.398-0.05,0.764,0.235,0.814,0.635c0.325,2.626,0.064,5.345-0.756,7.861
				c-0.201,0.617-0.496,1.299-1.155,1.669C156.213,201.893,155.901,201.965,155.593,201.965z"/>
		</g>
		<g>
			<path style="fill:#612929;" d="M112.726,179.637c-0.185,0-0.37-0.07-0.512-0.21c-0.287-0.283-0.291-0.745-0.008-1.032
				c5.196-5.276,11.735-9.032,18.91-10.861c0.391-0.099,0.788,0.136,0.887,0.527c0.1,0.391-0.136,0.788-0.527,0.887
				c-6.918,1.764-13.222,5.384-18.231,10.471C113.103,179.564,112.915,179.637,112.726,179.637z"/>
		</g>
		<g>
			<path style="fill:#612929;" d="M204.219,171.064c-0.272,0-0.533-0.153-0.658-0.414c-3.011-6.275-10.23-10.444-17.173-9.914
				c-0.4,0.03-0.753-0.27-0.783-0.672c-0.031-0.402,0.27-0.753,0.672-0.783c7.634-0.585,15.286,3.831,18.6,10.738
				c0.174,0.363,0.021,0.799-0.342,0.974C204.433,171.04,204.325,171.064,204.219,171.064z"/>
		</g>
		<g>
			<path style="fill:#612929;" d="M116.403,233.131c-0.172,0-0.345-0.061-0.484-0.184c-1.976-1.753-3.345-4.146-3.855-6.738
				c-0.078-0.395,0.18-0.779,0.575-0.857c0.397-0.078,0.779,0.18,0.857,0.575c0.449,2.28,1.653,4.385,3.392,5.928
				c0.301,0.268,0.329,0.729,0.062,1.03C116.804,233.048,116.604,233.131,116.403,233.131z"/>
		</g>
		<g>
			<path style="fill:#612929;" d="M120.902,231.525c-0.098,0-0.198-0.02-0.294-0.062c-2.237-0.987-4.026-2.964-4.785-5.289
				c-0.125-0.383,0.084-0.795,0.467-0.92c0.382-0.125,0.795,0.084,0.92,0.467c0.633,1.937,2.123,3.584,3.987,4.407
				c0.369,0.163,0.536,0.594,0.373,0.962C121.45,231.363,121.182,231.525,120.902,231.525z"/>
		</g>
		<g>
			<path style="fill:#612929;" d="M198.997,221.461c-0.237,0-0.469-0.115-0.61-0.328c-0.222-0.336-0.13-0.789,0.207-1.011
				c4.567-3.015,10.078-4.372,15.524-3.818c0.401,0.041,0.693,0.399,0.652,0.8c-0.041,0.401-0.399,0.694-0.8,0.652
				c-5.11-0.519-10.286,0.753-14.572,3.584C199.274,221.422,199.135,221.461,198.997,221.461z"/>
		</g>
		<g>
			<path style="fill:#612929;" d="M200.426,225.165c-0.29,0-0.565-0.174-0.678-0.46c-0.149-0.374,0.034-0.799,0.409-0.948
				c3.993-1.588,8.464-1.8,12.59-0.597c0.387,0.113,0.609,0.518,0.496,0.905c-0.113,0.387-0.517,0.61-0.905,0.496
				c-3.814-1.112-7.949-0.916-11.642,0.552C200.607,225.149,200.516,225.165,200.426,225.165z"/>
		</g>
	</g>
	<g>
		<g>
			<path style="fill:#BBE2EF;" d="M267.799,365.996c-0.4-3.896-0.24-9.313-0.063-12.855h-5.987l-3.051,25.471
				c0.835-0.044,1.721,0.012,2.673,0.239c3.374,0.803,9.48,0.351,10.123,0.577c0.643,0.226,2.732,0,2.732,0
				s0.147,29.948-1.672,45.617c-0.133,1.147-1.105,2.011-2.26,2.011H249.33c-1.12,0-2.073-0.813-2.246-1.92
				c-0.754-4.801-2.649-17.541-2.905-25.879c-0.321-10.444-0.803-19.443-0.803-19.443s7.552,0.803,9.802,0.161
				c0.321-0.092,0.649-0.197,0.985-0.307l3.178-26.527h-7.213c0.558,4.362,1.401,13.746-1.287,16.068
				c-3.535,3.053-8.998,0.643-9.159,14.461c-0.132,11.344,1.577,36.439,2.193,45.064c0.12,1.68,1.517,2.98,3.201,2.98h27.492
				c1.669,0,3.059-1.278,3.198-2.941c0.954-11.343,4.16-51.799,1.676-55.387C274.547,369.21,268.441,372.263,267.799,365.996z"/>
			<path style="fill:#F15A24;" d="M249.074,422.136l5.087-42.467c-0.335,0.11-0.664,0.215-0.985,0.307
				c-2.25,0.643-9.802-0.161-9.802-0.161s0.482,8.998,0.803,19.443c0.257,8.337,2.151,21.077,2.905,25.879
				c0.174,1.106,1.127,1.92,2.246,1.92h20.964c1.155,0,2.126-0.864,2.26-2.011c1.819-15.669,1.672-45.617,1.672-45.617
				s-2.089,0.226-2.732,0c-0.643-0.226-6.749,0.226-10.123-0.577c-0.952-0.227-1.839-0.283-2.673-0.239l-5.276,44.044
				L249.074,422.136z"/>
			<path style="fill:#F7E2EA;" d="M263.228,340.789c0.415-3.464,2.503-6.509,5.584-8.144l17.687-9.385l-2.052-3.868l-17.687,9.385
				c-4.348,2.307-7.294,6.603-7.88,11.491l-0.676,5.643h4.41L263.228,340.789z"/>
			<path style="fill:#9BC7D3;" d="M254.161,379.669c1.352-0.443,2.835-0.966,4.537-1.057l3.051-25.471h-4.41L254.161,379.669z"/>
			<path style="fill:#FF825C;" d="M249.074,422.136l4.348,0.521l5.276-44.044c-1.702,0.091-3.184,0.613-4.537,1.057L249.074,422.136
				z"/>
			<g>
				<polygon style="fill:#D0F2FC;" points="262.615,345.911 262.129,349.965 261.749,353.142 267.736,353.142 271.494,353.142 
					271.494,345.911 				"/>
				<polygon style="fill:#D0F2FC;" points="246.267,353.142 250.125,353.142 257.339,353.142 257.679,350.3 258.205,345.911 
					246.267,345.911 				"/>
			</g>
			<polygon style="fill:#BBE2EF;" points="258.205,345.911 257.679,350.3 257.339,353.142 261.749,353.142 262.129,349.965 
				262.615,345.911 			"/>
		</g>
		<g>
			<path style="fill:#612929;" d="M265.77,394.103c-0.119,0-0.24-0.029-0.352-0.091c-0.353-0.194-0.481-0.638-0.287-0.991
				l1.258-2.28c0.195-0.353,0.638-0.481,0.991-0.286c0.353,0.195,0.481,0.639,0.286,0.992l-1.258,2.28
				C266.276,393.966,266.027,394.103,265.77,394.103z"/>
		</g>
		<g>
			<path style="fill:#612929;" d="M268.668,396.061c-0.084,0-0.169-0.014-0.253-0.045c-0.378-0.139-0.572-0.559-0.432-0.937
				l0.65-1.763c0.139-0.378,0.559-0.572,0.937-0.432c0.378,0.139,0.572,0.559,0.432,0.937l-0.65,1.763
				C269.244,395.878,268.965,396.061,268.668,396.061z"/>
		</g>
		<g>
			<path style="fill:#612929;" d="M260.845,416.715c-0.172,0-0.344-0.06-0.483-0.183l-1.792-1.584
				c-0.302-0.267-0.33-0.728-0.064-1.03c0.267-0.302,0.728-0.33,1.03-0.064l1.792,1.585c0.302,0.267,0.33,0.728,0.063,1.03
				C261.247,416.631,261.046,416.715,260.845,416.715z"/>
		</g>
		<g>
			<path style="fill:#612929;" d="M262.87,413.375c-0.21,0-0.418-0.09-0.562-0.264l-1.266-1.526c-0.258-0.31-0.215-0.77,0.096-1.027
				c0.31-0.258,0.77-0.215,1.027,0.096l1.266,1.526c0.257,0.31,0.215,0.77-0.095,1.028
				C263.199,413.32,263.034,413.375,262.87,413.375z"/>
		</g>
	</g>
	<path style="fill:#F4D4DA;" d="M210.204,84.374c-0.887,0-1.763,0.047-2.626,0.137c-0.996-15.288-13.709-27.38-29.249-27.38
		c-15.255,0-27.787,11.654-29.183,26.544c-2.611-2.211-5.987-3.547-9.676-3.547c-8.275,0-14.984,6.708-14.984,14.984
		c0,0.023,0.002,0.046,0.002,0.069c-4.56,0.456-8.456,3.164-10.563,6.995c-0.262-2.576-2.438-4.587-5.084-4.587
		c-2.822,0-5.11,2.288-5.11,5.11c0,2.822,2.288,5.11,5.11,5.11c1.418,0,2.701-0.578,3.627-1.511c-0.142,0.787-0.22,1.596-0.22,2.424
		c0,7.517,6.094,13.611,13.611,13.611c3.339,0,6.396-1.204,8.764-3.2c2.329,12.973,13.665,22.82,27.308,22.82
		c6.867,0,13.146-2.499,17.992-6.631c0.648,0.078,1.307,0.123,1.977,0.123c5.182,0,9.799-2.41,12.799-6.167
		c4.272,3.355,9.653,5.361,15.505,5.361c13.88,0,25.132-11.252,25.132-25.132S224.085,84.374,210.204,84.374z"/>
</g>
</svg>
