<svg width="500" height="500" viewBox="0 0 500 500" fill="none" xmlns="http://www.w3.org/2000/svg">
<g clip-path="url(#clip0_503_630)">
<path d="M330.776 193.181C363.138 193.181 389.372 166.946 389.372 134.585C389.372 102.223 363.138 75.9888 330.776 75.9888C298.414 75.9888 272.18 102.223 272.18 134.585C272.18 166.946 298.414 193.181 330.776 193.181Z" fill="#FFE6EC"/>
<path d="M446.177 213.466C446.363 212.467 446.465 211.438 446.465 210.385C446.465 201.156 438.983 193.674 429.754 193.674C423.239 193.674 417.598 197.405 414.842 202.845C413.951 196.423 408.442 191.478 401.775 191.478C396.531 191.478 392.002 194.537 389.874 198.967C389.452 198.903 389.019 198.869 388.579 198.869C383.853 198.869 380.023 202.7 380.023 207.425C380.023 207.573 380.027 207.721 380.034 207.867C380.03 207.867 380.027 207.867 380.023 207.867C372.821 207.867 366.663 212.318 364.138 218.617C361.936 217.439 359.306 217.042 356.691 217.693C351.094 219.087 347.686 224.754 349.08 230.351C350.474 235.948 356.141 239.356 361.738 237.962C363.568 237.506 365.162 236.592 366.432 235.374C369.56 239.457 374.482 242.092 380.023 242.092C384.273 242.092 388.159 240.539 391.152 237.974C394.877 245.002 402.266 249.791 410.774 249.791C422.193 249.791 431.596 241.167 432.83 230.077C434.777 232.06 437.487 233.292 440.486 233.292C446.412 233.292 451.217 228.488 451.217 222.561C451.216 218.727 449.203 215.364 446.177 213.466Z" fill="#F4D4DA"/>
<path d="M47.9709 410.626H462.534L478.923 445.292H26.4319L47.9709 410.626Z" fill="#F4D4DA"/>
<path d="M299.586 421.94C299.487 421.94 299.387 421.92 299.29 421.877C298.922 421.714 298.756 421.282 298.919 420.914C299.817 418.891 301.723 417.366 303.893 416.933C304.29 416.855 304.672 417.111 304.751 417.506C304.83 417.901 304.573 418.286 304.178 418.365C302.465 418.707 300.961 419.911 300.253 421.507C300.133 421.778 299.866 421.94 299.586 421.94Z" fill="#612929"/>
<path d="M302.765 424.854C302.73 424.854 302.695 424.852 302.66 424.847C302.261 424.789 301.984 424.419 302.042 424.02C302.288 422.315 303.624 420.819 305.291 420.383C305.682 420.282 306.08 420.515 306.182 420.904C306.284 421.294 306.051 421.693 305.661 421.795C304.546 422.087 303.652 423.087 303.487 424.229C303.434 424.591 303.121 424.854 302.765 424.854Z" fill="#612929"/>
<path d="M140.011 434.658C139.832 434.658 139.652 434.592 139.511 434.46L136.019 431.179C135.725 430.903 135.711 430.441 135.987 430.147C136.263 429.854 136.725 429.839 137.019 430.115L140.511 433.396C140.805 433.672 140.819 434.134 140.543 434.428C140.399 434.581 140.205 434.658 140.011 434.658Z" fill="#612929"/>
<path d="M144.077 433.886C143.878 433.886 143.681 433.805 143.536 433.647L139.974 429.723C139.703 429.424 139.725 428.963 140.024 428.692C140.323 428.421 140.784 428.444 141.055 428.742L144.617 432.666C144.888 432.964 144.865 433.426 144.567 433.697C144.427 433.824 144.252 433.886 144.077 433.886Z" fill="#612929"/>
<path d="M63.2098 431.467C62.8168 431.467 62.4918 431.154 62.4808 430.758C62.4228 428.687 63.9688 426.749 66.0008 426.346C66.3958 426.267 66.7798 426.524 66.8588 426.92C66.9368 427.316 66.6808 427.699 66.2848 427.778C64.9538 428.042 63.9018 429.361 63.9398 430.717C63.9508 431.12 63.6338 431.456 63.2308 431.467C63.2238 431.467 63.2178 431.467 63.2098 431.467Z" fill="#612929"/>
<path d="M65.7759 433.133C65.7689 433.133 65.7619 433.133 65.7549 433.133C65.3519 433.121 65.0349 432.785 65.0459 432.382C65.1049 430.333 66.8149 428.53 68.8569 428.362C69.2639 428.33 69.6109 428.628 69.6439 429.03C69.6769 429.432 69.3779 429.784 68.9769 429.817C67.6969 429.922 66.5419 431.14 66.5049 432.424C66.4929 432.82 66.1689 433.133 65.7759 433.133Z" fill="#612929"/>
<path d="M448.76 428.305C448.721 428.305 448.682 428.302 448.642 428.296C448.244 428.232 447.974 427.857 448.038 427.459C448.517 424.499 451.354 422.126 454.344 422.165C454.747 422.17 455.069 422.502 455.064 422.905C455.059 423.305 454.733 423.625 454.334 423.625C454.313 423.625 454.29 423.624 454.268 423.624C452.023 423.624 449.837 425.475 449.478 427.692C449.422 428.05 449.112 428.305 448.76 428.305Z" fill="#612929"/>
<path d="M451.92 429.138C451.788 429.138 451.655 429.103 451.535 429.028C451.193 428.815 451.088 428.365 451.301 428.023C452.332 426.365 454.395 425.436 456.323 425.762C456.72 425.83 456.988 426.206 456.92 426.604C456.853 427.001 456.475 427.268 456.078 427.201C454.744 426.974 453.255 427.644 452.54 428.793C452.402 429.016 452.164 429.138 451.92 429.138Z" fill="#612929"/>
<path d="M358.572 274.98L370.309 319.638H377.05L361.785 274.98H358.572Z" fill="#E89931"/>
<path d="M392.556 413.167L395.529 412.203L395.931 404.008L393.119 403.044L396.172 402.08L396.252 391.796L394.565 390.671L396.573 387.056L397.136 374.201L393.762 371.55L396.735 369.783V357.812L393.12 355.884V352.751L395.53 350.582V341.182L393.12 337.808L395.53 336.362V332.807L310.85 334.916L318.024 417.261C318.147 418.673 319.329 419.757 320.747 419.757H395.37L395.45 414.133L392.556 413.167Z" fill="#FBB03B"/>
<path d="M453.857 331.353L395.529 332.805V336.36L393.119 337.806L395.529 341.18V350.58L393.119 352.749V355.882L396.734 357.81V369.781L393.761 371.548L397.135 374.199L396.572 387.054L394.564 390.669L396.251 391.794L396.171 402.078L393.118 403.042L395.93 404.006L395.528 412.201L392.555 413.165L395.447 414.129L395.367 419.753H445.082C446.942 419.753 448.482 418.306 448.596 416.449L453.857 331.353Z" fill="#E89931"/>
<path d="M307.937 337.309L395.528 336.36V319.006L307.227 321.217C306.393 321.238 305.74 321.942 305.782 322.775L306.438 335.898C306.479 336.695 307.14 337.318 307.937 337.309Z" fill="#FCBB65"/>
<path d="M454.325 319.979L395.528 319.007V336.361L454.34 334.793C455.144 334.772 455.785 334.114 455.785 333.309V321.463C455.785 320.652 455.135 319.992 454.325 319.979Z" fill="#FBB03B"/>
<path d="M420.435 273.106L442.992 322.553C443.346 323.329 444.121 323.828 444.975 323.828H446.901C448.027 323.828 448.758 322.64 448.25 321.635L422.701 271.069L420.435 273.106Z" fill="#E89931"/>
<path d="M405.478 321.598L417.703 276.426L357.607 277.491L336.719 320.48H328.69L356.097 273.618C356.537 272.866 357.333 272.394 358.204 272.368L421.062 270.526C422.703 270.478 423.954 271.984 423.605 273.588L412.897 322.833C412.608 324.163 411.43 325.112 410.069 325.112H408.17C406.333 325.113 404.999 323.369 405.478 321.598Z" fill="#FCBB65"/>
<path d="M395.359 372.942C394.998 372.441 394.919 371.625 395.353 371.281C395.457 371.199 395.609 371.125 395.771 371.048C396.014 370.931 396.289 370.799 396.542 370.577C397.378 369.843 397.388 368.64 397.393 367.994L397.478 357.376L397.041 357.182C396.852 357.098 396.647 357.015 396.432 356.927C395.863 356.696 395.217 356.434 394.681 356.059C393.961 355.556 393.51 354.857 393.474 354.189C393.444 353.629 393.714 353.051 394.164 352.715C394.295 352.617 394.454 352.527 394.622 352.431C394.967 352.236 395.357 352.014 395.668 351.639C396.255 350.928 396.279 349.985 396.294 349.361L396.513 340.587L396.029 340.404C395.372 340.156 394.649 339.487 394.114 338.661L396.022 337.402C395.775 336.97 395.595 336.5 395.479 336.012L392.2 338.176L392.489 338.755C393.1 339.979 394.044 341.005 395.03 341.546L394.836 349.325C394.821 349.906 394.789 350.412 394.543 350.71C394.404 350.878 394.172 351.01 393.903 351.162C393.702 351.275 393.495 351.393 393.291 351.546C392.449 352.176 391.961 353.218 392.018 354.268C392.079 355.397 392.746 356.486 393.846 357.256C394.517 357.725 395.243 358.02 395.884 358.28C395.927 358.297 395.969 358.315 396.012 358.332L395.934 367.983C395.929 368.561 395.898 369.201 395.58 369.48C395.477 369.57 395.313 369.649 395.139 369.733C394.923 369.837 394.679 369.954 394.449 370.137C393.304 371.043 393.416 372.741 394.176 373.796C394.76 374.606 395.608 375.089 396.448 375.536L395.963 385.322C395.917 386.24 395.845 387.043 395.418 387.575C395.219 387.822 394.92 388.048 394.603 388.287C393.964 388.769 393.168 389.368 393.078 390.398C393.009 391.176 393.421 391.987 394.152 392.514C394.528 392.786 394.967 392.978 395.432 393.078L395.411 400.695C393.68 400.893 392.598 401.72 392.537 402.938C392.49 403.869 393.085 404.557 393.563 405.11C393.625 405.182 393.687 405.253 393.747 405.325C395.125 406.971 395.486 409.426 394.672 411.411L391.745 412.08L391.913 412.795C392.286 414.381 393.444 415.738 394.933 416.382L394.88 419.313C394.873 419.716 395.194 420.049 395.597 420.056C395.601 420.056 395.606 420.056 395.61 420.056C396.007 420.056 396.332 419.738 396.339 419.339L396.411 415.339L395.884 415.179C394.889 414.876 394.029 414.104 393.58 413.158L395.693 412.675L395.846 412.361C397.078 409.827 396.675 406.549 394.866 404.389C394.802 404.312 394.735 404.235 394.667 404.157C394.313 403.747 393.977 403.359 393.995 403.013C394.025 402.415 395.133 402.126 396.15 402.111L396.867 402.1L396.896 391.707L396.17 391.701C395.745 391.698 395.333 391.567 395.007 391.332C394.701 391.111 394.51 390.788 394.533 390.528C394.564 390.171 394.913 389.884 395.482 389.455C395.856 389.173 396.244 388.881 396.557 388.492C397.315 387.548 397.377 386.305 397.422 385.397L397.953 374.687L397.308 374.342C396.523 373.924 395.784 373.532 395.359 372.942Z" fill="#612929"/>
<path d="M318.03 353.819C317.659 353.819 317.341 353.537 317.305 353.16L316.351 343.406C316.312 343.005 316.605 342.648 317.006 342.609C317.404 342.568 317.764 342.863 317.803 343.264L318.757 353.018C318.797 353.419 318.503 353.776 318.102 353.815C318.078 353.818 318.054 353.819 318.03 353.819Z" fill="#612929"/>
<path d="M320.788 351.357C320.412 351.357 320.093 351.069 320.062 350.688L319.542 344.444C319.508 344.042 319.807 343.69 320.209 343.656C320.616 343.62 320.963 343.921 320.997 344.323L321.517 350.567C321.551 350.969 321.252 351.322 320.85 351.355C320.828 351.357 320.808 351.357 320.788 351.357Z" fill="#612929"/>
<path d="M321.206 351.125C320.86 351.125 320.553 350.878 320.489 350.525L319.597 345.584C319.525 345.187 319.789 344.808 320.185 344.736C320.581 344.665 320.961 344.928 321.033 345.324L321.925 350.265C321.997 350.662 321.733 351.041 321.337 351.113C321.293 351.121 321.249 351.125 321.206 351.125Z" fill="#612929"/>
<path d="M386.975 410.957C386.961 410.957 386.946 410.957 386.932 410.956C386.53 410.933 386.222 410.588 386.246 410.185L387.104 395.402C387.127 395 387.469 394.698 387.875 394.716C388.277 394.739 388.585 395.084 388.561 395.487L387.703 410.27C387.68 410.657 387.358 410.957 386.975 410.957Z" fill="#612929"/>
<path d="M384.094 408.009C384.079 408.009 384.063 408.008 384.048 408.008C383.646 407.983 383.34 407.636 383.365 407.234L383.879 398.983C383.904 398.581 384.251 398.278 384.653 398.3C385.055 398.325 385.361 398.671 385.336 399.074L384.822 407.325C384.798 407.711 384.477 408.009 384.094 408.009Z" fill="#612929"/>
<path d="M403.885 341.988C403.51 341.988 403.191 341.7 403.158 341.32C403.124 340.918 403.422 340.565 403.824 340.532L419.172 339.237C419.573 339.2 419.927 339.501 419.96 339.903C419.994 340.304 419.696 340.657 419.294 340.691L403.946 341.986C403.926 341.987 403.905 341.988 403.885 341.988Z" fill="#612929"/>
<path d="M409.018 345.099C408.642 345.099 408.322 344.81 408.291 344.429C408.258 344.027 408.557 343.675 408.959 343.642L417.225 342.968C417.627 342.933 417.979 343.234 418.011 343.636C418.044 344.038 417.744 344.39 417.343 344.423L409.078 345.097C409.058 345.099 409.038 345.099 409.018 345.099Z" fill="#612929"/>
<path d="M369.617 333.217C368.463 333.217 367.312 333.198 366.161 333.159C365.758 333.145 365.443 332.808 365.456 332.405C365.47 332.002 365.803 331.69 366.21 331.7C371.929 331.893 377.703 331.598 383.373 330.825C383.769 330.771 384.14 331.05 384.195 331.45C384.249 331.849 383.97 332.217 383.571 332.272C378.96 332.901 374.28 333.217 369.617 333.217Z" fill="#612929"/>
<path d="M369.468 329.945C369.098 329.945 368.78 329.664 368.743 329.287C368.703 328.886 368.996 328.529 369.397 328.489L377.587 327.674C377.992 327.636 378.346 327.927 378.386 328.328C378.426 328.729 378.133 329.087 377.732 329.127L369.541 329.943C369.517 329.944 369.492 329.945 369.468 329.945Z" fill="#612929"/>
<path d="M81.355 314.469C81.355 314.469 72.716 330.254 74.484 343.43C76.252 356.606 88.785 369.3 88.785 369.3L90.663 393.891C90.663 393.891 64.362 389.546 60.023 386.172C55.684 382.798 58.898 380.193 58.898 380.193C58.898 380.193 50.864 370.265 52.149 366.729C53.434 363.193 58.416 363.937 58.416 363.937C58.416 363.937 52.792 346.322 55.202 342.466C57.612 338.61 62.433 340.538 62.433 340.538C62.433 340.538 59.386 327.844 60.99 325.755C62.594 323.666 66.129 326.398 66.129 326.398C66.129 326.398 70.712 312.503 81.355 314.469Z" fill="#F7931E"/>
<path d="M264.465 310.287C264.465 310.287 265.751 309.633 267.464 309.098C269.178 308.562 266.178 305.242 265 304.813C264.064 304.473 260.496 297.381 257.081 290.881C255.697 290.909 254.287 289.369 254.287 289.369C254.287 289.369 252.68 289.816 252.466 291.769C252.252 293.722 246.788 290.677 247.036 291.769C247.284 292.861 243.415 293.375 243.415 293.375C243.415 293.375 237.79 290.244 235.336 293.375C234.038 295.03 232.837 293.815 231.994 292.302C228.417 305.772 227.201 321.794 238.681 328.087C260.031 339.792 265.428 316.275 265.428 316.275C265.428 316.275 267.999 316.811 268.427 314.469C268.857 312.128 264.465 310.287 264.465 310.287Z" fill="#F7931E"/>
<path d="M211.975 252.966C211.975 252.966 226.906 260.088 233.935 270.431C240.964 280.774 219.276 278.461 219.276 278.461L209.833 260.679L211.975 252.966Z" fill="#00A99D"/>
<path d="M127.509 252.549C127.509 252.549 112.066 278.032 112.798 307.678C113.53 337.324 108.709 367.693 108.709 367.693C108.709 367.693 115.618 384.404 191.782 384.404C226.008 384.404 239.103 372.996 239.103 372.996C239.103 372.996 247.298 291.663 210.903 255.322C174.509 218.982 127.509 252.549 127.509 252.549Z" fill="#DCEAE9"/>
<path d="M189.452 296.159C189.452 296.159 190.015 301.921 192.158 302.457C194.3 302.993 201.37 304.171 211.012 303.743C220.653 303.314 235.757 301.411 237.9 301.613C240.042 301.815 243.208 302.136 244.089 300.53C244.97 298.923 244.543 294.044 243.418 293.377C242.29 292.708 193.387 293.182 189.452 296.159Z" fill="#8C6239"/>
<path d="M235.337 293.375C237.791 290.244 243.416 293.375 243.416 293.375C243.416 293.375 247.284 292.861 247.037 291.769C246.789 290.677 252.253 293.722 252.467 291.769C252.681 289.816 254.288 289.369 254.288 289.369C254.288 289.369 255.698 290.909 257.082 290.881C256.196 289.193 255.32 287.546 254.503 286.066C250.539 278.889 241.966 270.431 241.966 270.431L239.894 271.023C239.894 271.023 235.071 280.719 231.995 292.302C232.838 293.815 234.039 295.03 235.337 293.375Z" fill="#F7E4C1"/>
<path d="M173.944 269.836C193.724 268.655 209.191 258.188 208.49 246.456C207.79 234.725 191.187 226.172 171.408 227.353C151.628 228.534 136.161 239.001 136.862 250.733C137.562 262.464 154.164 271.017 173.944 269.836Z" fill="#00A99D"/>
<path d="M108.87 185.961C108.87 185.961 105.335 154.628 108.87 152.057C112.405 149.486 132.49 162.18 135.704 164.59C138.918 167 145.345 161.055 145.827 161.055C146.309 161.055 148.88 162.019 147.916 163.465C146.952 164.911 163.824 149.164 163.502 153.342C163.181 157.52 161.574 159.609 161.574 159.609C161.574 159.609 181.659 151.414 178.767 154.949C175.875 158.484 174.268 159.609 174.268 159.609L181.659 160.091C181.659 160.091 198.852 145.308 204.476 146.272C210.1 147.236 207.208 172.945 207.208 172.945C207.208 172.945 212.832 178.73 216.367 185.96C219.902 193.191 220.063 197.047 220.063 197.047C220.063 197.047 234.364 196.565 231.793 200.1C229.222 203.635 228.097 204.92 228.097 204.92C228.097 204.92 231.769 203.152 232.102 204.92C232.435 206.688 226.651 211.829 226.651 211.829C226.651 211.829 231.796 210.061 232.116 212.632C232.435 215.203 225.526 220.988 225.526 220.988C225.526 220.988 232.435 218.578 232.917 220.988C233.399 223.398 224.722 231.914 223.115 232.236C221.508 232.557 226.811 233.361 226.811 234.004C226.811 234.647 220.705 235.611 220.705 235.611C220.705 235.611 225.686 239.146 225.365 240.271C225.044 241.396 221.348 241.548 221.348 241.548C221.348 241.548 223.919 244.449 223.116 245.895C222.313 247.341 217.492 245.895 217.492 245.895L215.242 249.798C215.242 249.798 219.902 252.001 217.492 254.411C215.082 256.821 213.153 256.339 213.153 256.339C213.153 256.339 214.599 261.159 205.279 257.303C205.279 257.303 201.583 267.105 192.906 261.641C192.906 261.641 175.392 265.738 160.448 264.573C160.448 264.573 151.45 269.273 152.575 264.573C152.575 264.573 148.236 269.996 147.594 265.336C146.951 260.676 143.577 258.909 143.577 258.909C143.577 258.909 123.01 258.427 118.671 253.767C118.671 253.767 107.262 259.23 105.174 257.623C103.085 256.016 109.03 245.893 109.03 245.893C109.03 245.893 98.586 250.071 98.104 246.696C97.622 243.322 102.282 239.626 102.282 239.626C102.282 239.626 93.284 243.482 93.123 239.626C92.962 235.77 99.229 233.038 99.229 233.038C99.229 233.038 86.856 232.235 88.142 228.7C89.427 225.165 96.658 224.844 96.658 224.844C96.658 224.844 84.446 219.059 85.089 217.453C85.732 215.846 104.853 208.937 107.263 205.402C109.673 201.869 108.87 185.961 108.87 185.961Z" fill="#F7931E"/>
<path d="M114.654 176.481C114.654 176.481 110.476 163.144 114.654 160.252C118.832 157.36 130.24 168.367 130.24 168.367C130.24 168.367 123.653 169.089 114.654 176.481Z" fill="#F7E4C1"/>
<path d="M188.247 159.768C188.247 159.768 199.816 151.254 202.709 152.7C205.601 154.146 203.512 168.124 203.512 168.124C203.512 168.124 196.764 161.533 188.247 159.768Z" fill="#F7E4C1"/>
<path d="M107.888 204.016C107.888 204.016 102.71 205.083 102.71 198.334C102.71 191.585 108.997 192.334 108.997 192.334C108.997 192.334 137.953 192.014 140.631 191.479V197.659C140.631 197.659 116.345 196.615 108.938 195.44C108.938 195.44 104.024 196.87 108.509 201.03L107.888 204.016Z" fill="#C1272D"/>
<path d="M170.197 195.763C170.197 195.763 181.338 191.585 190.979 195.763V198.87C190.979 198.87 184.98 194.585 170.197 199.834V195.763Z" fill="#C1272D"/>
<path d="M190.979 187.514V201.081C190.979 204.829 193.968 207.867 197.655 207.867H215.998C218.243 207.867 220.063 206.017 220.063 203.735V187.514H190.979Z" fill="#FFAF5F"/>
<path d="M169.769 312.954C167.091 312.311 168.966 308.241 168.966 308.241C168.966 308.241 165.913 308.991 163.342 307.843C160.771 306.695 163.985 302.028 163.985 302.028C163.985 302.028 158.522 303.635 157.129 302.028C155.736 300.421 160.128 296.672 155.094 298.296C152.133 299.251 151.618 297.261 151.696 295.46C149.844 296.542 147.91 297.525 145.828 298.296C137.444 301.4 134.715 297.409 134.313 296.712C134.286 296.666 134.221 296.662 134.19 296.705C133.09 298.211 119.242 317.402 124.798 336.152L124.859 336.361C128.75 340.207 131.099 338.557 131.099 338.557C131.099 338.557 131.099 342.413 131.956 343.592C132.813 344.77 134.955 340.271 134.955 340.271C134.955 340.271 136.883 344.663 138.597 344.663C140.311 344.663 140.847 340.164 140.847 340.164C140.847 340.164 145.239 344.449 146.417 344.02C147.595 343.592 146.069 339.976 146.069 339.976C154.759 339.366 166.498 324.97 173.955 314.469L174.302 311.883C174.302 311.883 172.447 313.597 169.769 312.954Z" fill="#F7931E"/>
<path d="M134.258 296.611C116.422 280.482 123.544 260.23 123.544 260.23C76.6779 294.246 124.853 336.356 124.858 336.36C119.073 316.838 134.258 296.611 134.258 296.611Z" fill="#00A99D"/>
<path d="M198.48 296.443C198.48 296.443 197.718 302.6 206.856 302.279C215.994 301.958 217.009 296.443 217.009 296.443H198.48Z" fill="#FF0000"/>
<path d="M219.276 296.687C219.276 296.687 221.842 301.914 233.104 300.173C244.366 298.432 240.384 293.8 240.384 293.8L219.276 296.687Z" fill="#FF0000"/>
<path d="M270.358 422.878C270.358 422.878 283.318 426.718 290.71 415.149C298.101 403.58 307.798 373.765 299.387 369.729C299.387 369.729 298.852 365.98 294.459 366.087C290.067 366.194 270.358 422.878 270.358 422.878Z" fill="#F7E4C1"/>
<path d="M215.998 209.327H197.655C193.169 209.327 189.52 205.628 189.52 201.081V186.054H221.523V203.735C221.522 206.819 219.044 209.327 215.998 209.327ZM192.438 188.974V201.081C192.438 204.018 194.778 206.408 197.654 206.408H215.997C217.434 206.408 218.602 205.209 218.602 203.735V188.973L192.438 188.974Z" fill="#C1272D"/>
<path d="M171.858 256.983C171.858 256.983 183.909 266.945 194.193 256.18C194.193 256.18 213.475 247.503 217.01 230.792C217.01 230.792 207.616 211.671 196.245 207.654C196.245 207.654 193.39 198.495 184.873 197.692C176.357 196.889 166.876 210.868 166.876 210.868C166.876 210.868 150.647 214.885 136.025 231.275C136.025 231.275 140.364 256.501 171.858 256.983Z" fill="#F7E4C1"/>
<path d="M190.336 212.474C190.336 212.474 184.23 207.814 181.659 212.474C179.088 217.134 187.444 224.043 190.336 224.364C190.336 224.364 191.782 216.17 190.336 212.474Z" fill="#EF795E"/>
<path d="M196.245 211.188C196.245 211.188 198.371 221.632 190.337 224.364C190.337 224.364 191.623 216.651 190.337 212.474C190.337 212.474 194.601 207.493 196.245 211.188Z" fill="#E56A55"/>
<path d="M168.965 239.951C168.965 239.951 189.771 237.382 190.336 227.096C190.336 227.096 192.104 230.952 197.406 234.327C197.406 234.327 191.533 245.88 190.979 252.549C190.424 259.218 182.142 258.59 182.142 258.59C182.142 258.59 173.143 255.537 168.965 239.951Z" fill="#772C32"/>
<path d="M183.186 250.877C183.186 250.877 179.257 243.411 171.621 247.224C171.621 247.224 175.674 256.273 182.142 258.589C182.142 258.589 183.514 258.619 184.234 258.514C184.234 258.514 184.933 255.115 183.186 250.877Z" fill="#F15A24"/>
<path d="M174.14 238.962C174.14 238.962 175.072 243.111 177.375 243.111C179.678 243.111 180.621 236.925 180.621 236.925C180.621 236.925 176.392 238.467 174.14 238.962Z" fill="#F9EDE1"/>
<path d="M194.66 232.288C194.66 232.288 196.362 233.724 199.642 234.554C199.642 234.554 198.839 239.589 196.536 239.696C194.233 239.803 194.66 232.288 194.66 232.288Z" fill="#F9EDE1"/>
<path d="M190.979 252.549C190.979 252.549 190.122 249.631 188.837 249.799C187.551 249.967 188.001 257.356 188.001 257.356C188.001 257.356 190.798 256.16 190.979 252.549Z" fill="#F9EDE1"/>
<path d="M140.632 187.514V201.081C140.632 204.829 143.67 207.867 147.418 207.867H166.065C168.347 207.867 170.197 206.017 170.197 203.735V187.514H140.632Z" fill="#FFAF5F"/>
<path d="M166.065 209.327H147.418C142.871 209.327 139.172 205.628 139.172 201.081V186.054H171.657V203.735C171.657 206.819 169.148 209.327 166.065 209.327ZM142.091 188.974V201.081C142.091 204.018 144.481 206.408 147.418 206.408H166.065C167.539 206.408 168.738 205.209 168.738 203.735V188.973L142.091 188.974Z" fill="#C1272D"/>
<path d="M177.645 255.723C177.645 255.723 178.132 252.109 179.525 252.056C180.918 252.002 181.297 258.243 181.297 258.243C181.297 258.243 179.257 257.362 177.645 255.723Z" fill="#F9EDE1"/>
<path d="M189.452 293.565C189.452 293.565 191.664 297.348 195.874 298.295C200.084 299.242 220.652 298.064 224.08 297.314C227.508 296.564 239.506 296.569 242.077 295.763C244.648 294.957 242.827 288.101 242.827 288.101C242.827 288.101 193.816 287.995 189.452 293.565Z" fill="#7C3606"/>
<path d="M191.515 291.53C191.515 291.53 193.592 294.208 195.874 293.887C198.156 293.566 199.442 292.976 200.888 293.914C202.334 294.851 205.441 296.351 207.048 294.958C208.655 293.565 211.226 292.173 211.226 292.173C211.226 292.173 213.69 292.418 214.654 293.527C215.618 294.636 217.439 296.497 218.51 295.46C219.581 294.422 221.509 291.744 222.474 291.53C223.438 291.316 225.795 293.836 228.044 293.647C230.294 293.458 231.511 290.78 232.937 290.887C234.364 290.994 234.685 292.248 236.399 292.746C238.113 293.244 239.211 291.637 239.894 291.315C240.577 290.994 242.719 290.345 243.898 290.883C245.076 291.422 246.148 291.538 246.79 290.677C247.433 289.815 247.111 285.32 242.291 284.943C237.47 284.566 202 287.03 202 287.03L191.515 291.53Z" fill="#8CC621"/>
<path d="M195.874 283.067C197.513 283.924 217.76 282.853 220.33 282.531C222.901 282.21 240.79 281.995 243.897 279.746L231.792 271.926C231.792 271.926 206.767 270.105 195.873 274.925C195.873 274.925 194.839 278.221 194.512 281.59C194.948 282.27 195.416 282.828 195.874 283.067Z" fill="#C69C6D"/>
<path d="M194.835 286.495C194.835 286.495 195.07 290.03 198.381 290.137C201.691 290.244 243.469 288.209 243.897 286.495C244.325 284.781 243.897 279.746 243.897 279.746C240.79 281.996 222.901 282.21 220.33 282.531C217.759 282.852 197.513 283.924 195.874 283.067C195.416 282.827 194.948 282.27 194.513 281.59C194.341 283.362 194.364 285.153 194.835 286.495Z" fill="#8C6239"/>
<path d="M243.897 279.746L239.529 276.924C239.529 276.924 230.507 279.853 227.293 278.889C224.079 277.925 223.972 274.711 223.972 274.711C223.972 274.711 223.115 275.889 221.508 274.711C219.901 273.533 221.508 271.59 221.508 271.59L218.4 271.61C218.4 271.61 220.007 265.606 231.148 266.57C242.29 267.534 243.896 273.106 243.896 273.106C243.896 273.106 245.825 276.961 243.897 279.746Z" fill="#F7E4C1"/>
<path d="M201.986 276.78C201.504 272.394 197.407 272.865 197.407 272.865C195.238 268.661 188.248 272.972 188.248 272.972C182.222 271.526 170.198 285.264 170.198 285.264C163.328 286.94 157.992 291.781 151.695 295.461C151.617 297.262 152.132 299.251 155.093 298.297C160.128 296.673 155.736 300.423 157.128 302.029C158.521 303.636 163.984 302.029 163.984 302.029C163.984 302.029 160.77 306.696 163.341 307.844C165.912 308.992 168.965 308.242 168.965 308.242C168.965 308.242 167.09 312.313 169.768 312.955C172.446 313.598 174.301 311.884 174.301 311.884L173.954 314.47C178.287 308.369 181.175 303.582 181.175 303.582C190.251 304.063 202.468 281.166 201.986 276.78Z" fill="#F7E4C1"/>
<path d="M299.387 369.729C298.285 368.772 296.391 369.315 296.391 369.315C296.391 369.315 297.566 368.337 294.46 366.087C291.353 363.837 288.461 367.694 288.461 367.694C283.105 365.444 276.57 379.049 276.57 379.049C276.57 379.049 265.426 377.142 258.463 375.963C251.5 374.785 239.104 372.997 239.104 372.997C238.189 373.607 233.688 375.587 225.2 377.628C222.904 381.023 220.333 384.868 219.259 386.64C217.117 390.175 207.047 397.995 202.441 399.602C197.835 401.209 176.517 400.566 172.554 397.888C168.59 395.21 158.95 388.354 154.022 385.141C152.214 383.962 149.353 381.845 146.456 379.638C135.561 378.132 128.014 376.602 128.014 376.602C128.014 376.602 114.387 367.694 108.71 367.694C103.033 367.694 91.463 374.336 91.463 374.336C88.785 379.371 92.963 426.612 101.961 428.54C110.959 430.468 131.955 422.113 132.491 422.006C133.027 421.899 146.524 427.255 151.452 426.934C156.38 426.613 164.092 425.006 164.092 425.006C181.339 431.219 216.903 425.434 222.366 422.882C227.829 420.329 249.896 418.901 249.896 418.901L262.751 420.615C277.32 428.97 288.246 413.009 295.745 392.763C303.243 372.514 300.817 370.972 299.387 369.729Z" fill="#F7931E"/>
<path d="M172.554 397.887C176.518 400.565 197.835 401.208 202.441 399.601C207.047 397.994 217.117 390.174 219.259 386.639C220.333 384.867 222.903 381.021 225.2 377.627C218.037 379.35 208.034 381.115 194.944 382.136C179.034 383.377 160.114 381.525 146.456 379.636C149.354 381.843 152.214 383.96 154.022 385.139C158.949 388.353 168.59 395.209 172.554 397.887Z" fill="#F7E4C1"/>
<path d="M116.85 387.518C116.85 387.518 114.815 364.039 101.746 363.938C88.6771 363.837 109.298 395.867 109.298 395.867L94.8931 429.76C94.8931 429.76 112.351 434.646 116.315 414.614C120.278 394.581 116.85 387.518 116.85 387.518Z" fill="#F7931E"/>
<path d="M74.002 380.977C74.002 380.977 77.216 369.836 81.072 368.444C84.928 367.051 84.928 368.98 84.928 368.98C84.928 368.98 86.749 363.731 91.677 363.945C96.605 364.159 96.712 367.694 96.712 367.694C96.712 367.694 97.997 362.766 102.711 364.48C107.424 366.194 111.281 380.334 111.281 380.334C111.281 380.334 123.064 422.754 101.961 428.539C80.857 434.324 66.396 420.719 74.002 380.977Z" fill="#F7E4C1"/>
<path d="M88.2489 394.26C88.2489 394.26 77.8579 395.331 78.1799 405.294C78.5009 415.256 84.4409 422.969 93.2549 422.541C102.068 422.112 106.18 412.388 106.561 406.901C106.941 401.414 104.96 391.154 88.2489 394.26Z" fill="#EF795E"/>
<path d="M81.2779 373.705C80.3179 373.745 79.5189 374.46 79.2729 375.389C78.4519 378.488 76.4739 387.571 80.4289 390.94C84.8299 394.689 86.8329 373.472 81.2779 373.705Z" fill="#EF795E"/>
<path d="M93.1259 372.514C92.1099 371.245 90.0629 371.689 89.5799 373.242C88.4499 376.882 86.0479 386.144 90.0689 388.368C94.1609 390.631 96.2709 376.441 93.1259 372.514Z" fill="#EF795E"/>
<path d="M103.672 374.468C102.706 372.558 99.9399 372.668 99.0969 374.636C97.1769 379.115 94.6659 386.916 100.14 387.519C105.954 388.159 106.106 379.28 103.672 374.468Z" fill="#EF795E"/>
<path d="M201.255 235.637C200.718 235.637 200.173 235.59 199.628 235.494C197.325 235.089 195.015 233.862 192.763 231.849C192.035 231.199 190.987 230.186 190.285 228.907C189.568 227.6 189.316 226.185 189.575 224.924C189.655 224.529 190.04 224.274 190.436 224.356C190.831 224.437 191.085 224.823 191.004 225.217C190.815 226.14 191.014 227.201 191.564 228.206C192.022 229.041 192.692 229.829 193.735 230.762C195.782 232.592 197.85 233.701 199.881 234.058C202.254 234.476 204.681 233.755 206.061 232.222C206.331 231.923 206.792 231.899 207.092 232.168C207.391 232.438 207.416 232.899 207.146 233.199C205.737 234.762 203.573 235.637 201.255 235.637Z" fill="#612929"/>
<path d="M167.551 240.691C165.328 240.691 163.108 240.457 160.935 239.979C160.541 239.892 160.292 239.503 160.379 239.109C160.466 238.715 160.856 238.468 161.248 238.553C169.549 240.379 178.597 238.47 185.452 233.446C188.053 231.54 189.404 229.657 189.583 227.69C189.619 227.288 189.98 226.992 190.376 227.029C190.777 227.066 191.073 227.42 191.037 227.822C190.818 230.23 189.274 232.455 186.316 234.623C180.922 238.577 174.231 240.691 167.551 240.691Z" fill="#612929"/>
<path d="M145.991 264.86C145.863 264.86 145.734 264.827 145.616 264.756C143.274 263.351 141.235 261.545 139.557 259.389C139.309 259.071 139.366 258.612 139.685 258.365C140.003 258.117 140.462 258.174 140.709 258.493C142.276 260.507 144.18 262.193 146.367 263.505C146.713 263.712 146.825 264.16 146.617 264.506C146.481 264.733 146.239 264.86 145.991 264.86Z" fill="#612929"/>
<path d="M170.09 270.51C163.23 270.51 156.378 269.337 149.987 266.965C149.609 266.825 149.417 266.405 149.557 266.027C149.697 265.649 150.117 265.457 150.495 265.597C164.917 270.948 181.746 270.043 195.511 263.174C195.872 262.994 196.31 263.14 196.49 263.501C196.67 263.862 196.524 264.3 196.163 264.48C188.143 268.482 179.109 270.51 170.09 270.51Z" fill="#612929"/>
<path d="M124.893 337.001C124.56 337.001 124.259 336.771 124.182 336.432C122.612 329.501 122.663 322.061 124.33 314.915C125.938 308.023 129.015 301.551 133.246 296.147C128.389 292.41 124.734 287.186 122.915 281.356C122.795 280.971 123.01 280.562 123.394 280.442C123.779 280.322 124.188 280.537 124.308 280.921C126.109 286.695 129.805 291.846 134.714 295.424L135.335 295.877L134.851 296.474C130.514 301.824 127.368 308.316 125.75 315.248C124.133 322.18 124.082 329.394 125.604 336.111C125.693 336.504 125.446 336.895 125.054 336.984C125.001 336.995 124.947 337.001 124.893 337.001Z" fill="#612929"/>
<path d="M200.618 274.491C200.302 274.491 200.01 274.284 199.917 273.965C199.804 273.578 200.027 273.173 200.414 273.06C207.051 271.13 214.19 270.52 221.058 271.295C221.459 271.34 221.747 271.702 221.702 272.102C221.657 272.503 221.297 272.791 220.895 272.746C214.216 271.992 207.275 272.586 200.822 274.462C200.754 274.482 200.686 274.491 200.618 274.491Z" fill="#612929"/>
<path d="M244.317 280.476C244.267 280.304 244.208 280.124 244.136 279.966C244.033 279.741 243.907 279.491 243.748 279.3C243.657 279.19 243.592 279.162 243.507 279.117C243.164 278.931 242.983 278.661 242.925 278.373C241.996 277.575 240.929 276.947 239.769 276.533C239.39 276.398 238.972 276.596 238.836 276.975C238.7 277.355 238.898 277.772 239.278 277.908C240.271 278.263 241.188 278.798 241.983 279.482C228.255 281.139 214.286 282.281 200.439 282.878C200.036 282.895 199.724 283.236 199.741 283.638C199.758 284.03 200.081 284.336 200.47 284.336C200.48 284.336 200.491 284.336 200.502 284.335C214.881 283.715 229.391 282.509 243.629 280.75L244.363 280.659C244.348 280.598 244.335 280.537 244.317 280.476Z" fill="#612929"/>
<path d="M196.346 290.989C195.958 290.989 195.635 290.683 195.617 290.292C195.599 289.889 195.911 289.548 196.313 289.53L235.275 287.778C237.334 287.685 239.897 287.57 241.743 286.298C242.707 285.634 243.427 284.461 243.578 283.31C243.653 282.734 243.619 281.902 243.03 281.213C242.768 280.906 242.804 280.446 243.11 280.184C243.416 279.922 243.877 279.958 244.139 280.264C244.871 281.12 245.185 282.269 245.025 283.499C244.82 285.065 243.88 286.598 242.571 287.5C240.38 289.009 237.586 289.135 235.341 289.236L196.379 290.988C196.368 290.988 196.357 290.989 196.346 290.989Z" fill="#612929"/>
<path d="M217.736 296.25C216.747 296.25 215.662 295.778 214.495 294.837C214.393 294.755 214.291 294.671 214.188 294.587C213.308 293.867 212.477 293.187 211.542 293.152C210.545 293.116 209.605 293.823 208.611 294.574C207.412 295.48 206.053 296.506 204.389 296.174C203.561 296.009 202.894 295.528 202.306 295.103C201.846 294.771 201.411 294.457 200.951 294.315C200.151 294.068 199.189 294.285 198.17 294.516C196.727 294.842 195.091 295.211 193.835 294.052C193.539 293.779 193.52 293.317 193.793 293.021C194.066 292.725 194.528 292.706 194.824 292.979C195.47 293.575 196.398 293.419 197.848 293.092C198.954 292.843 200.209 292.559 201.38 292.921C202.069 293.134 202.623 293.533 203.159 293.92C203.672 294.29 204.156 294.64 204.673 294.743C205.695 294.948 206.638 294.235 207.729 293.41C208.829 292.579 210.079 291.636 211.594 291.695C213.019 291.748 214.13 292.657 215.11 293.459C215.21 293.541 215.309 293.622 215.408 293.702C216.573 294.641 217.534 294.974 218.268 294.694C218.824 294.481 219.243 293.909 219.687 293.303C220.22 292.575 220.824 291.75 221.811 291.397C223.216 290.894 224.507 291.6 225.645 292.223C226.529 292.707 227.363 293.163 228.154 293.064C228.882 292.973 229.615 292.395 230.324 291.836C231.407 290.982 232.634 290.014 234.149 290.583C234.772 290.817 235.225 291.27 235.624 291.669C235.996 292.041 236.316 292.362 236.675 292.435C237.209 292.545 237.683 292.143 238.414 291.48C238.982 290.965 239.626 290.381 240.439 290.134C241.454 289.826 242.481 290.114 243.387 290.368C244.287 290.62 245.064 290.837 245.637 290.486C246.309 290.074 246.341 288.941 245.92 288.202C245.395 287.28 244.353 286.656 243.434 286.105C243.088 285.898 242.976 285.45 243.183 285.104C243.39 284.758 243.838 284.646 244.184 284.853C245.204 285.464 246.473 286.225 247.188 287.48C247.957 288.829 247.823 290.859 246.4 291.731C245.285 292.414 244.068 292.074 242.994 291.774C242.21 291.555 241.47 291.347 240.862 291.532C240.363 291.683 239.892 292.11 239.394 292.562C238.585 293.296 237.67 294.129 236.384 293.866C235.594 293.706 235.061 293.172 234.591 292.701C234.268 292.378 233.963 292.072 233.636 291.95C232.929 291.684 232.259 292.169 231.227 292.983C230.402 293.633 229.466 294.37 228.336 294.512C227.076 294.67 225.945 294.05 224.945 293.503C223.951 292.959 223.093 292.489 222.303 292.772C221.738 292.974 221.314 293.553 220.865 294.166C220.341 294.881 219.748 295.691 218.791 296.058C218.454 296.185 218.102 296.25 217.736 296.25Z" fill="#612929"/>
<path d="M206.889 304.535C203.447 304.535 200.007 304.455 196.573 304.295C194.657 304.205 192.66 304.016 191.156 302.8C190.2 302.027 189.611 300.72 189.655 299.47C189.69 298.47 190.122 297.632 190.869 297.111C191.2 296.881 191.655 296.962 191.885 297.292C192.115 297.622 192.034 298.077 191.704 298.308C191.24 298.631 191.127 299.146 191.114 299.522C191.086 300.317 191.471 301.178 192.074 301.665C193.236 302.605 194.897 302.755 196.641 302.837C211.364 303.523 226.214 302.726 240.777 300.469C241.771 300.315 242.642 300.146 243.238 299.636C243.87 299.096 244.191 298.131 244.096 297.055C244.002 295.991 243.553 294.943 243.119 293.93C242.96 293.559 243.132 293.131 243.502 292.972C243.872 292.814 244.301 292.985 244.46 293.355C244.917 294.421 245.435 295.63 245.549 296.927C245.685 298.472 245.175 299.899 244.185 300.746C243.225 301.567 241.939 301.766 240.999 301.912C229.738 303.657 218.304 304.535 206.889 304.535Z" fill="#612929"/>
<path d="M188.245 276.004C188.061 276.004 187.877 275.935 187.735 275.796C187.447 275.514 187.441 275.053 187.723 274.764C189.006 273.45 190.46 271.96 192.408 271.282C194.352 270.605 197.042 270.986 198.201 273.023C198.4 273.373 198.278 273.819 197.928 274.018C197.578 274.217 197.132 274.095 196.933 273.745C196.193 272.443 194.295 272.172 192.889 272.661C191.266 273.226 189.939 274.585 188.769 275.784C188.624 275.93 188.434 276.004 188.245 276.004Z" fill="#612929"/>
<path d="M179.164 304.639C178.801 304.639 178.486 304.368 178.441 303.998C178.392 303.598 178.677 303.234 179.077 303.185C185.804 302.363 190.498 297.399 192.698 294.513C196.131 290.008 198.307 284.642 200.412 279.452C200.938 278.155 201.452 276.68 200.894 275.584C200.292 274.403 198.569 274.101 197.318 274.499C195.832 274.972 194.598 276.186 193.509 277.258C193.222 277.54 192.76 277.537 192.477 277.25C192.194 276.963 192.198 276.5 192.485 276.218C193.691 275.032 195.057 273.688 196.875 273.109C198.735 272.516 201.233 273.033 202.195 274.922C203.032 276.565 202.412 278.405 201.765 280.001C199.624 285.28 197.411 290.738 193.859 295.398C189.821 300.696 184.634 303.976 179.254 304.634C179.223 304.637 179.193 304.639 179.164 304.639Z" fill="#612929"/>
<path d="M229.396 279.291C229.087 279.291 228.777 279.285 228.466 279.272C227.627 279.238 226.647 279.148 225.742 278.741C224.699 278.271 223.935 277.417 223.698 276.455C223.337 274.988 224.208 273.558 225.231 272.792C226.255 272.025 227.489 271.706 228.578 271.425C228.97 271.324 229.366 271.559 229.467 271.949C229.568 272.339 229.334 272.737 228.943 272.838C227.938 273.098 226.899 273.367 226.106 273.961C225.488 274.424 224.915 275.292 225.115 276.107C225.245 276.637 225.704 277.124 226.341 277.411C227.018 277.716 227.825 277.786 228.524 277.815C232.019 277.956 235.435 277.208 239.216 276.289C239.608 276.194 240.003 276.434 240.098 276.826C240.193 277.218 239.953 277.612 239.561 277.708C236 278.573 232.749 279.291 229.396 279.291Z" fill="#612929"/>
<path d="M223.225 275.496C222.97 275.496 222.709 275.476 222.446 275.425C221.584 275.255 220.886 274.74 220.579 274.048C220.246 273.299 220.379 272.364 220.927 271.608C221.37 270.997 222.001 270.588 222.559 270.269C224.103 269.386 225.769 268.758 227.512 268.4C227.907 268.319 228.293 268.574 228.373 268.968C228.454 269.363 228.2 269.749 227.805 269.829C226.214 270.155 224.693 270.729 223.284 271.535C222.839 271.789 222.388 272.078 222.109 272.464C221.873 272.789 221.794 273.187 221.913 273.454C222.025 273.705 222.345 273.916 222.729 273.992C223.18 274.081 223.7 274.015 224.203 273.953C224.601 273.904 224.967 274.186 225.018 274.586C225.068 274.986 224.785 275.351 224.385 275.401C224.022 275.447 223.631 275.496 223.225 275.496Z" fill="#612929"/>
<path d="M172.117 324.952C171.777 324.952 171.473 324.713 171.402 324.367C171.322 323.972 171.577 323.587 171.972 323.506C186.217 320.618 200.713 320.333 215.06 322.662C215.458 322.726 215.728 323.101 215.663 323.499C215.598 323.897 215.223 324.166 214.826 324.102C200.653 321.802 186.333 322.082 172.262 324.936C172.214 324.947 172.165 324.952 172.117 324.952Z" fill="#612929"/>
<path d="M297.444 369.129C297.371 369.078 297.291 369.042 297.209 369.021C296.915 367.398 295.776 365.931 294.207 365.346C292.313 364.64 290.053 365.313 288.809 366.882C287.577 366.612 286.206 366.91 284.808 367.757C283.493 368.553 282.231 369.809 281.345 371.201C281.049 371.667 280.759 372.157 280.479 372.63C279.241 374.722 278.072 376.697 276.066 377.419C274.586 377.951 272.857 377.665 271.333 377.413L239.82 372.193C239.423 372.128 239.046 372.396 238.981 372.794C238.915 373.192 239.184 373.567 239.582 373.633L271.095 378.853C272.013 379.005 273.059 379.178 274.128 379.178C274.941 379.178 275.767 379.078 276.561 378.792C279.062 377.892 280.421 375.595 281.736 373.373C282.023 372.888 282.294 372.43 282.578 371.984C284.073 369.634 286.83 367.655 288.855 368.412L289.425 368.625L289.737 368.103C290.51 366.81 292.287 366.186 293.699 366.712C294.345 366.953 294.888 367.427 295.265 368.012C295.282 368.032 295.3 368.05 295.317 368.072C296.238 369.237 296.491 370.6 296.355 371.969L297.628 370.144C297.856 369.814 297.775 369.359 297.444 369.129Z" fill="#612929"/>
<path d="M92.9289 430.856C90.6469 430.856 88.3009 430.366 85.9799 429.393C82.3439 427.869 79.0679 425.25 76.7539 422.02C72.8199 416.527 70.8709 409.039 70.9589 399.762C71.0399 391.296 72.5829 382.982 75.5469 375.051C76.4759 372.565 77.6469 370.072 79.9039 368.676C81.2939 367.816 83.1309 367.617 84.6979 368.156C85.9359 368.582 86.8429 369.429 87.2529 370.539C87.3919 370.917 87.1989 371.337 86.8209 371.476C86.4439 371.615 86.0229 371.422 85.8839 371.044C85.5569 370.157 84.7999 369.734 84.2229 369.535C83.0779 369.141 81.6839 369.29 80.6719 369.916C78.7879 371.081 77.7529 373.318 76.9139 375.561C74.0099 383.332 72.4969 391.479 72.4189 399.774C72.3329 408.735 74.1909 415.933 77.9409 421.169C83.1689 428.468 91.5299 430.514 97.0869 428.762L97.2089 428.724L97.3369 428.729C104.877 429.04 112.973 427.831 120.755 425.227C121.284 425.05 121.813 424.866 122.342 424.683C124.728 423.855 127.195 422.999 129.777 422.719C133.192 422.348 136.593 423.001 139.882 423.632C140.345 423.721 140.807 423.81 141.269 423.895C151.684 425.828 162.459 426.292 172.879 426.74C186.995 427.347 201.593 427.975 215.523 424.454C227.954 419.879 241.507 418.403 254.719 420.185C255.937 420.349 257.181 420.543 258.384 420.731C263.956 421.599 269.717 422.497 274.992 420.805C279.636 419.315 283.992 415.66 287.258 410.516C290.238 405.822 292.101 400.454 293.902 395.264L300.034 377.595C300.477 376.32 300.935 375.001 300.849 373.694C300.78 372.64 300.197 371.345 299.081 370.992C298.6 370.84 297.979 370.984 297.537 371.351C297.342 371.513 297.024 371.853 297.08 372.316C297.128 372.716 296.843 373.08 296.443 373.128C296.04 373.176 295.679 372.892 295.63 372.491C295.528 371.65 296.271 369.891 296.992 369.292C297.814 368.61 299.47 368.945 300.42 369.245C302.198 369.808 302.2 372.012 302.304 373.597C302.409 375.199 301.879 376.725 301.412 378.072L295.28 395.74C293.451 401.01 291.56 406.459 288.49 411.296C286.05 415.139 281.806 420.149 275.438 422.193C269.834 423.991 263.899 423.067 258.159 422.172C256.963 421.986 255.727 421.793 254.524 421.631C241.535 419.879 228.211 421.332 215.992 425.836L215.919 425.859C201.769 429.443 187.051 428.81 172.817 428.197C162.346 427.747 151.519 427.281 141.003 425.329C140.539 425.243 140.073 425.154 139.608 425.064C136.424 424.453 133.133 423.822 129.935 424.169C127.517 424.432 125.129 425.26 122.821 426.061C122.287 426.246 121.754 426.432 121.219 426.61C113.313 429.255 105.08 430.493 97.4039 430.191C95.9589 430.636 94.4589 430.856 92.9289 430.856Z" fill="#612929"/>
<path d="M85.408 369.773C85.379 369.773 85.349 369.771 85.32 369.768C84.92 369.72 84.635 369.356 84.683 368.956C85.076 365.699 87.95 363.006 91.225 362.824C94.497 362.641 97.654 365.001 98.406 368.194C98.498 368.586 98.255 368.979 97.863 369.072C97.47 369.165 97.078 368.921 96.985 368.529C96.4 366.045 93.85 364.142 91.306 364.282C88.759 364.423 86.438 366.599 86.132 369.131C86.086 369.501 85.771 369.773 85.408 369.773Z" fill="#612929"/>
<path d="M121.378 378.605C121.23 378.605 121.08 378.56 120.951 378.467C118.21 376.486 115.729 374.136 113.329 371.864C111.627 370.253 109.867 368.586 108.04 367.079C106.486 365.796 104.781 364.573 102.853 364.311C101.163 364.083 99.0319 364.892 98.5379 366.601C98.4259 366.988 98.0219 367.211 97.6339 367.1C97.2469 366.988 97.0239 366.584 97.1349 366.196C97.8539 363.706 100.707 362.547 103.048 362.865C105.338 363.176 107.247 364.533 108.968 365.954C110.833 367.493 112.611 369.177 114.331 370.805C116.696 373.044 119.142 375.36 121.805 377.284C122.132 377.52 122.205 377.977 121.969 378.303C121.828 378.5 121.605 378.605 121.378 378.605Z" fill="#612929"/>
<path d="M229.136 389.798C228.859 389.798 228.595 389.64 228.472 389.372C228.304 389.006 228.465 388.572 228.831 388.404C229.962 387.886 230.772 386.703 230.847 385.462C230.871 385.059 231.225 384.757 231.619 384.778C232.021 384.802 232.328 385.148 232.303 385.55C232.196 387.314 231.045 388.995 229.438 389.732C229.341 389.776 229.238 389.798 229.136 389.798Z" fill="#612929"/>
<path d="M232.176 390.645C231.927 390.645 231.684 390.518 231.548 390.288C231.342 389.942 231.456 389.494 231.802 389.288C232.733 388.734 233.349 387.634 233.335 386.551C233.33 386.148 233.652 385.817 234.055 385.811C234.455 385.804 234.789 386.128 234.795 386.531C234.816 388.143 233.934 389.718 232.549 390.542C232.431 390.612 232.302 390.645 232.176 390.645Z" fill="#612929"/>
<path d="M143.053 405.206C142.949 405.206 142.844 405.184 142.744 405.137C140.698 404.179 139.519 401.71 140.058 399.517C140.154 399.126 140.549 398.886 140.941 398.983C141.332 399.079 141.571 399.474 141.475 399.866C141.102 401.382 141.949 403.154 143.363 403.816C143.728 403.987 143.885 404.421 143.714 404.786C143.59 405.05 143.327 405.206 143.053 405.206Z" fill="#612929"/>
<path d="M146.664 403.989C146.597 403.989 146.53 403.98 146.462 403.96C144.379 403.361 142.894 401.278 143.008 399.114C143.029 398.711 143.375 398.397 143.775 398.423C144.177 398.444 144.487 398.788 144.466 399.19C144.388 400.669 145.443 402.148 146.866 402.557C147.253 402.668 147.477 403.073 147.366 403.46C147.273 403.781 146.981 403.989 146.664 403.989Z" fill="#612929"/>
<path d="M157.615 318.348C157.333 318.348 157.064 318.183 156.945 317.908C156.785 317.538 156.955 317.108 157.325 316.948C158.662 316.369 159.764 315.208 160.273 313.843C160.414 313.465 160.834 313.275 161.212 313.414C161.59 313.555 161.782 313.975 161.641 314.353C160.986 316.109 159.625 317.543 157.905 318.288C157.81 318.329 157.711 318.348 157.615 318.348Z" fill="#612929"/>
<path d="M160.358 320.028C160.124 320.028 159.895 319.916 159.754 319.708C159.528 319.375 159.614 318.921 159.948 318.694C161.196 317.846 162.073 316.51 162.354 315.027C162.429 314.631 162.809 314.37 163.207 314.446C163.603 314.521 163.863 314.903 163.788 315.299C163.435 317.16 162.335 318.837 160.768 319.901C160.642 319.987 160.499 320.028 160.358 320.028Z" fill="#612929"/>
<path d="M252.42 308.615C252.282 308.615 252.143 308.576 252.019 308.495C250.175 307.282 249.003 305.072 249.032 302.865C249.037 302.465 249.363 302.145 249.761 302.145C249.764 302.145 249.768 302.145 249.771 302.145C250.174 302.15 250.496 302.481 250.491 302.884C250.468 304.605 251.383 306.329 252.821 307.275C253.158 307.497 253.251 307.949 253.029 308.286C252.89 308.499 252.658 308.615 252.42 308.615Z" fill="#612929"/>
<path d="M254.123 305.951C254.017 305.951 253.91 305.928 253.809 305.879C252.361 305.186 251.347 303.704 251.226 302.103C251.196 301.701 251.497 301.351 251.899 301.32C252.304 301.291 252.651 301.591 252.682 301.992C252.763 303.065 253.469 304.097 254.44 304.562C254.804 304.736 254.957 305.172 254.783 305.535C254.657 305.798 254.395 305.951 254.123 305.951Z" fill="#612929"/>
<path d="M196.23 174.422C196.171 174.422 196.111 174.415 196.052 174.4C195.661 174.302 195.424 173.906 195.521 173.515C195.819 172.326 195.51 171.009 194.713 170.077C194.451 169.771 194.487 169.31 194.793 169.048C195.099 168.786 195.56 168.822 195.822 169.128C196.921 170.413 197.348 172.23 196.936 173.869C196.855 174.201 196.557 174.422 196.23 174.422Z" fill="#612929"/>
<path d="M199.496 174.042C199.444 174.042 199.39 174.036 199.337 174.024C198.944 173.936 198.696 173.546 198.784 173.153C199.041 172 198.712 170.736 197.926 169.854C197.658 169.553 197.684 169.092 197.985 168.824C198.286 168.556 198.747 168.582 199.015 168.883C200.108 170.109 200.565 171.867 200.208 173.471C200.132 173.811 199.83 174.042 199.496 174.042Z" fill="#612929"/>
<path d="M179.503 221.978C179.351 221.978 179.199 221.931 179.068 221.833C174.571 218.486 167.977 217.993 163.033 220.635C162.677 220.825 162.235 220.69 162.045 220.335C161.855 219.98 161.989 219.537 162.344 219.347C167.855 216.402 174.926 216.93 179.938 220.662C180.261 220.903 180.328 221.36 180.088 221.683C179.946 221.876 179.726 221.978 179.503 221.978Z" fill="#612929"/>
<path d="M165.626 227.88C165.411 227.88 165.199 227.786 165.055 227.605C164.804 227.29 164.856 226.831 165.171 226.58C168.57 223.872 173.483 223.319 177.398 225.204C177.761 225.379 177.914 225.815 177.739 226.178C177.564 226.541 177.128 226.694 176.765 226.519C173.344 224.872 169.05 225.356 166.08 227.722C165.946 227.828 165.785 227.88 165.626 227.88Z" fill="#612929"/>
<path d="M197.901 200.371C197.841 200.371 197.782 200.368 197.722 200.363C196.766 200.278 195.976 199.563 195.438 198.293C194.618 196.358 194.39 194.157 194.795 192.094C194.873 191.699 195.255 191.442 195.652 191.519C196.048 191.597 196.305 191.98 196.227 192.376C195.877 194.155 196.075 196.055 196.782 197.724C196.926 198.065 197.319 198.863 197.85 198.909C198.374 198.954 198.882 198.237 199.15 197.607C199.879 195.899 200.106 193.95 199.789 192.119C199.72 191.722 199.987 191.344 200.384 191.276C200.783 191.208 201.159 191.473 201.228 191.871C201.592 193.975 201.331 196.216 200.493 198.18C199.902 199.566 198.943 200.371 197.901 200.371Z" fill="#612929"/>
<path d="M155.593 201.965C154.935 201.965 154.29 201.638 153.872 201.19C153.312 200.59 153.075 199.821 152.896 199.148C152.329 197.008 152.022 194.8 151.982 192.587C151.975 192.184 152.296 191.851 152.699 191.844C152.704 191.844 152.708 191.844 152.712 191.844C153.109 191.844 153.434 192.162 153.442 192.561C153.479 194.657 153.771 196.747 154.308 198.774C154.447 199.299 154.61 199.841 154.94 200.194C155.186 200.458 155.576 200.578 155.792 200.456C156.014 200.331 156.161 199.956 156.275 199.606C157.029 197.292 157.269 194.792 156.97 192.377C156.921 191.977 157.205 191.613 157.605 191.563C158.003 191.513 158.369 191.798 158.419 192.198C158.744 194.824 158.483 197.543 157.663 200.059C157.462 200.676 157.167 201.358 156.508 201.728C156.213 201.893 155.901 201.965 155.593 201.965Z" fill="#612929"/>
<path d="M112.726 179.637C112.541 179.637 112.356 179.567 112.214 179.427C111.927 179.144 111.923 178.682 112.206 178.395C117.402 173.119 123.941 169.363 131.116 167.534C131.507 167.435 131.904 167.67 132.003 168.061C132.103 168.452 131.867 168.849 131.476 168.948C124.558 170.712 118.254 174.332 113.245 179.419C113.103 179.564 112.915 179.637 112.726 179.637Z" fill="#612929"/>
<path d="M204.219 171.064C203.947 171.064 203.686 170.911 203.561 170.65C200.55 164.375 193.331 160.206 186.388 160.736C185.988 160.766 185.635 160.466 185.605 160.064C185.574 159.662 185.875 159.311 186.277 159.281C193.911 158.696 201.563 163.112 204.877 170.019C205.051 170.382 204.898 170.818 204.535 170.993C204.433 171.04 204.325 171.064 204.219 171.064Z" fill="#612929"/>
<path d="M116.403 233.131C116.231 233.131 116.058 233.07 115.919 232.947C113.943 231.194 112.574 228.801 112.064 226.209C111.986 225.814 112.244 225.43 112.639 225.352C113.036 225.274 113.418 225.532 113.496 225.927C113.945 228.207 115.149 230.312 116.888 231.855C117.189 232.123 117.217 232.584 116.95 232.885C116.804 233.048 116.604 233.131 116.403 233.131Z" fill="#612929"/>
<path d="M120.902 231.525C120.804 231.525 120.704 231.505 120.608 231.463C118.371 230.476 116.582 228.499 115.823 226.174C115.698 225.791 115.907 225.379 116.29 225.254C116.672 225.129 117.085 225.338 117.21 225.721C117.843 227.658 119.333 229.305 121.197 230.128C121.566 230.291 121.733 230.722 121.57 231.09C121.45 231.363 121.182 231.525 120.902 231.525Z" fill="#612929"/>
<path d="M198.997 221.461C198.76 221.461 198.528 221.346 198.387 221.133C198.165 220.797 198.257 220.344 198.594 220.122C203.161 217.107 208.672 215.75 214.118 216.304C214.519 216.345 214.811 216.703 214.77 217.104C214.729 217.505 214.371 217.798 213.97 217.756C208.86 217.237 203.684 218.509 199.398 221.34C199.274 221.422 199.135 221.461 198.997 221.461Z" fill="#612929"/>
<path d="M200.426 225.165C200.136 225.165 199.861 224.991 199.748 224.705C199.599 224.331 199.782 223.906 200.157 223.757C204.15 222.169 208.621 221.957 212.747 223.16C213.134 223.273 213.356 223.678 213.243 224.065C213.13 224.452 212.726 224.675 212.338 224.561C208.524 223.449 204.389 223.645 200.696 225.113C200.607 225.149 200.516 225.165 200.426 225.165Z" fill="#612929"/>
<path d="M267.799 365.996C267.399 362.1 267.559 356.683 267.736 353.141H261.749L258.698 378.612C259.533 378.568 260.419 378.624 261.371 378.851C264.745 379.654 270.851 379.202 271.494 379.428C272.137 379.654 274.226 379.428 274.226 379.428C274.226 379.428 274.373 409.376 272.554 425.045C272.421 426.192 271.449 427.056 270.294 427.056H249.33C248.21 427.056 247.257 426.243 247.084 425.136C246.33 420.335 244.435 407.595 244.179 399.257C243.858 388.813 243.376 379.814 243.376 379.814C243.376 379.814 250.928 380.617 253.178 379.975C253.499 379.883 253.827 379.778 254.163 379.668L257.341 353.141H250.128C250.686 357.503 251.529 366.887 248.841 369.209C245.306 372.262 239.843 369.852 239.682 383.67C239.55 395.014 241.259 420.109 241.875 428.734C241.995 430.414 243.392 431.714 245.076 431.714H272.568C274.237 431.714 275.627 430.436 275.766 428.773C276.72 417.43 279.926 376.974 277.442 373.386C274.547 369.21 268.441 372.263 267.799 365.996Z" fill="#BBE2EF"/>
<path d="M249.074 422.135L254.161 379.668C253.826 379.778 253.497 379.883 253.176 379.975C250.926 380.618 243.374 379.814 243.374 379.814C243.374 379.814 243.856 388.812 244.177 399.257C244.434 407.594 246.328 420.334 247.082 425.136C247.256 426.242 248.209 427.056 249.328 427.056H270.292C271.447 427.056 272.418 426.192 272.552 425.045C274.371 409.376 274.224 379.428 274.224 379.428C274.224 379.428 272.135 379.654 271.492 379.428C270.849 379.202 264.743 379.654 261.369 378.851C260.417 378.624 259.53 378.568 258.696 378.612L253.42 422.656L249.074 422.135Z" fill="#F15A24"/>
<path d="M263.228 340.789C263.643 337.325 265.731 334.28 268.812 332.645L286.499 323.26L284.447 319.392L266.76 328.777C262.412 331.084 259.466 335.38 258.88 340.268L258.204 345.911H262.614L263.228 340.789Z" fill="#F7E2EA"/>
<path d="M254.161 379.669C255.513 379.226 256.996 378.703 258.698 378.612L261.749 353.141H257.339L254.161 379.669Z" fill="#9BC7D3"/>
<path d="M249.074 422.136L253.422 422.657L258.698 378.613C256.996 378.704 255.514 379.226 254.161 379.67L249.074 422.136Z" fill="#FF825C"/>
<path d="M262.615 345.911L262.129 349.965L261.749 353.142H267.736H271.494V345.911H262.615Z" fill="#D0F2FC"/>
<path d="M246.267 353.142H250.125H257.339L257.679 350.3L258.205 345.911H246.267V353.142Z" fill="#D0F2FC"/>
<path d="M258.205 345.911L257.679 350.3L257.339 353.142H261.749L262.129 349.965L262.615 345.911H258.205Z" fill="#BBE2EF"/>
<path d="M265.77 394.102C265.651 394.102 265.53 394.073 265.418 394.011C265.065 393.817 264.937 393.373 265.131 393.02L266.389 390.74C266.584 390.387 267.027 390.259 267.38 390.454C267.733 390.649 267.861 391.093 267.666 391.446L266.408 393.726C266.276 393.965 266.027 394.102 265.77 394.102Z" fill="#612929"/>
<path d="M268.668 396.06C268.584 396.06 268.499 396.046 268.415 396.015C268.037 395.876 267.843 395.456 267.983 395.078L268.633 393.315C268.772 392.937 269.192 392.743 269.57 392.883C269.948 393.022 270.142 393.442 270.002 393.82L269.352 395.583C269.244 395.877 268.965 396.06 268.668 396.06Z" fill="#612929"/>
<path d="M260.845 416.715C260.673 416.715 260.501 416.655 260.362 416.532L258.57 414.948C258.268 414.681 258.24 414.22 258.506 413.918C258.773 413.616 259.234 413.588 259.536 413.854L261.328 415.439C261.63 415.706 261.658 416.167 261.391 416.469C261.247 416.631 261.046 416.715 260.845 416.715Z" fill="#612929"/>
<path d="M262.87 413.375C262.66 413.375 262.452 413.285 262.308 413.111L261.042 411.585C260.784 411.275 260.827 410.815 261.138 410.558C261.448 410.3 261.908 410.343 262.165 410.654L263.431 412.18C263.688 412.49 263.646 412.95 263.336 413.208C263.199 413.32 263.034 413.375 262.87 413.375Z" fill="#612929"/>
<path d="M210.204 84.3739C209.317 84.3739 208.441 84.4209 207.578 84.5109C206.582 69.2229 193.869 57.1309 178.329 57.1309C163.074 57.1309 150.542 68.7849 149.146 83.6749C146.535 81.4639 143.159 80.1279 139.47 80.1279C131.195 80.1279 124.486 86.8359 124.486 95.1119C124.486 95.1349 124.488 95.1579 124.488 95.1809C119.928 95.6369 116.032 98.3449 113.925 102.176C113.663 99.5999 111.487 97.5889 108.841 97.5889C106.019 97.5889 103.731 99.8769 103.731 102.699C103.731 105.521 106.019 107.809 108.841 107.809C110.259 107.809 111.542 107.231 112.468 106.298C112.326 107.085 112.248 107.894 112.248 108.722C112.248 116.239 118.342 122.333 125.859 122.333C129.198 122.333 132.255 121.129 134.623 119.133C136.952 132.106 148.288 141.953 161.931 141.953C168.798 141.953 175.077 139.454 179.923 135.322C180.571 135.4 181.23 135.445 181.9 135.445C187.082 135.445 191.699 133.035 194.699 129.278C198.971 132.633 204.352 134.639 210.204 134.639C224.084 134.639 235.336 123.387 235.336 109.507C235.336 95.6269 224.085 84.3739 210.204 84.3739Z" fill="#F4D4DA"/>
</g>
<defs>
<clipPath id="clip0_503_630">
<rect width="500" height="500" fill="white"/>
</clipPath>
</defs>
</svg>
