<?xml version="1.0" encoding="utf-8"?>
<!-- Generator: Adobe Illustrator 27.5.0, SVG Export Plug-In . SVG Version: 6.00 Build 0)  -->
<svg version="1.1" xmlns="http://www.w3.org/2000/svg" xmlns:xlink="http://www.w3.org/1999/xlink" x="0px" y="0px"
	 viewBox="0 0 499.999 500" style="enable-background:new 0 0 499.999 500;" xml:space="preserve">
<g id="Background_Complete">
	<g>
		<g>
			<path style="fill:#E0E0E0;" d="M469.562,276.298c0,0.144-96.212,0.26-214.869,0.26c-118.698,0-214.89-0.116-214.89-0.26
				c0-0.144,96.192-0.26,214.89-0.26C373.349,276.038,469.562,276.154,469.562,276.298z"/>
		</g>
	</g>
	<g>
		<g>
			<path style="fill:#F0F0F0;" d="M170.31,239.978c-9.128-2.552-17.105-8.977-21.542-17.353c-4.438-8.375-5.274-18.584-2.259-27.57
				c2.353-7.012,6.887-13.185,8.831-20.321c2.207-8.1,0.893-16.693-0.47-24.978c-1.362-8.284-2.751-16.851-0.682-24.988
				c2.069-8.137,8.582-15.778,16.958-16.356c7.769-0.536,14.945,5.22,18.187,12.301c3.242,7.081,3.263,15.2,2.506,22.95
				c-0.757,7.751-2.233,15.491-1.769,23.265c0.939,15.736,9.753,30.549,8.717,46.279c-0.54,8.191-3.709,13.434-9.135,19.594
				C184.974,238.114,177.198,241.607,170.31,239.978"/>
		</g>
		<g>
			<g>
				<path style="fill:#E0E0E0;" d="M171.797,279.135c-0.118,0-0.213-28.402-0.213-63.429c0-35.039,0.096-63.435,0.213-63.435
					c0.118,0,0.213,28.396,0.213,63.435C172.01,250.733,171.915,279.135,171.797,279.135z"/>
			</g>
		</g>
		<g>
			<g>
				<path style="fill:#E0E0E0;" d="M185.891,202.57c0.072,0.093-3.004,2.616-6.87,5.635c-3.868,3.02-7.061,5.392-7.133,5.299
					c-0.073-0.093,3.003-2.615,6.871-5.635C182.624,204.849,185.818,202.477,185.891,202.57z"/>
			</g>
		</g>
		<g>
			<g>
				<path style="fill:#E0E0E0;" d="M171.809,200.74c-0.067,0.097-2.007-1.128-4.334-2.736c-2.327-1.608-4.158-2.991-4.091-3.087
					s2.007,1.128,4.334,2.736C170.044,199.26,171.876,200.643,171.809,200.74z"/>
			</g>
		</g>
	</g>
	<g>
		<g>
			<polygon style="fill:#F0F0F0;" points="85.056,155.696 67.926,190.25 73.041,190.444 58.527,217.901 66.15,217.901 
				54.258,242.296 120.733,242.296 106.096,217.901 113.109,217.596 99.083,190.153 104.266,189.848 			"/>
		</g>
		<g>
			<g>
				<path style="fill:#E0E0E0;" d="M85.707,195.656c0.144,0.002,0.046,17.941-0.218,40.064c-0.264,22.131-0.595,40.064-0.739,40.062
					c-0.144-0.002-0.046-17.938,0.218-40.068C85.232,213.591,85.563,195.654,85.707,195.656z"/>
			</g>
		</g>
		<g>
			<g>
				<path style="fill:#E0E0E0;" d="M95.589,205.989c0.092,0.111-2.088,2.07-4.868,4.375c-2.781,2.306-5.109,4.085-5.201,3.975
					c-0.092-0.111,2.088-2.069,4.868-4.376C93.168,207.658,95.497,205.878,95.589,205.989z"/>
			</g>
		</g>
	</g>
	<g>
		<g>
			<path style="fill:#F0F0F0;" d="M67.13,89.036h48.745c0,0,0.006-11.159-5.755-11.159c-7.6,0-8.937,6.919-8.937,6.919
				s0-20.828-10.479-17.772c-9.917,2.892-11.037,16.224-11.037,16.224s-1.785-6.705-7.16-2.926
				C67.13,84.1,67.13,89.036,67.13,89.036z"/>
		</g>
	</g>
</g>
<g id="Background_Simple" style="display:none;">
	<path style="display:inline;fill:#F0F0F0;" d="M130.134,90.072c39.408-34.392,92.76-0.01,144.584,72.477
		c51.824,72.487,76.484,42,120.572,73.923c44.089,31.921,55.811,162.782-99.424,150.063
		C140.632,373.814,27.098,179.989,130.134,90.072z"/>
</g>
<g id="Floor">
	<g>
		<g>
			<path style="fill:#263238;" d="M481.879,439.516c0,0.144-100.848,0.26-225.222,0.26c-124.417,0-225.244-0.117-225.244-0.26
				c0-0.144,100.827-0.26,225.244-0.26C381.031,439.255,481.879,439.372,481.879,439.516z"/>
		</g>
	</g>
</g>
<g id="House">
	<g>
		<g>
			<polygon style="fill:#E8505B;" points="223.365,140.797 223.365,324.405 429.856,324.405 429.856,140.797 407.518,140.797 
				362.297,84.134 324.158,140.252 			"/>
		</g>
		<g style="opacity:0.5;">
			<polygon style="fill:#FFFFFF;" points="223.365,140.797 223.365,324.405 429.856,324.405 429.856,140.797 407.518,140.797 
				362.297,84.134 324.158,140.252 			"/>
		</g>
		<g>
			<path style="fill:#263238;" d="M264.19,73.314c-1.017,1.355-59.306,70.15-59.306,70.15h117.934l39.479-59.33l45.221,56.663
				l41.367-0.044L398.39,71.619L264.19,73.314z"/>
		</g>
		<g>
			<rect x="254.438" y="316.786" style="fill:#E6E6E6;" width="48.93" height="7.619"/>
		</g>
		<g>
			<rect x="243.168" y="328.192" style="fill:#E6E6E6;" width="65.29" height="5.915"/>
		</g>
		<g>
			<polygon style="fill:#E8505B;" points="257.687,242.972 258.09,316.383 300.119,316.383 300.119,242.972 			"/>
		</g>
		<g style="opacity:0.2;">
			<polygon points="257.687,242.972 258.09,316.383 300.119,316.383 300.119,242.972 			"/>
		</g>
		<g style="opacity:0.4;">
			<path d="M292.008,278.366c0.724,0.724,0.724,1.899,0,2.623c-0.724,0.724-1.899,0.724-2.623,0c-0.724-0.724-0.724-1.899,0-2.623
				C290.11,277.642,291.284,277.642,292.008,278.366z"/>
		</g>
		<g>
			<polygon style="fill:#263238;" points="279.045,217.756 240.291,249.71 240.291,258.548 279.389,226.794 315.202,256.138 
				315.202,246.906 			"/>
		</g>
		<g>
			<g>
				<rect x="291.004" y="63.816" style="fill:#E8505B;" width="9.059" height="12.549"/>
			</g>
			<g>
				<rect x="306.184" y="57.205" style="fill:#E8505B;" width="9.549" height="19.16"/>
			</g>
		</g>
		<g style="opacity:0.4;">
			<g>
				<rect x="291.004" y="63.816" width="9.059" height="12.549"/>
			</g>
			<g>
				<rect x="306.184" y="57.205" width="9.549" height="19.16"/>
			</g>
		</g>
		<g>
			<rect x="358.401" y="113.642" style="fill:#FFFFFF;" width="10.682" height="10.682"/>
		</g>
		<g style="opacity:0.1;">
			<polygon points="322.818,143.464 328.508,143.464 365.865,88.605 362.297,84.134 			"/>
		</g>
		<g style="opacity:0.1;">
			<polygon points="223.365,143.464 223.365,149.387 322.818,143.464 			"/>
		</g>
		<g style="opacity:0.1;">
			<polygon points="407.518,140.797 429.856,148.214 429.856,140.797 			"/>
		</g>
		<g>
			<rect x="249.31" y="321.481" style="fill:#E6E6E6;" width="56.873" height="7.393"/>
		</g>
		<g>
			<g>
				<path style="fill:#E0E0E0;" d="M304.691,321.577c0,0.144-12.299,0.26-27.466,0.26c-15.173,0-27.469-0.117-27.469-0.26
					s12.296-0.26,27.469-0.26C292.392,321.317,304.691,321.434,304.691,321.577z"/>
			</g>
		</g>
		<g>
			<g>
				<path style="fill:#E0E0E0;" d="M304.691,328.186c0,0.144-12.299,0.26-27.466,0.26c-15.173,0-27.469-0.117-27.469-0.26
					s12.296-0.26,27.469-0.26C292.392,327.926,304.691,328.042,304.691,328.186z"/>
			</g>
		</g>
		<g>
			<g>
				<rect x="254.438" y="153.628" style="fill:#FFFFFF;" width="47.389" height="45.017"/>
			</g>
			<g>
				<path style="fill:#E8505B;" d="M275.878,153.628c0,0-13.433,22.914-20.801,23.114c0,0,6.823,3.479,7.34,21.904h-7.979v-45.017
					H275.878z"/>
			</g>
			<g>
				<path style="fill:#E8505B;" d="M280.386,153.628c0,0,13.433,22.914,20.801,23.114c0,0-6.823,3.479-7.34,21.904h7.979v-45.017
					H280.386z"/>
			</g>
			<g>
				<rect x="276.995" y="153.228" style="fill:#263238;" width="1.503" height="48.022"/>
			</g>
			<g>
				
					<rect x="276.995" y="153.228" transform="matrix(6.123234e-17 -1 1 6.123234e-17 100.5077 454.9857)" style="fill:#263238;" width="1.503" height="48.022"/>
			</g>
			<g>
				<rect x="251.283" y="198.645" style="fill:#263238;" width="52.928" height="1.118"/>
			</g>
		</g>
		<g>
			<g>
				<rect x="353.384" y="153.628" style="fill:#FFFFFF;" width="47.389" height="45.017"/>
			</g>
			<g>
				<path style="fill:#E8505B;" d="M374.824,153.628c0,0-13.433,22.914-20.801,23.114c0,0,6.823,3.479,7.34,21.904h-7.979v-45.017
					H374.824z"/>
			</g>
			<g>
				<path style="fill:#E8505B;" d="M379.332,153.628c0,0,13.433,22.914,20.801,23.114c0,0-6.823,3.479-7.34,21.904h7.979v-45.017
					H379.332z"/>
			</g>
			<g>
				<rect x="375.941" y="153.228" style="fill:#263238;" width="1.503" height="48.022"/>
			</g>
			<g>
				
					<rect x="375.941" y="153.228" transform="matrix(6.123234e-17 -1 1 6.123234e-17 199.4537 553.9317)" style="fill:#263238;" width="1.503" height="48.022"/>
			</g>
			<g>
				<rect x="350.229" y="198.645" style="fill:#263238;" width="52.928" height="1.118"/>
			</g>
		</g>
		<g>
			<g>
				<rect x="353.384" y="248.705" style="fill:#FFFFFF;" width="47.389" height="45.017"/>
			</g>
			<g>
				<path style="fill:#E8505B;" d="M374.824,248.705c0,0-13.433,22.914-20.801,23.114c0,0,6.823,3.479,7.34,21.904h-7.979v-45.017
					H374.824z"/>
			</g>
			<g>
				<path style="fill:#E8505B;" d="M379.332,248.705c0,0,13.433,22.914,20.801,23.114c0,0-6.823,3.479-7.34,21.904h7.979v-45.017
					H379.332z"/>
			</g>
			<g>
				<rect x="375.941" y="248.304" style="fill:#263238;" width="1.503" height="48.022"/>
			</g>
			<g>
				
					<rect x="375.941" y="248.304" transform="matrix(6.123234e-17 -1 1 6.123234e-17 104.3773 649.0081)" style="fill:#263238;" width="1.503" height="48.022"/>
			</g>
			<g>
				<rect x="350.229" y="293.722" style="fill:#263238;" width="52.928" height="1.118"/>
			</g>
		</g>
	</g>
</g>
<g id="For_sale">
	<g>
		<polygon style="fill:#455A64;" points="228.167,288.482 228.167,438.795 241.067,438.795 241.067,298.578 339.219,298.578 
			339.219,288.482 		"/>
		<rect x="236.898" y="298.578" style="fill:#263238;" width="4.169" height="140.217"/>
		<rect x="331.369" y="288.482" style="fill:#263238;" width="7.85" height="10.096"/>
		<g>
			<rect x="246.831" y="305.938" style="fill:#E8505B;" width="94.702" height="59.717"/>
		</g>
		<g>
			<rect x="246.831" y="305.938" style="fill:#E8505B;" width="94.702" height="59.717"/>
		</g>
		<g>
			<g>
				<rect x="336.306" y="305.938" style="fill:#E8505B;" width="5.228" height="59.717"/>
			</g>
			<g style="opacity:0.2;">
				<rect x="336.306" y="305.938" width="5.228" height="59.717"/>
			</g>
		</g>
		<g>
			<g>
				<path style="fill:#263238;" d="M331.369,360.505c0,0-0.015-0.315-0.022-0.906c-0.005-0.607-0.013-1.477-0.023-2.609
					c-0.012-2.298-0.03-5.647-0.052-9.938c-0.026-8.588-0.063-20.932-0.108-36.027l0.205,0.205
					c-21.489,0.015-49.023,0.034-78.949,0.056h-0.006l0.26-0.26c-0.007,17.545-0.014,34.267-0.02,49.48l-0.24-0.24
					c23.149,0.048,42.855,0.089,56.792,0.118c6.969,0.028,12.494,0.05,16.297,0.065c1.887,0.013,3.343,0.022,4.348,0.029
					c0.484,0.006,0.857,0.011,1.127,0.014C331.232,360.496,331.369,360.505,331.369,360.505s-0.118,0.009-0.363,0.014
					c-0.263,0.004-0.627,0.008-1.099,0.014c-0.994,0.007-2.434,0.017-4.3,0.029c-3.79,0.015-9.297,0.037-16.242,0.065
					c-13.976,0.029-33.737,0.07-56.951,0.118l-0.24,0l0-0.241c-0.006-15.213-0.013-31.935-0.02-49.48l0-0.26h0.261h0.006
					c29.926,0.021,57.459,0.04,78.949,0.056l0.206,0l-0.001,0.205c-0.045,15.148-0.082,27.535-0.108,36.154
					c-0.022,4.271-0.04,7.604-0.052,9.892c-0.01,1.116-0.018,1.973-0.023,2.571C331.383,360.22,331.369,360.505,331.369,360.505z"/>
			</g>
		</g>
		<rect x="262.313" y="298.578" style="fill:#E8505B;" width="2.815" height="7.36"/>
		<rect x="308.558" y="298.578" style="fill:#E8505B;" width="2.815" height="7.36"/>
		<g>
			<path style="fill:#E8505B;" d="M278.12,323.351v3.137h6.295v3.117h-6.295v4.889h-4.033v-14.26h11.184v3.117H278.12z"/>
			<path style="opacity:0.2;" d="M278.12,323.351v3.137h6.295v3.117h-6.295v4.889h-4.033v-14.26h11.184v3.117H278.12z"/>
		</g>
		<g>
			<path style="fill:#E8505B;" d="M286.31,327.364c0-4.277,3.361-7.415,7.925-7.415c4.563,0,7.924,3.138,7.924,7.415
				c0,4.278-3.361,7.415-7.924,7.415C289.671,334.779,286.31,331.642,286.31,327.364z M298.085,327.364
				c0-2.465-1.69-4.074-3.85-4.074c-2.16,0-3.851,1.609-3.851,4.074c0,2.465,1.69,4.074,3.851,4.074
				C296.394,331.438,298.085,329.829,298.085,327.364z"/>
			<path style="opacity:0.2;" d="M286.31,327.364c0-4.277,3.361-7.415,7.925-7.415c4.563,0,7.924,3.138,7.924,7.415
				c0,4.278-3.361,7.415-7.924,7.415C289.671,334.779,286.31,331.642,286.31,327.364z M298.085,327.364
				c0-2.465-1.69-4.074-3.85-4.074c-2.16,0-3.851,1.609-3.851,4.074c0,2.465,1.69,4.074,3.851,4.074
				C296.394,331.438,298.085,329.829,298.085,327.364z"/>
		</g>
		<g>
			<path style="fill:#E8505B;" d="M310.511,330.705h-2.2v3.789h-4.033v-14.26h6.519c3.891,0,6.335,2.018,6.335,5.276
				c0,2.099-1.018,3.647-2.79,4.502l3.075,4.481h-4.318L310.511,330.705z M310.552,323.412h-2.241v4.177h2.241
				c1.67,0,2.506-0.774,2.506-2.078C313.058,324.186,312.222,323.412,310.552,323.412z"/>
			<path style="opacity:0.2;" d="M310.511,330.705h-2.2v3.789h-4.033v-14.26h6.519c3.891,0,6.335,2.018,6.335,5.276
				c0,2.099-1.018,3.647-2.79,4.502l3.075,4.481h-4.318L310.511,330.705z M310.552,323.412h-2.241v4.177h2.241
				c1.67,0,2.506-0.774,2.506-2.078C313.058,324.186,312.222,323.412,310.552,323.412z"/>
		</g>
		<g>
			<path style="fill:#E8505B;" d="M266.777,353.479l1.389-3.119c1.325,0.876,3.204,1.474,4.935,1.474
				c1.752,0,2.436-0.491,2.436-1.217c0-2.371-8.502-0.642-8.502-6.195c0-2.67,2.179-4.85,6.622-4.85
				c1.944,0,3.952,0.449,5.426,1.304l-1.303,3.14c-1.432-0.769-2.841-1.153-4.145-1.153c-1.772,0-2.414,0.599-2.414,1.346
				c0,2.286,8.481,0.577,8.481,6.089c0,2.605-2.18,4.827-6.623,4.827C270.623,355.124,268.187,354.462,266.777,353.479z"/>
			<path style="opacity:0.2;" d="M266.777,353.479l1.389-3.119c1.325,0.876,3.204,1.474,4.935,1.474
				c1.752,0,2.436-0.491,2.436-1.217c0-2.371-8.502-0.642-8.502-6.195c0-2.67,2.179-4.85,6.622-4.85
				c1.944,0,3.952,0.449,5.426,1.304l-1.303,3.14c-1.432-0.769-2.841-1.153-4.145-1.153c-1.772,0-2.414,0.599-2.414,1.346
				c0,2.286,8.481,0.577,8.481,6.089c0,2.605-2.18,4.827-6.623,4.827C270.623,355.124,268.187,354.462,266.777,353.479z"/>
		</g>
		<g>
			<path style="fill:#E8505B;" d="M291.667,351.92h-6.323l-1.175,2.905h-4.315l6.601-14.954h4.166l6.622,14.954h-4.4L291.667,351.92
				z M290.427,348.801l-1.923-4.785l-1.923,4.785H290.427z"/>
			<path style="opacity:0.2;" d="M291.667,351.92h-6.323l-1.175,2.905h-4.315l6.601-14.954h4.166l6.622,14.954h-4.4L291.667,351.92z
				 M290.427,348.801l-1.923-4.785l-1.923,4.785H290.427z"/>
		</g>
		<g>
			<path style="fill:#E8505B;" d="M298.44,339.871h4.23v11.6h7.135v3.354H298.44V339.871z"/>
			<path style="opacity:0.2;" d="M298.44,339.871h4.23v11.6h7.135v3.354H298.44V339.871z"/>
		</g>
		<g>
			<path style="fill:#E8505B;" d="M323.479,351.556v3.269h-12.006v-14.954h11.728v3.268h-7.541v2.522h6.644v3.161h-6.644v2.734
				H323.479z"/>
			<path style="opacity:0.2;" d="M323.479,351.556v3.269h-12.006v-14.954h11.728v3.268h-7.541v2.522h6.644v3.161h-6.644v2.734
				H323.479z"/>
		</g>
		<g>
			<g>
				<path style="fill:#263238;" d="M329.505,315.116c-0.042,0.001-0.06-0.185-0.164-0.484c-0.103-0.294-0.323-0.713-0.771-1.025
					c-0.433-0.314-1.122-0.476-1.777-0.222c-0.65,0.235-1.202,0.927-1.195,1.731c-0.007,0.804,0.545,1.497,1.195,1.731
					c0.655,0.254,1.344,0.092,1.777-0.222c0.447-0.312,0.668-0.732,0.771-1.025C329.446,315.301,329.463,315.116,329.505,315.116
					c0.029-0.001,0.083,0.187,0.033,0.533c-0.05,0.339-0.242,0.854-0.744,1.269c-0.484,0.415-1.326,0.673-2.164,0.38
					c-0.83-0.265-1.563-1.146-1.552-2.182c-0.01-1.036,0.722-1.917,1.552-2.182c0.838-0.293,1.679-0.035,2.164,0.38
					c0.502,0.415,0.694,0.93,0.744,1.269C329.589,314.93,329.534,315.118,329.505,315.116z"/>
			</g>
		</g>
		<g>
			<g>
				<path style="fill:#263238;" d="M328.556,313.868c0.105,0.099-0.267,0.665-0.831,1.265c-0.564,0.6-1.106,1.007-1.211,0.909
					c-0.105-0.098,0.267-0.665,0.831-1.265C327.909,314.177,328.451,313.77,328.556,313.868z"/>
			</g>
		</g>
		<g>
			<g>
				<path style="fill:#263238;" d="M328.781,315.899c-0.052,0.13-0.77-0.053-1.458-0.62c-0.692-0.564-1.011-1.233-0.894-1.309
					c0.121-0.085,0.595,0.394,1.224,0.906C328.278,315.393,328.841,315.764,328.781,315.899z"/>
			</g>
		</g>
		<g>
			<g>
				<path style="fill:#263238;" d="M328.742,357.276c-0.042,0.001-0.06-0.185-0.164-0.484c-0.103-0.294-0.324-0.713-0.771-1.026
					c-0.433-0.314-1.122-0.476-1.777-0.221c-0.65,0.235-1.202,0.927-1.195,1.731c-0.007,0.804,0.546,1.497,1.195,1.731
					c0.655,0.254,1.344,0.092,1.777-0.222c0.447-0.312,0.668-0.731,0.771-1.025C328.682,357.461,328.7,357.276,328.742,357.276
					c0.029-0.001,0.083,0.187,0.033,0.533c-0.05,0.338-0.242,0.854-0.744,1.269c-0.484,0.415-1.326,0.673-2.164,0.38
					c-0.83-0.265-1.563-1.146-1.552-2.182c-0.01-1.036,0.722-1.917,1.552-2.182c0.838-0.293,1.679-0.035,2.164,0.38
					c0.502,0.415,0.694,0.93,0.744,1.269C328.825,357.09,328.771,357.278,328.742,357.276z"/>
			</g>
		</g>
		<g>
			<g>
				<path style="fill:#263238;" d="M327.792,356.028c0.105,0.099-0.267,0.665-0.831,1.265c-0.564,0.6-1.106,1.007-1.211,0.909
					c-0.105-0.098,0.267-0.665,0.831-1.265C327.145,356.337,327.688,355.93,327.792,356.028z"/>
			</g>
		</g>
		<g>
			<g>
				<path style="fill:#263238;" d="M328.018,358.06c-0.052,0.129-0.77-0.053-1.458-0.621c-0.692-0.564-1.011-1.232-0.894-1.309
					c0.121-0.085,0.595,0.395,1.224,0.906C327.514,357.553,328.078,357.924,328.018,358.06z"/>
			</g>
		</g>
		<g>
			<g>
				<path style="fill:#263238;" d="M258.706,356.264c-0.042,0.001-0.06-0.185-0.164-0.484c-0.102-0.294-0.324-0.713-0.771-1.025
					c-0.433-0.314-1.122-0.476-1.777-0.222c-0.649,0.235-1.202,0.927-1.195,1.731c-0.007,0.804,0.546,1.496,1.195,1.731
					c0.655,0.254,1.344,0.092,1.777-0.222c0.447-0.312,0.668-0.732,0.771-1.026C258.646,356.449,258.664,356.263,258.706,356.264
					c0.029-0.001,0.083,0.187,0.033,0.533c-0.05,0.339-0.242,0.854-0.744,1.269c-0.484,0.415-1.326,0.673-2.164,0.38
					c-0.83-0.265-1.563-1.146-1.552-2.182c-0.01-1.036,0.722-1.917,1.552-2.182c0.838-0.293,1.679-0.035,2.164,0.38
					c0.502,0.415,0.694,0.93,0.744,1.269C258.789,356.077,258.735,356.265,258.706,356.264z"/>
			</g>
		</g>
		<g>
			<g>
				<path style="fill:#263238;" d="M257.756,355.015c0.105,0.098-0.267,0.665-0.831,1.265c-0.564,0.6-1.106,1.007-1.211,0.909
					c-0.105-0.098,0.267-0.665,0.831-1.265C257.109,355.324,257.652,354.917,257.756,355.015z"/>
			</g>
		</g>
		<g>
			<g>
				<path style="fill:#263238;" d="M257.982,357.047c-0.052,0.129-0.77-0.053-1.458-0.62c-0.692-0.564-1.011-1.233-0.894-1.309
					c0.121-0.085,0.595,0.395,1.224,0.906C257.478,356.541,258.042,356.911,257.982,357.047z"/>
			</g>
		</g>
		<g>
			<g>
				<path style="fill:#263238;" d="M259.076,315.943c-0.042,0.001-0.06-0.185-0.164-0.484c-0.103-0.294-0.324-0.713-0.771-1.026
					c-0.433-0.314-1.122-0.476-1.777-0.222c-0.649,0.235-1.202,0.927-1.195,1.731c-0.007,0.804,0.546,1.496,1.195,1.731
					c0.655,0.254,1.344,0.092,1.777-0.222c0.447-0.312,0.668-0.732,0.771-1.026C259.016,316.128,259.033,315.943,259.076,315.943
					c0.029-0.001,0.083,0.187,0.033,0.533c-0.05,0.339-0.242,0.854-0.744,1.269c-0.484,0.415-1.326,0.673-2.164,0.38
					c-0.83-0.265-1.563-1.146-1.552-2.182c-0.01-1.036,0.722-1.917,1.552-2.182c0.838-0.293,1.679-0.035,2.163,0.38
					c0.502,0.415,0.694,0.93,0.744,1.269C259.159,315.757,259.104,315.945,259.076,315.943z"/>
			</g>
		</g>
		<g>
			<g>
				<path style="fill:#263238;" d="M258.126,314.695c0.105,0.099-0.267,0.665-0.831,1.265c-0.564,0.6-1.106,1.007-1.211,0.909
					c-0.105-0.098,0.267-0.665,0.831-1.265C257.479,315.004,258.021,314.597,258.126,314.695z"/>
			</g>
		</g>
		<g>
			<g>
				<path style="fill:#263238;" d="M258.351,316.726c-0.052,0.13-0.77-0.053-1.458-0.62c-0.692-0.564-1.011-1.232-0.894-1.309
					c0.121-0.085,0.595,0.395,1.225,0.906C257.848,316.22,258.411,316.591,258.351,316.726z"/>
			</g>
		</g>
		<g>
			<path style="fill:#FAFAFA;" d="M274.105,323.351v3.137h6.295v3.117h-6.295v4.889h-4.033v-14.26h11.184v3.117H274.105z"/>
			<path style="fill:#FAFAFA;" d="M282.296,327.364c0-4.277,3.361-7.415,7.925-7.415c4.563,0,7.924,3.138,7.924,7.415
				c0,4.278-3.361,7.415-7.924,7.415C285.657,334.779,282.296,331.642,282.296,327.364z M294.07,327.364
				c0-2.465-1.69-4.074-3.85-4.074c-2.16,0-3.851,1.609-3.851,4.074c0,2.465,1.69,4.074,3.851,4.074
				C292.379,331.438,294.07,329.829,294.07,327.364z"/>
			<path style="fill:#FAFAFA;" d="M306.497,330.705h-2.2v3.789h-4.033v-14.26h6.518c3.891,0,6.335,2.018,6.335,5.276
				c0,2.099-1.019,3.647-2.79,4.502l3.075,4.481h-4.318L306.497,330.705z M306.538,323.412h-2.241v4.177h2.241
				c1.67,0,2.506-0.774,2.506-2.078C309.043,324.186,308.208,323.412,306.538,323.412z"/>
			<path style="fill:#FAFAFA;" d="M262.762,353.479l1.389-3.119c1.324,0.876,3.205,1.474,4.934,1.474
				c1.752,0,2.436-0.491,2.436-1.217c0-2.371-8.502-0.642-8.502-6.195c0-2.67,2.179-4.85,6.622-4.85
				c1.944,0,3.952,0.449,5.426,1.304l-1.303,3.14c-1.432-0.769-2.841-1.153-4.145-1.153c-1.772,0-2.414,0.599-2.414,1.346
				c0,2.286,8.481,0.577,8.481,6.089c0,2.605-2.179,4.827-6.622,4.827C266.608,355.124,264.172,354.462,262.762,353.479z"/>
			<path style="fill:#FAFAFA;" d="M287.652,351.92h-6.323l-1.176,2.905h-4.314l6.601-14.954h4.166l6.622,14.954h-4.4L287.652,351.92
				z M286.413,348.801l-1.923-4.785l-1.923,4.785H286.413z"/>
			<path style="fill:#FAFAFA;" d="M294.425,339.871h4.23v11.6h7.136v3.354h-11.365V339.871z"/>
			<path style="fill:#FAFAFA;" d="M319.464,351.556v3.269h-12.006v-14.954h11.729v3.268h-7.541v2.522h6.643v3.161h-6.643v2.734
				H319.464z"/>
		</g>
	</g>
</g>
<g id="Plants">
	<g>
		<g>
			<g>
				<path style="fill:#E8505B;" d="M377.474,416.662c-5.999-3.234-8.419-7.793-9.829-14.461c-1.41-6.668,0.254-13.922,4.43-19.308
					c3.481-4.49,8.608-7.767,10.991-12.925c2.54-5.497,1.624-12.484,5.495-17.141c2.66-3.199,6.942-4.467,10.345-6.861
					c2.777-1.953,4.939-4.64,7.419-6.959c2.48-2.319,5.505-4.356,8.897-4.492c5.117-0.205,9.641,4.321,10.468,9.375
					c0.828,5.054-1.447,10.242-4.945,13.982c-2.537,2.713-5.79,4.941-7.264,8.351c-2.769,6.404,1.812,14.329-1.229,20.608
					c-2.221,4.585-8.138,7.341-8.416,12.428c-0.102,1.871,0.633,3.682,0.834,5.545c0.628,5.826-4.272,11.144-9.881,12.838
					C389.178,419.335,383.124,418.215,377.474,416.662"/>
			</g>
			<g>
				<g>
					<path style="fill:#263238;" d="M406.592,356.24c0.018,0.016-0.166,0.275-0.532,0.751c-0.416,0.528-0.956,1.213-1.627,2.064
						c-0.724,0.882-1.591,1.973-2.52,3.301c-0.94,1.318-2.078,2.77-3.156,4.501c-0.559,0.854-1.143,1.746-1.751,2.674
						c-0.604,0.933-1.156,1.951-1.771,2.977c-1.258,2.039-2.398,4.33-3.646,6.715c-2.359,4.837-4.659,10.299-6.566,16.212
						c-1.853,5.932-3.125,11.723-3.987,17.035c-0.356,2.668-0.746,5.197-0.894,7.589c-0.09,1.193-0.226,2.343-0.27,3.454
						c-0.039,1.109-0.076,2.175-0.112,3.195c-0.117,2.035-0.024,3.878-0.017,5.497c-0.007,1.62,0.072,3.012,0.155,4.149
						c0.058,1.082,0.104,1.953,0.14,2.624c0.024,0.601,0.025,0.918,0.001,0.921c-0.024,0.002-0.072-0.31-0.142-0.907
						c-0.069-0.67-0.159-1.538-0.271-2.618c-0.125-1.137-0.244-2.532-0.274-4.156c-0.044-1.624-0.172-3.473-0.086-5.519
						c0.021-1.025,0.044-2.097,0.067-3.212c0.03-1.117,0.153-2.273,0.231-3.474c0.124-2.406,0.494-4.953,0.835-7.639
						c0.832-5.349,2.093-11.181,3.958-17.15c1.919-5.95,4.252-11.441,6.656-16.289c1.27-2.39,2.436-4.684,3.723-6.721
						c0.629-1.026,1.195-2.042,1.815-2.971c0.624-0.924,1.224-1.812,1.797-2.662c1.11-1.72,2.281-3.158,3.254-4.459
						c0.962-1.31,1.864-2.38,2.621-3.238c0.714-0.818,1.288-1.476,1.731-1.983C406.354,356.452,406.574,356.224,406.592,356.24z"/>
				</g>
			</g>
		</g>
	</g>
	<g>
		<g>
			<g>
				<path style="fill:#E8505B;" d="M351.179,394.792c2.4,0.105,4.642,1.428,6.21,3.248c1.568,1.82,2.519,4.1,3.12,6.426
					c1.163,4.5,0.379,9.792-0.94,14.249c-4.846-1.779-7.798-6.988-9.13-9.725C348.334,404.664,347.155,395.568,351.179,394.792"/>
			</g>
			<g>
				<path style="fill:#E8505B;" d="M366.517,424.216c-1.515-2.215-1.524-5.277-0.292-7.661c1.233-2.384,3.577-4.09,6.149-4.856
					c1.189-0.354,2.567-0.495,3.593,0.203c0.959,0.652,1.365,1.92,1.231,3.072c-0.134,1.152-0.728,2.203-1.425,3.13
					C373.381,421.284,370.484,423.922,366.517,424.216"/>
			</g>
			<g style="opacity:0.2;">
				<path d="M351.179,394.792c2.4,0.105,4.642,1.428,6.21,3.248c1.568,1.82,2.519,4.1,3.12,6.426c1.163,4.5,0.379,9.792-0.94,14.249
					c-4.846-1.779-7.798-6.988-9.13-9.725C348.334,404.664,347.155,395.568,351.179,394.792"/>
			</g>
			<g style="opacity:0.2;">
				<path d="M366.517,424.216c-1.515-2.215-1.524-5.277-0.292-7.661c1.233-2.384,3.577-4.09,6.149-4.856
					c1.189-0.354,2.567-0.495,3.593,0.203c0.959,0.652,1.365,1.92,1.231,3.072c-0.134,1.152-0.728,2.203-1.425,3.13
					C373.381,421.284,370.484,423.922,366.517,424.216"/>
			</g>
			<g style="opacity:0.2;">
				<path d="M361.471,428.634c-3.148-4.701-8.686-7.707-14.343-7.785c-1.44-0.02-3.152,0.323-3.716,1.648
					c-0.565,1.328,0.382,2.805,1.421,3.806c4.325,4.166,11.293,5.297,16.713,2.714"/>
			</g>
			<g>
				<path style="fill:#E8505B;" d="M361.471,428.634c-3.148-4.701-8.686-7.707-14.343-7.785c-1.44-0.02-3.152,0.323-3.716,1.648
					c-0.565,1.328,0.382,2.805,1.421,3.806c4.325,4.166,11.293,5.297,16.713,2.714"/>
			</g>
			<g>
				<g>
					<path style="fill:#263238;" d="M366.558,439.653c-0.035,0.005-0.12-0.332-0.239-0.947c-0.12-0.615-0.276-1.508-0.435-2.618
						c-0.305-2.213-0.67-5.337-0.227-8.773c0.446-3.441,1.839-6.374,3.29-8.117c0.717-0.88,1.403-1.499,1.913-1.871
						c0.509-0.375,0.818-0.539,0.835-0.514c0.067,0.082-1.133,0.833-2.457,2.61c-1.336,1.751-2.629,4.609-3.065,7.961
						c-0.433,3.354-0.134,6.445,0.077,8.66C366.478,438.264,366.634,439.642,366.558,439.653z"/>
				</g>
			</g>
			<g>
				<g>
					<path style="fill:#263238;" d="M352.688,401.639c0.033-0.014,0.287,0.5,0.717,1.442c0.432,0.942,1.033,2.314,1.758,4.018
						c1.451,3.407,3.378,8.147,5.376,13.433c1.998,5.288,3.688,10.118,4.854,13.633c0.583,1.757,1.04,3.184,1.339,4.176
						c0.3,0.991,0.45,1.544,0.416,1.556c-0.034,0.011-0.249-0.52-0.608-1.491c-0.384-1.059-0.888-2.446-1.495-4.12
						c-1.254-3.482-2.997-8.287-4.993-13.569c-1.997-5.28-3.867-10.036-5.23-13.477c-0.652-1.657-1.192-3.031-1.604-4.079
						C352.845,402.194,352.655,401.654,352.688,401.639z"/>
				</g>
			</g>
			<g>
				<g>
					<path style="fill:#263238;" d="M349.606,424.383c0.003-0.036,0.334-0.029,0.935,0.014c0.302,0.016,0.669,0.05,1.089,0.134
						c0.421,0.078,0.908,0.14,1.425,0.296c1.051,0.25,2.268,0.689,3.563,1.298c1.281,0.636,2.631,1.459,3.921,2.494
						c1.277,1.052,2.359,2.205,3.244,3.329c0.861,1.143,1.54,2.244,1.999,3.222c0.258,0.475,0.418,0.939,0.581,1.335
						c0.168,0.394,0.277,0.747,0.354,1.038c0.165,0.58,0.239,0.903,0.205,0.913c-0.097,0.032-0.465-1.249-1.467-3.117
						c-0.492-0.938-1.188-1.994-2.049-3.094c-0.885-1.081-1.949-2.195-3.195-3.222c-1.259-1.009-2.567-1.823-3.806-2.468
						c-1.253-0.618-2.428-1.083-3.448-1.373C350.924,424.582,349.595,424.484,349.606,424.383z"/>
				</g>
			</g>
		</g>
	</g>
</g>
<g id="Character_1_">
	<g>
		<path style="fill:#E8505B;" d="M122.992,436.441l-0.247,2.207c0,0-5.837,13.68-4.75,14.714c1.087,1.034,3.01,1.943,5.59,0.872
			c2.58-1.07,12.291-13.499,12.291-13.499l0.39-1.814L122.992,436.441z"/>
		<path style="fill:#F0F0F0;" d="M118.386,450.48c0,0,3.102-1.999,5.699,2.001c0,0,1.359-0.763,4.826-4.737
			c3.467-3.974,6.81-7.85,6.81-7.85s0.361-0.393,0.289-0.046c-0.072,0.347-0.146,0.951-0.146,0.951l-6.642,8.014
			c0,0-3.994,4.685-5.103,5.185c-1.109,0.5-2.216,1.072-3.793,0.646c-1.577-0.426-2.464-1.357-2.495-1.556
			C117.799,452.89,118.386,450.48,118.386,450.48z"/>
		<g>
			<path style="fill:#263238;" d="M124.753,453.821c-0.079,0.065-0.666-1.754-2.543-2.878c-1.875-1.129-3.756-0.791-3.736-0.892
				c-0.007-0.034,0.43-0.171,1.165-0.162c0.728,0.006,1.761,0.203,2.732,0.786c0.971,0.583,1.631,1.401,1.978,2.041
				C124.702,453.36,124.786,453.811,124.753,453.821z"/>
		</g>
		<g>
			<path style="fill:#263238;" d="M136.276,439.248c0.016,0.014-0.198,0.292-0.601,0.783c-0.484,0.577-1.059,1.262-1.727,2.059
				c-1.571,1.823-3.573,4.146-5.787,6.715c-1.14,1.297-2.196,2.582-3.392,3.533c-1.184,0.955-2.532,1.493-3.7,1.51
				c-1.175,0.024-2.068-0.429-2.558-0.837c-0.499-0.417-0.637-0.76-0.637-0.76c0.025-0.021,0.208,0.292,0.711,0.664
				c0.494,0.365,1.363,0.763,2.476,0.713c1.109-0.044,2.388-0.575,3.528-1.513c1.149-0.933,2.198-2.216,3.339-3.516
				c2.24-2.545,4.265-4.846,5.854-6.653c0.697-0.771,1.297-1.435,1.802-1.993C136.014,439.485,136.26,439.234,136.276,439.248z"/>
		</g>
		<g>
			<path style="fill:#263238;" d="M124.92,446.431c-0.045,0.076-0.728-0.254-1.575-0.634c-0.847-0.382-1.546-0.673-1.52-0.758
				c0.024-0.08,0.782,0.082,1.648,0.473C124.339,445.901,124.964,446.359,124.92,446.431z"/>
		</g>
		<g>
			<path style="fill:#263238;" d="M126.288,444.37c-0.031,0.083-0.853-0.153-1.869-0.419c-1.015-0.27-1.846-0.471-1.832-0.558
				c0.012-0.083,0.88-0.018,1.912,0.256C125.531,443.92,126.318,444.292,126.288,444.37z"/>
		</g>
		<g>
			<path style="fill:#263238;" d="M127.575,442.586c-0.051,0.077-0.847-0.409-1.93-0.741c-1.08-0.342-2.012-0.392-2.01-0.485
				c-0.007-0.079,0.969-0.171,2.103,0.187C126.874,441.896,127.626,442.525,127.575,442.586z"/>
		</g>
		<g>
			<path style="fill:#455A64;" d="M128.18,440.607c-0.045,0.079-0.771-0.276-1.721-0.529c-0.948-0.261-1.754-0.32-1.753-0.411
				c-0.005-0.081,0.839-0.163,1.835,0.109C127.537,440.043,128.225,440.54,128.18,440.607z"/>
		</g>
		<g>
			<path style="fill:#455A64;" d="M127.515,438.931c-0.015,0.035-0.444-0.096-1.063-0.468c-0.309-0.186-0.66-0.435-1.018-0.753
				c-0.178-0.159-0.358-0.335-0.534-0.527c-0.085-0.094-0.184-0.195-0.26-0.339c-0.08-0.137-0.111-0.367,0.006-0.537
				c0.253-0.322,0.616-0.307,0.887-0.25c0.274,0.063,0.515,0.192,0.714,0.344c0.401,0.309,0.633,0.71,0.765,1.05
				c0.253,0.693,0.227,1.148,0.196,1.15c-0.053,0.011-0.111-0.437-0.399-1.062c-0.148-0.307-0.377-0.651-0.734-0.907
				c-0.318-0.246-0.928-0.44-1.168-0.156c-0.092,0.115,0.044,0.318,0.22,0.503c0.166,0.188,0.334,0.361,0.501,0.52
				c0.334,0.317,0.66,0.577,0.945,0.781C127.144,438.686,127.536,438.887,127.515,438.931z"/>
		</g>
		<g>
			<path style="fill:#455A64;" d="M127.314,438.739c-0.032-0.001-0.018-0.482,0.361-1.135c0.193-0.32,0.479-0.675,0.883-0.972
				c0.203-0.149,0.426-0.281,0.687-0.389c0.136-0.05,0.285-0.09,0.458-0.075c0.173,0.008,0.376,0.132,0.446,0.321
				c0.12,0.386-0.077,0.671-0.205,0.895c-0.147,0.233-0.322,0.434-0.506,0.604c-0.37,0.341-0.779,0.551-1.136,0.664
				c-0.725,0.229-1.199,0.104-1.189,0.076c-0.001-0.057,0.46-0.018,1.113-0.283c0.323-0.131,0.688-0.344,1.014-0.666
				c0.163-0.16,0.316-0.346,0.444-0.556c0.131-0.206,0.237-0.457,0.176-0.618c-0.049-0.154-0.287-0.16-0.508-0.075
				c-0.222,0.088-0.439,0.207-0.626,0.336c-0.38,0.259-0.662,0.573-0.866,0.858C127.459,438.304,127.366,438.753,127.314,438.739z"
				/>
		</g>
		<g>
			<path style="fill:#263238;" d="M133.931,438.589c-0.005,0.05-0.463-0.103-1.066,0.247c-0.589,0.332-1.272,1.079-1.641,2.062
				c-0.376,0.99-0.296,1.985-0.114,2.65c0.182,0.673,0.422,1.051,0.377,1.077c-0.026,0.021-0.339-0.32-0.588-1.013
				c-0.247-0.68-0.374-1.756,0.032-2.824c0.4-1.06,1.155-1.834,1.834-2.15C133.469,438.304,133.967,438.562,133.931,438.589z"/>
		</g>
		<g>
			<path style="fill:#263238;" d="M130.166,444.352c0.065,0.056-0.418,0.726-1.079,1.495c-0.661,0.77-1.25,1.348-1.316,1.291
				c-0.066-0.056,0.417-0.726,1.079-1.495C129.512,444.874,130.101,444.296,130.166,444.352z"/>
		</g>
		<g>
			<g>
				<path style="fill:#263238;" d="M131.523,443.111c0.086-0.015,0.192,0.183,0.279,0.43c0.086,0.248,0.128,0.468,0.051,0.51
					c-0.074,0.042-0.25-0.132-0.346-0.407C131.411,443.37,131.439,443.125,131.523,443.111z"/>
			</g>
		</g>
		<g>
			<g>
				<path style="fill:#263238;" d="M131.66,441.135c0.081,0.031,0.072,0.256,0.02,0.514c-0.053,0.258-0.133,0.469-0.22,0.465
					c-0.085-0.004-0.144-0.243-0.086-0.528C131.431,441.301,131.58,441.104,131.66,441.135z"/>
			</g>
		</g>
		<g>
			<g>
				<path style="fill:#455A64;" d="M132.816,439.531c0.052,0.07-0.078,0.254-0.26,0.443c-0.184,0.188-0.363,0.324-0.434,0.275
					c-0.071-0.048,0.007-0.283,0.21-0.492C132.534,439.548,132.765,439.463,132.816,439.531z"/>
			</g>
		</g>
		<g>
			<g>
				<path style="fill:#455A64;" d="M134.641,438.764c0.009,0.087-0.196,0.179-0.45,0.248c-0.254,0.068-0.479,0.092-0.514,0.012
					c-0.035-0.078,0.152-0.238,0.432-0.314C134.39,438.635,134.633,438.679,134.641,438.764z"/>
			</g>
		</g>
		<g>
			<g>
				<g>
					<g>
						<path style="fill:#E8505B;" d="M155.069,441.379l1.969-9.144l-17.105-3.797l-3.022,13.348l1.046,0.303
							c4.662,1.31,23.796,6.332,27.163,6.076C168.876,447.878,155.069,441.379,155.069,441.379z"/>
					</g>
				</g>
			</g>
			<g>
				<g>
					<g>
						<path style="fill:#E8505B;" d="M143.143,443.027c0.074-1.483-0.426-2.987-1.373-4.132c-0.947-1.144-2.251-1.926-3.722-2.131
							l-1.065,4.78L143.143,443.027z"/>
					</g>
				</g>
			</g>
		</g>
		<g>
			<g>
				<g>
					<path style="fill:#F0F0F0;" d="M161.759,444.807c0,0,4.768,2.6,3.946,3.298c-0.822,0.698-20.349-3.65-28.794-6.321l0.112-0.376
						l22.734,5.265C159.757,446.673,160.754,444.628,161.759,444.807z"/>
				</g>
			</g>
		</g>
		<g>
			<g>
				<g>
					<g>
						<path style="fill:#263238;" d="M136.757,441.338c-0.002,0.007,0.097,0.04,0.287,0.097c0.25,0.072,0.524,0.15,0.833,0.239
							c0.837,0.225,1.865,0.5,3.079,0.826c2.604,0.679,6.215,1.569,10.223,2.465c4.01,0.895,7.656,1.626,10.302,2.12
							c1.237,0.222,2.285,0.41,3.137,0.563c0.317,0.051,0.599,0.097,0.856,0.138c0.196,0.029,0.3,0.041,0.301,0.034
							c0.001-0.007-0.1-0.033-0.293-0.076c-0.255-0.053-0.534-0.112-0.848-0.177c-0.849-0.171-1.892-0.381-3.124-0.629
							c-2.637-0.531-6.277-1.286-10.284-2.18c-4.006-0.896-7.62-1.762-10.233-2.404c-1.22-0.3-2.254-0.554-3.094-0.76
							c-0.313-0.074-0.59-0.14-0.843-0.2C136.861,441.35,136.759,441.331,136.757,441.338z"/>
					</g>
				</g>
			</g>
		</g>
		<g>
			<g>
				<g>
					<g>
						<path style="fill:#263238;" d="M159.693,446.938c0.061,0.022,0.275-0.71,0.911-1.355c0.624-0.656,1.349-0.893,1.325-0.954
							c-0.001-0.054-0.806,0.105-1.477,0.806C159.772,446.129,159.639,446.939,159.693,446.938z"/>
					</g>
				</g>
			</g>
		</g>
		<g>
			<g>
				<g>
					<g>
						<path style="fill:#263238;" d="M155.217,443.254c0.041,0.042,0.348-0.199,0.685-0.536c0.337-0.338,0.577-0.645,0.535-0.686
							c-0.042-0.042-0.348,0.199-0.685,0.536C155.415,442.906,155.175,443.213,155.217,443.254z"/>
					</g>
				</g>
			</g>
		</g>
		<g>
			<g>
				<g>
					<g>
						<path style="fill:#263238;" d="M153.995,442.214c0.029,0.051,0.339-0.069,0.692-0.268c0.354-0.199,0.617-0.402,0.588-0.453
							c-0.029-0.051-0.339,0.069-0.692,0.268C154.23,441.96,153.966,442.163,153.995,442.214z"/>
					</g>
				</g>
			</g>
		</g>
		<g>
			<g>
				<g>
					<g>
						<path style="fill:#263238;" d="M153.479,440.405c-0.013,0.057,0.375,0.197,0.867,0.313c0.492,0.115,0.902,0.163,0.916,0.105
							c0.013-0.057-0.375-0.197-0.867-0.312C153.902,440.395,153.492,440.348,153.479,440.405z"/>
					</g>
				</g>
			</g>
		</g>
		<g>
			<g>
				<g>
					<g>
						<path style="fill:#263238;" d="M153.432,439.199c-0.031,0.047,0.361,0.34,0.931,0.511c0.57,0.174,1.058,0.148,1.059,0.092
							c0.003-0.061-0.456-0.129-0.997-0.295C153.883,439.345,153.463,439.147,153.432,439.199z"/>
					</g>
				</g>
			</g>
		</g>
		<g>
			<g>
				<g>
					<g>
						<path style="fill:#263238;" d="M156.129,441.892c-0.006,0.023,0.404,0.168,1.101,0.238c0.348,0.035,0.766,0.044,1.227,0.003
							c0.231-0.029,0.468-0.036,0.731-0.127c0.125-0.048,0.268-0.123,0.348-0.281c0.082-0.155,0.035-0.359-0.069-0.476
							c-0.929-0.778-2.113-0.421-2.623,0.035c-0.277,0.229-0.435,0.478-0.522,0.653c-0.086,0.178-0.106,0.286-0.094,0.291
							c0.036,0.023,0.171-0.416,0.709-0.826c0.265-0.201,0.637-0.371,1.075-0.401c0.414-0.029,0.973,0.063,1.29,0.381
							c0.146,0.168,0.032,0.358-0.188,0.431c-0.207,0.076-0.457,0.095-0.676,0.126c-0.448,0.051-0.856,0.057-1.197,0.043
							C156.556,441.95,156.136,441.858,156.129,441.892z"/>
					</g>
				</g>
			</g>
		</g>
		<g>
			<g>
				<g>
					<g>
						<path style="fill:#263238;" d="M156.402,442.009c0.013,0.016,0.238-0.229,0.297-0.735c0.027-0.249,0.002-0.556-0.121-0.87
							c-0.14-0.287-0.314-0.679-0.79-0.764c-0.262-0.024-0.451,0.238-0.452,0.432c-0.023,0.197,0.027,0.382,0.077,0.533
							c0.102,0.311,0.238,0.574,0.371,0.78c0.27,0.413,0.513,0.603,0.53,0.585c0.025-0.023-0.175-0.246-0.401-0.661
							c-0.112-0.207-0.227-0.465-0.313-0.762c-0.099-0.266-0.11-0.706,0.177-0.695c0.281,0.035,0.501,0.371,0.62,0.628
							c0.12,0.276,0.159,0.554,0.152,0.784C156.533,441.731,156.367,441.993,156.402,442.009z"/>
					</g>
				</g>
			</g>
		</g>
		<g>
			<g>
				<g>
					<g>
						<path style="fill:#263238;" d="M138.148,436.736c-0.005,0.039,0.5,0.062,1.253,0.326c0.747,0.256,1.742,0.807,2.504,1.75
							c0.761,0.945,1.089,2.034,1.181,2.818c0.098,0.791,0.013,1.289,0.053,1.293c0.013,0.002,0.046-0.12,0.077-0.345
							c0.032-0.225,0.05-0.556,0.019-0.964c-0.055-0.809-0.371-1.951-1.165-2.936c-0.795-0.983-1.844-1.534-2.622-1.759
							c-0.392-0.116-0.719-0.169-0.946-0.185C138.275,436.716,138.149,436.723,138.148,436.736z"/>
					</g>
				</g>
			</g>
		</g>
		<g>
			<g>
				<g>
					<g>
						<path style="fill:#455A64;" d="M141.505,430.014c-0.057-0.014-0.474,1.545-0.93,3.48c-0.457,1.936-0.781,3.515-0.724,3.529
							c0.057,0.013,0.474-1.544,0.93-3.48C141.238,431.607,141.562,430.027,141.505,430.014z"/>
					</g>
				</g>
			</g>
		</g>
		<g>
			<g>
				<g>
					<g>
						<path style="fill:#263238;" d="M145.666,441.839c-0.019,0.052,1.054,0.483,2.441,0.804c1.387,0.325,2.54,0.412,2.546,0.357
							c0.008-0.061-1.124-0.242-2.498-0.563C146.781,442.118,145.686,441.78,145.666,441.839z"/>
					</g>
				</g>
			</g>
		</g>
		<g>
			<g>
				<g>
					<g>
						<path style="fill:#263238;" d="M142.315,441.087c-0.051,0.033,0.039,0.257,0.096,0.539c0.061,0.281,0.069,0.523,0.129,0.532
							c0.055,0.012,0.148-0.251,0.079-0.576C142.552,441.257,142.361,441.054,142.315,441.087z"/>
					</g>
				</g>
			</g>
		</g>
		<g>
			<g>
				<g>
					<g>
						<path style="fill:#455A64;" d="M141.402,439.234c-0.05,0.031,0.021,0.234,0.158,0.452c0.137,0.219,0.288,0.371,0.338,0.34
							c0.05-0.031-0.021-0.234-0.158-0.453C141.603,439.355,141.452,439.203,141.402,439.234z"/>
					</g>
				</g>
			</g>
		</g>
		<g>
			<g>
				<g>
					<g>
						<path style="fill:#455A64;" d="M139.754,438.113c-0.001,0.061,0.227,0.109,0.458,0.254c0.235,0.139,0.383,0.318,0.436,0.289
							c0.053-0.021-0.037-0.297-0.326-0.471C140.035,438.009,139.749,438.057,139.754,438.113z"/>
					</g>
				</g>
			</g>
		</g>
		<g>
			<g>
				<g>
					<g>
						<path style="fill:#455A64;" d="M138.543,437.488c-0.033,0.049,0.046,0.158,0.176,0.245c0.13,0.087,0.261,0.117,0.294,0.069
							c0.033-0.049-0.046-0.158-0.176-0.245C138.707,437.47,138.576,437.439,138.543,437.488z"/>
					</g>
				</g>
			</g>
		</g>
		<g>
			<path style="fill:#263238;" d="M163.22,286.601l-20.255-7.163l0,0l-27.893,5.058l0.797,156.322l26.485-0.347
				c0,0-0.023-1.822-0.061-5.022l15.525,4.248c0,0,15.134-51.116,20.294-72.097C182.414,350.1,163.22,286.601,163.22,286.601z
				 M142.005,409.97c-0.404-37.818-0.95-98.288-0.397-106.155c0,0,14.833,52.778,14.974,57.246
				C156.668,363.778,148.455,389.91,142.005,409.97z"/>
		</g>
		<g>
			<path style="fill:#455A64;" d="M142.26,408.539c0.144,0,0.262,7.009,0.264,15.654c0.002,8.647-0.113,15.655-0.256,15.655
				c-0.144,0-0.262-7.008-0.264-15.655C142.001,415.548,142.116,408.539,142.26,408.539z"/>
		</g>
		<g>
			<path style="fill:#455A64;" d="M148.005,436.764c-0.009-0.002,0.014-0.125,0.066-0.361c0.061-0.262,0.142-0.608,0.245-1.048
				c0.234-0.948,0.566-2.295,0.991-4.016c0.89-3.512,2.166-8.542,3.739-14.745c3.212-12.463,7.637-29.632,12.525-48.595
				c0.994-3.827,1.969-7.581,2.901-11.172l-0.003,0.115c-3.246-16.558-6.496-31.054-9.065-41.379
				c-1.284-5.139-2.316-9.269-3.035-12.147c-0.35-1.401-0.623-2.496-0.816-3.271c-0.083-0.354-0.149-0.634-0.2-0.85
				c-0.042-0.192-0.06-0.291-0.053-0.293c0.008-0.002,0.041,0.093,0.099,0.281c0.062,0.213,0.143,0.489,0.245,0.838
				c0.214,0.77,0.516,1.857,0.902,3.249c0.77,2.833,1.873,6.954,3.186,12.111c2.658,10.305,5.974,24.802,9.24,41.36l0.011,0.058
				l-0.015,0.057c-0.93,3.592-1.903,7.346-2.894,11.173c-4.946,18.949-9.423,36.104-12.673,48.557
				c-1.64,6.185-2.971,11.201-3.899,14.703c-0.465,1.71-0.829,3.049-1.085,3.991c-0.124,0.434-0.221,0.776-0.295,1.035
				C148.053,436.649,148.013,436.767,148.005,436.764z"/>
		</g>
		<g>
			<path style="fill:#455A64;" d="M127.053,439.518c-0.144,0-0.26-31.458-0.26-70.254c0-38.81,0.117-70.261,0.26-70.261
				s0.26,31.451,0.26,70.261C127.313,408.06,127.196,439.518,127.053,439.518z"/>
		</g>
		<g>
			<path style="fill:#E6BBAC;" d="M134.395,201.545l16.027,0.793c0.169-1.856,0.303-9.057,0.303-9.057s6.666-0.784,6.995-7.407
				c0.329-6.624-0.253-21.883-0.253-21.883l0,0c-7.548-3.583-16.444-2.799-23.25,2.047l-1.01,0.719L134.395,201.545z"/>
		</g>
		<g>
			<g>
				<path style="fill:#263238;" d="M154.119,175.322c-0.38-0.372-0.387-0.981-0.016-1.362c0.372-0.38,0.981-0.387,1.362-0.016
					c0.38,0.372,0.387,0.981,0.016,1.362S154.5,175.694,154.119,175.322z"/>
			</g>
			<g>
				<g>
					<path style="fill:#263238;" d="M157.181,173.869c-0.108,0.111-0.74-0.414-1.652-0.452c-0.912-0.052-1.593,0.408-1.689,0.287
						c-0.047-0.054,0.064-0.257,0.361-0.466c0.292-0.208,0.787-0.4,1.355-0.372c0.568,0.028,1.042,0.268,1.312,0.504
						C157.143,173.607,157.234,173.82,157.181,173.869z"/>
				</g>
			</g>
		</g>
		<g>
			<g>
				<path style="fill:#263238;" d="M145.673,174.273c0.442,0.295,0.562,0.893,0.266,1.335c-0.295,0.442-0.893,0.562-1.335,0.266
					c-0.442-0.295-0.562-0.893-0.266-1.336C144.633,174.097,145.231,173.978,145.673,174.273z"/>
			</g>
			<g>
				<g>
					<path style="fill:#263238;" d="M147.238,174.304c-0.108,0.111-0.74-0.414-1.652-0.452c-0.912-0.052-1.593,0.408-1.689,0.287
						c-0.047-0.054,0.064-0.257,0.361-0.466c0.292-0.208,0.787-0.4,1.355-0.372c0.568,0.028,1.042,0.268,1.312,0.504
						C147.2,174.042,147.29,174.255,147.238,174.304z"/>
				</g>
			</g>
		</g>
		<g>
			<g>
				<path style="fill:#263238;" d="M150.617,181.97c-0.004-0.072,0.565-0.165,1.488-0.258c0.24-0.017,0.429-0.064,0.451-0.192
					c0.048-0.143-0.035-0.401-0.145-0.69c-0.212-0.613-0.428-1.232-0.653-1.881c-0.899-2.679-1.517-4.888-1.38-4.934
					c0.136-0.046,0.975,2.089,1.874,4.768c0.212,0.654,0.414,1.278,0.614,1.894c0.077,0.279,0.231,0.608,0.093,0.998
					c-0.073,0.195-0.267,0.331-0.426,0.366c-0.16,0.042-0.295,0.037-0.41,0.038C151.196,182.078,150.621,182.042,150.617,181.97z"/>
			</g>
		</g>
		<g>
			<path style="fill:#FFFFFF;" d="M147.615,182.868c-0.93-0.602,2.566,1.489,4.428,1.467c0,0-1.129,1.663-3.014,0.893
				C147.072,184.428,147.615,182.868,147.615,182.868z"/>
		</g>
		<g>
			<path style="fill:#D88876;" d="M150.741,193.186c0,0-4.201,0.185-8.548-2.777c0,0,1.864,4.845,8.499,4.495L150.741,193.186z"/>
		</g>
		<g>
			<path style="fill:#E6BBAC;" d="M134.455,174.039c-0.145-0.051-4.925-0.554-4.338,5.062c0.587,5.617,6.066,3.166,6.058,3.004
				C136.169,181.943,134.455,174.039,134.455,174.039z"/>
		</g>
		<g>
			<g>
				<path style="fill:#D88876;" d="M134.249,180.314c-0.027-0.015-0.091,0.079-0.248,0.172c-0.154,0.09-0.425,0.171-0.73,0.092
					c-0.616-0.156-1.214-1.046-1.347-2.055c-0.068-0.51-0.012-1.008,0.127-1.43c0.128-0.429,0.364-0.744,0.657-0.828
					c0.29-0.1,0.52,0.057,0.605,0.208c0.092,0.149,0.068,0.265,0.099,0.271c0.017,0.012,0.111-0.107,0.041-0.334
					c-0.035-0.109-0.115-0.235-0.258-0.329c-0.146-0.096-0.35-0.131-0.556-0.087c-0.43,0.075-0.778,0.515-0.931,0.978
					c-0.176,0.468-0.252,1.029-0.175,1.601c0.154,1.128,0.844,2.126,1.681,2.276c0.406,0.062,0.723-0.092,0.879-0.242
					C134.253,180.451,134.27,180.322,134.249,180.314z"/>
			</g>
		</g>
		<path style="fill:#263238;" d="M156.544,164.4c1.624-0.443,2.737-2.173,2.635-3.853c-0.102-1.681-1.3-3.199-2.848-3.861
			c-1.548-0.663-3.376-0.521-4.898,0.199c-0.524-2.433-2.965-4.301-5.45-4.171c-2.486,0.13-4.718,2.241-4.986,4.716
			c-0.191-1.273-1.654-1.952-2.94-1.997c-1.284-0.045-2.65,0.365-3.459,1.364c-0.809,0.998-0.852,2.64,0.116,3.485
			c-1.435-0.127-2.938,0.208-4.083,1.084s-1.877,2.324-1.735,3.757c0.142,1.434,1.242,2.767,2.659,3.026
			c0.488,0.089,1.073,0.101,1.345,0.515c0.151,0.23,0.154,0.523,0.153,0.797c-0.008,1.588-0.015,3.176-0.023,4.764
			c0.828-0.443,1.905,0.139,2.333,0.975c0.427,0.836,0.383,1.825,0.329,2.763c0.422,0.603,1.446,0.397,1.876-0.201
			c0.43-0.597,0.438-1.389,0.43-2.125c-0.03-2.553-0.06-5.105-0.09-7.658c0.76,0.398,1.724,0.375,2.464-0.06s1.23-1.265,1.252-2.123
			c1.103,1.009,2.669,1.49,4.149,1.273c1.479-0.217,2.841-1.128,3.607-2.412c0.805,0.607,1.622,1.221,2.553,1.609
			c0.931,0.388,2.004,0.533,2.949,0.181c0.945-0.352,1.708-1.279,1.668-2.287c-0.115-0.093-0.229-0.186-0.343-0.279"/>
		<g>
			<g>
				<path style="fill:#E8505B;" d="M209.464,220.512c-3.02,0-5.468,2.448-5.468,5.468s2.448,5.468,5.468,5.468
					c3.02,0,5.469-2.448,5.469-5.468S212.484,220.512,209.464,220.512z M209.464,224.988c-0.866,0-1.569-0.702-1.569-1.569
					c0-0.866,0.702-1.569,1.569-1.569c0.866,0,1.569,0.702,1.569,1.569C211.033,224.286,210.33,224.988,209.464,224.988z"/>
			</g>
			<g>
				<path style="fill:#E8505B;" d="M207.651,231.047v9.833c0,0,2.176,1.002,2.058,1.133c-0.117,0.131,1.569-1.133,1.569-1.133
					v-1.177l-0.989-1.002l0.989-0.915l-1.032-1.251l1.032-1.102l-1.119-1.264l1.119-1.133v-1.989H207.651z"/>
			</g>
		</g>
		<g>
			<path style="fill:#263238;" d="M215.554,211.755l-6.258-5.587l-6.258,5.668l1.858,0.292l0.161,5.735l8.508,0.144l-0.244-6.022
				L215.554,211.755z M209.25,216.944c-0.57-0.026-1.011-0.509-0.985-1.079c0.026-0.57,0.509-1.011,1.079-0.985
				c0.57,0.026,1.011,0.509,0.985,1.079C210.303,216.528,209.82,216.97,209.25,216.944z"/>
		</g>
		<g>
			<g>
				<path style="fill:#455A64;" d="M210.087,216.574c-0.009,0.035-0.187,0.047-0.488,0.041c-0.297-0.031-0.737,0.012-1.228,0.191
					c-0.486,0.184-1.028,0.53-1.423,1.086c-0.4,0.545-0.637,1.296-0.552,2.073c0.079,0.777,0.474,1.462,0.982,1.908
					c0.507,0.457,1.107,0.68,1.622,0.756c1.054,0.137,1.695-0.227,1.724-0.14c0.041,0.032-0.563,0.552-1.76,0.506
					c-0.583-0.034-1.292-0.25-1.9-0.759c-0.609-0.497-1.094-1.299-1.187-2.216c-0.101-0.914,0.198-1.801,0.686-2.417
					c0.483-0.63,1.131-0.99,1.693-1.148c0.568-0.154,1.052-0.137,1.362-0.043C209.934,216.484,210.097,216.54,210.087,216.574z"/>
			</g>
		</g>
		<g>
			<g>
				<path style="fill:#455A64;" d="M212.083,221.179c-0.129-0.074,0.178-0.776,0.126-1.662c-0.028-0.905-0.376-1.551-0.279-1.639
					c0.108-0.126,0.767,0.555,0.799,1.615C212.782,220.566,212.189,221.271,212.083,221.179z"/>
			</g>
		</g>
		<path style="fill:#E6BBAC;" d="M193.664,213.185c0.571-1.472,1.466-4.001,2.368-5.297c0.902-1.296,2.113-2.422,3.589-2.981
			c1.923-0.728,4.062-0.437,6.096-0.135c1.642,0.244,3.284,0.487,4.927,0.731c0.668,0.099,1.519,0.403,1.492,1.078
			c-0.016,0.397-0.376,0.711-0.761,0.812c-0.384,0.101-0.79,0.041-1.184-0.008c-1.088-0.133-2.188-0.164-3.282-0.093
			c-0.783,0.051-1.75,0.322-1.876,1.097c-0.112,0.688,0.614,1.28,1.311,1.301s1.339-0.348,1.938-0.706
			c0.641-0.383,1.283-0.765,1.924-1.148c0.367-0.219,0.783-0.447,1.199-0.35c0.711,0.164,0.88,1.183,0.504,1.808
			c-0.377,0.625-1.068,0.972-1.672,1.382c-2.478,1.681-3.628,4.404-4.769,8"/>
		<g>
			<path style="fill:#E8505B;" d="M193.709,212.43l-11.042,28.356l-11.441-26.467c-3.579-12.814-19.394-13.655-19.394-13.655
				l-15.653-2.011c-5.627-2.292-14.75-0.38-18.317,1.581c-4.549,2.501-8.593,10.199-9.49,15.867c0,0-15.762,40.751-13.072,45.007
				c2.69,4.256,19.562,20.868,19.562,20.868l-2.351,8.583l26.782,1.69l2.74-10.551l0.318,11.308l25.18,1.777
				c-1.102-9.956-2.879-19.95-3.363-22.801l-2.014-29.195l0.252-6.046l0.247-0.627c2.362,3.952,5.324,9.028,8.982,15.489
				c7.354,12.994,14.783,9.672,19.146,4.455c2.848-3.406,4.129-8.031,4.129-8.031l10.827-30.443L193.709,212.43z M116.994,261.094
				c-0.013,0.154-2.7-4.816-2.7-4.816l3.931-12.954C118.225,243.324,117.008,260.939,116.994,261.094z"/>
		</g>
		<polygon style="fill:#FFFFFF;" points="134.169,199.002 142.615,231.449 151.382,200.976 150.408,200.9 150.643,196.893 
			134.169,194.921 		"/>
		<g>
			<path style="fill:#263238;" d="M133.722,199.312c0.015,0.003-0.001,0.153-0.045,0.438c-0.057,0.334-0.128,0.746-0.214,1.25
				c-0.218,1.151-0.514,2.717-0.88,4.652c-0.395,2.003-0.864,4.38-1.391,7.055c-0.254,1.314-0.636,2.823,0.106,4.065
				c0.735,1.239,2.284,1.842,3.798,2.347l0.292,0.097l-0.153,0.267c-1.212,2.111-1.118,4.944-0.222,7.484
				c0.552,1.624,1.327,3.138,2.062,4.625c0.736,1.486,1.451,2.931,2.141,4.324c1.369,2.781,2.635,5.354,3.759,7.637l-0.393,0.096
				c-0.016-3.672-0.028-6.703-0.038-8.89c0.009-1.012,0.016-1.827,0.021-2.449c0.012-0.562,0.028-0.86,0.049-0.86
				c0.021,0,0.046,0.297,0.074,0.858c0.023,0.622,0.054,1.436,0.091,2.448c0.053,2.186,0.127,5.216,0.217,8.887l0.023,0.921
				l-0.416-0.825c-1.145-2.273-2.435-4.834-3.829-7.602c-0.696-1.39-1.418-2.832-2.16-4.314c-0.738-1.482-1.527-3.014-2.096-4.688
				c-0.923-2.62-1.043-5.617,0.279-7.901l0.138,0.364c-0.78-0.263-1.552-0.548-2.266-0.945c-0.71-0.392-1.373-0.928-1.781-1.639
				c-0.424-0.707-0.519-1.534-0.47-2.275c0.048-0.749,0.21-1.448,0.349-2.116c0.57-2.666,1.076-5.035,1.502-7.032
				c0.426-1.923,0.771-3.48,1.025-4.623c0.119-0.497,0.217-0.904,0.296-1.233C133.663,199.453,133.708,199.309,133.722,199.312z"/>
		</g>
		<g>
			<path style="fill:#263238;" d="M152.907,201.176c0.032-0.005,0.154,0.529,0.339,1.513c0.184,0.984,0.433,2.415,0.706,4.206
				c0.263,1.793,0.588,3.937,0.774,6.372c0.045,0.61,0.085,1.235,0.061,1.893c0.006,0.664-0.209,1.392-0.618,1.963
				c-0.815,1.16-2.01,1.981-3.322,2.639l0.047-0.441c0.473,0.385,0.829,0.832,1.148,1.337c0.078,0.126,0.152,0.255,0.222,0.386
				c0.035,0.086,0.07,0.264,0.059,0.342l-0.027,0.246c-0.055,0.306-0.133,0.592-0.216,0.876c-1.007,3.134-2.244,5.977-3.328,8.588
				c-1.103,2.601-2.128,4.928-3.003,6.877c-0.875,1.948-1.599,3.517-2.112,4.596c-0.24,0.491-0.439,0.899-0.604,1.236
				c-0.144,0.28-0.227,0.424-0.244,0.416s0.035-0.165,0.148-0.459c0.14-0.348,0.31-0.769,0.515-1.275
				c0.495-1.177,1.156-2.751,1.96-4.661c0.835-1.992,1.815-4.331,2.898-6.915c1.056-2.61,2.285-5.478,3.271-8.55
				c0.081-0.274,0.155-0.55,0.202-0.811l0.021-0.183c-0.001-0.063,0-0.031,0.001-0.08c-0.065-0.121-0.133-0.24-0.204-0.356
				c-0.283-0.457-0.641-0.891-1.014-1.197l-0.319-0.261l0.366-0.181c1.23-0.609,2.4-1.415,3.127-2.448
				c0.779-1.02,0.528-2.353,0.509-3.549c-0.154-2.411-0.441-4.562-0.658-6.355c-0.226-1.732-0.411-3.153-0.551-4.224
				C152.935,201.727,152.875,201.182,152.907,201.176z"/>
		</g>
		<g>
			<path style="fill:#263238;" d="M142.036,282.936c-0.144-0.004-0.004-9.174,0.312-20.479c0.316-11.309,0.689-20.471,0.832-20.467
				c0.144,0.004,0.004,9.172-0.312,20.481C142.552,273.777,142.18,282.94,142.036,282.936z"/>
		</g>
		<g>
			<path style="fill:#263238;" d="M146.115,250.186c-0.064-0.037,0.265-0.364,0.81-0.119c0.242,0.117,0.535,0.369,0.577,0.803
				c0.048,0.445-0.334,0.87-0.764,0.968c-0.423,0.127-0.964-0.053-1.143-0.462c-0.18-0.395-0.054-0.76,0.095-0.983
				c0.345-0.485,0.792-0.375,0.757-0.311c0.007,0.076-0.288,0.129-0.437,0.493c-0.071,0.171-0.094,0.413,0.009,0.578
				c0.092,0.167,0.327,0.246,0.585,0.181c0.256-0.071,0.421-0.256,0.418-0.446c0.008-0.193-0.134-0.391-0.282-0.502
				C146.428,250.146,146.149,250.254,146.115,250.186z"/>
		</g>
		<g>
			<path style="fill:#263238;" d="M146.217,260.583c-0.064-0.037,0.265-0.364,0.809-0.119c0.242,0.117,0.536,0.369,0.577,0.803
				c0.048,0.445-0.334,0.87-0.764,0.968c-0.423,0.128-0.964-0.053-1.143-0.462c-0.18-0.395-0.054-0.76,0.095-0.983
				c0.345-0.485,0.791-0.375,0.757-0.311c0.007,0.076-0.288,0.129-0.437,0.493c-0.071,0.171-0.094,0.413,0.01,0.578
				c0.092,0.167,0.327,0.246,0.585,0.181c0.256-0.071,0.421-0.256,0.418-0.446c0.008-0.193-0.133-0.391-0.281-0.502
				C146.531,260.543,146.251,260.651,146.217,260.583z"/>
		</g>
		<g>
			<path style="fill:#263238;" d="M145.77,272.34c-0.064-0.037,0.265-0.364,0.809-0.119c0.242,0.117,0.536,0.369,0.577,0.803
				c0.048,0.445-0.334,0.87-0.764,0.968c-0.423,0.128-0.964-0.053-1.143-0.462c-0.18-0.395-0.054-0.76,0.095-0.983
				c0.345-0.485,0.791-0.375,0.757-0.311c0.007,0.076-0.288,0.129-0.437,0.493c-0.072,0.171-0.094,0.413,0.01,0.578
				c0.092,0.167,0.327,0.246,0.585,0.181c0.256-0.071,0.421-0.256,0.418-0.446c0.008-0.193-0.133-0.391-0.281-0.502
				C146.083,272.301,145.803,272.409,145.77,272.34z"/>
		</g>
		<polygon style="fill:#263238;" points="151.382,232.6 158.742,232.6 158.742,231.449 150.989,231.449 		"/>
		<g>
			<path style="fill:#455A64;" d="M203.637,223.291c-0.062,0.13-2.713-1.009-5.921-2.544c-3.209-1.535-5.759-2.884-5.697-3.014
				c0.062-0.13,2.713,1.009,5.922,2.544C201.148,221.812,203.699,223.162,203.637,223.291z"/>
		</g>
		<g>
			<path style="fill:#455A64;" d="M193.664,215.54c-0.052-0.032,0.058-0.325,0.496-0.489c0.211-0.074,0.513-0.111,0.822,0.037
				c0.318,0.135,0.556,0.54,0.523,0.921c-0.002,0.38-0.28,0.79-0.684,0.846c-0.419,0.041-0.664-0.228-0.771-0.433
				c-0.117-0.218-0.098-0.452-0.02-0.571c0.079-0.12,0.162-0.133,0.182-0.112c0.049,0.053-0.066,0.257,0.147,0.484
				c0.209,0.266,0.594,0.227,0.625-0.237c0.035-0.45-0.406-0.62-0.738-0.576C193.914,215.441,193.72,215.594,193.664,215.54z"/>
		</g>
		<g>
			<path style="fill:#263238;" d="M182.138,246.736c-0.143-0.017-0.086-1.464,0.126-3.23c0.212-1.767,0.5-3.185,0.643-3.168
				c0.143,0.017,0.086,1.463-0.126,3.23C182.568,245.334,182.28,246.753,182.138,246.736z"/>
		</g>
		<g>
			<path style="fill:#263238;" d="M184.692,246.427c-0.136,0.046-0.682-1.216-1.218-2.819c-0.536-1.603-0.861-2.938-0.724-2.984
				c0.136-0.046,0.682,1.216,1.218,2.819C184.504,245.046,184.828,246.382,184.692,246.427z"/>
		</g>
		<path style="fill:#455A64;" d="M144.664,198.279c-0.321,1.401-1.014,2.678-1.874,3.9l1.47,3.989h1.254l1.051-3.834
			c0,0-0.736-0.593-1.279-4.184L144.664,198.279z"/>
		<g>
			<path style="fill:#E0E0E0;" d="M150.364,200.809c0.022,0.018-0.12,0.268-0.441,0.691c-0.326,0.391-0.84,1.088-1.865,1.327
				c-0.488,0.102-1.131,0.074-1.636-0.358c-0.499-0.438-0.675-1.1-0.852-1.708c-0.355-1.253-0.61-2.689-0.665-4.233l0.5,0.062
				c-0.233,0.821-0.45,1.685-0.744,2.562c-0.318,0.885-0.629,1.722-1.111,2.51c-0.247,0.384-0.564,0.747-0.976,0.981
				c-0.409,0.242-0.884,0.316-1.311,0.296c-0.867-0.056-1.585-0.363-2.248-0.645c-0.66-0.296-1.243-0.63-1.757-0.958
				c-1.025-0.66-1.79-1.273-2.319-1.693c-0.526-0.425-0.806-0.672-0.785-0.701c0.055-0.081,1.255,0.831,3.296,2.081
				c0.516,0.302,1.093,0.607,1.736,0.875c0.64,0.256,1.359,0.531,2.095,0.562c0.748,0.052,1.418-0.36,1.84-1.072
				c0.422-0.696,0.747-1.558,1.048-2.402c0.285-0.849,0.505-1.709,0.747-2.536c0.038-0.136,0.179-0.215,0.314-0.176
				c0.109,0.031,0.182,0.131,0.186,0.238c0.042,1.502,0.268,2.903,0.585,4.133c0.159,0.616,0.318,1.195,0.684,1.53
				c0.361,0.336,0.882,0.396,1.313,0.326c0.887-0.155,1.432-0.765,1.79-1.118C150.145,201.004,150.337,200.788,150.364,200.809z"/>
		</g>
		<path style="fill:#455A64;" d="M144.26,206.168c-0.214,0.519-4.145,15.679-4.145,15.679l2.499,9.602l4.606-16.009
			c0,0-1.563-9.794-1.635-9.533C145.514,206.168,144.26,206.168,144.26,206.168z"/>
		<g>
			<path style="fill:#263238;" d="M129.858,277.172c0.018,0.13-2.751,0.512-6.166,0.196c-3.417-0.301-6.072-1.173-6.032-1.298
				c0.039-0.151,2.715,0.484,6.078,0.779C127.1,277.162,129.847,277.017,129.858,277.172z"/>
		</g>
		<g>
			<path style="fill:#263238;" d="M164.588,279.24c-0.008,0.144-1.913,0.155-4.255,0.026c-2.342-0.129-4.234-0.351-4.226-0.494
				c0.008-0.144,1.913-0.155,4.255-0.026C162.704,278.875,164.596,279.096,164.588,279.24z"/>
		</g>
		<g>
			<path style="fill:#263238;" d="M118.399,228.948c0.018,0,0.037,0.19,0.056,0.553c0.016,0.421,0.035,0.946,0.059,1.587
				c0.043,1.378,0.069,3.373,0.072,5.838c0.008,4.93-0.121,11.742-0.528,19.255c-0.41,7.515-1.019,14.302-1.562,19.202
				c-0.27,2.45-0.513,4.43-0.704,5.795c-0.093,0.635-0.169,1.154-0.23,1.571c-0.058,0.358-0.098,0.546-0.115,0.543
				c-0.018-0.002-0.013-0.193,0.011-0.556c0.035-0.42,0.079-0.943,0.133-1.581c0.134-1.445,0.317-3.412,0.539-5.809
				c0.448-4.905,0.998-11.688,1.408-19.193c0.406-7.503,0.593-14.305,0.679-19.23c0.039-2.407,0.07-4.382,0.093-5.834
				c0.016-0.641,0.029-1.166,0.039-1.587C118.364,229.139,118.381,228.948,118.399,228.948z"/>
		</g>
		<g>
			<path style="fill:#263238;" d="M114.294,256.772c-0.138-0.039,0.798-3.758,2.091-8.305c1.294-4.549,2.454-8.203,2.593-8.163
				c0.138,0.039-0.798,3.757-2.092,8.306C115.593,253.157,114.432,256.812,114.294,256.772z"/>
		</g>
		<g>
			<path style="fill:#263238;" d="M117.391,262.047c-0.126,0.07-1.618-2.375-3.333-5.46c-1.716-3.086-3.004-5.643-2.878-5.713
				c0.126-0.07,1.618,2.374,3.333,5.46C116.228,259.419,117.517,261.977,117.391,262.047z"/>
		</g>
	</g>
</g>
</svg>
