<svg width="335" height="335" viewBox="0 0 335 335" fill="none" xmlns="http://www.w3.org/2000/svg">
<path d="M167.5 0C260.008 0 335 74.9923 335 167.5C335 260.008 260.008 335 167.5 335C74.9923 335 0 260.008 0 167.5C0 74.9923 74.9923 0 167.5 0ZM167.293 20.7305C85.662 20.7305 19.4866 86.9052 19.4863 168.536C19.4863 250.167 85.6618 316.343 167.293 316.343C248.924 316.343 315.099 250.167 315.099 168.536C315.098 86.9053 248.924 20.7306 167.293 20.7305Z" fill="#6A7282"/>
<path fill-rule="evenodd" clip-rule="evenodd" d="M167.293 311.782C246.634 311.782 310.953 247.464 310.953 168.122C310.953 88.7808 246.634 24.4619 167.293 24.4619C87.9513 24.4619 23.6324 88.7808 23.6324 168.122C23.6324 247.464 87.9513 311.782 167.293 311.782ZM72.1411 247.519V263.274H128.113L167.293 302.454L206.68 263.274H262.03V247.726H200.461L167.293 280.065L134.124 247.726L72.1411 247.519ZM189.681 207.302L205.644 231.349H262.03L283.589 206.887C280.476 208.125 277.546 209.363 274.72 210.557C261.931 215.96 251.286 220.457 235.495 219.947C215.95 218.989 207.032 215.02 193.189 208.859C192.055 208.354 190.889 207.835 189.681 207.302ZM128.527 231.349L144.489 207.302C143.282 207.835 142.115 208.354 140.982 208.859C127.138 215.02 118.221 218.989 98.6757 219.947C82.8851 220.457 72.24 215.96 59.4506 210.557C56.6251 209.363 53.695 208.125 50.5817 206.887L72.1411 231.349H128.527ZM32.7537 167.915L56.3861 191.547L84.9938 105.309V86.6522H139.722L167.085 56.3861L194.449 86.6522H249.384V104.895L278.199 191.132L301.21 168.122L262.03 128.942V73.3849H206.058L167.085 34.4121L128.113 73.3849H72.1411V128.942L32.7537 167.915ZM157.55 104.895H109.041L138.063 190.925L157.55 104.895ZM225.13 104.895L196.315 191.132L176.621 104.895H225.13ZM167.293 243.373L179.938 228.447L167.293 124.589L154.44 228.447L167.293 243.373ZM243.58 116.504H230.105L206.265 200.461C206.265 200.461 225.959 204.192 237.361 204.192C248.762 204.192 267.627 200.461 267.627 200.461L243.58 116.504ZM90.591 116.504H104.066L128.113 200.461C128.113 200.461 109.248 204.192 97.8465 204.192C86.4449 204.192 66.7512 200.461 66.7512 200.461L90.591 116.504Z" fill="#6A7282"/>
</svg>
